<?xml version="1.0" encoding="UTF-8" standalone="no"?>
<!-- Created with Inkscape (http://www.inkscape.org/) -->

<svg
   xmlns:dc="http://purl.org/dc/elements/1.1/"
   xmlns:cc="http://creativecommons.org/ns#"
   xmlns:rdf="http://www.w3.org/1999/02/22-rdf-syntax-ns#"
   xmlns:svg="http://www.w3.org/2000/svg"
   xmlns="http://www.w3.org/2000/svg"
   xmlns:sodipodi="http://sodipodi.sourceforge.net/DTD/sodipodi-0.dtd"
   xmlns:inkscape="http://www.inkscape.org/namespaces/inkscape"
   width="50"
   height="50"
   viewBox="0 0 13.229166 13.229167"
   version="1.1"
   id="svg8"
   inkscape:version="0.92.5 (2060ec1f9f, 2020-04-08)"
   sodipodi:docname="lake.svg">
  <defs
     id="defs2">
    <inkscape:path-effect
       effect="powerstroke"
       id="path-effect850"
       is_visible="true"
       offset_points="1,0.13229166"
       sort_points="true"
       interpolator_type="CubicBezierJohan"
       interpolator_beta="0.2"
       start_linecap_type="zerowidth"
       linejoin_type="extrp_arc"
       miter_limit="4"
       end_linecap_type="zerowidth" />
    <inkscape:path-effect
       effect="powerstroke"
       id="path-effect846"
       is_visible="true"
       offset_points="1,0.13229166"
       sort_points="true"
       interpolator_type="CubicBezierJohan"
       interpolator_beta="0.2"
       start_linecap_type="zerowidth"
       linejoin_type="extrp_arc"
       miter_limit="4"
       end_linecap_type="zerowidth" />
    <inkscape:path-effect
       effect="powerstroke"
       id="path-effect842"
       is_visible="true"
       offset_points="1,0.13229166"
       sort_points="true"
       interpolator_type="CubicBezierJohan"
       interpolator_beta="0.2"
       start_linecap_type="zerowidth"
       linejoin_type="extrp_arc"
       miter_limit="4"
       end_linecap_type="zerowidth" />
  </defs>
  <sodipodi:namedview
     id="base"
     pagecolor="#ffffff"
     bordercolor="#666666"
     borderopacity="1.0"
     inkscape:pageopacity="0.0"
     inkscape:pageshadow="2"
     inkscape:zoom="16.28"
     inkscape:cx="7.8009826"
     inkscape:cy="26.412776"
     inkscape:document-units="mm"
     inkscape:current-layer="layer1"
     showgrid="false"
     units="px"
     inkscape:window-width="1920"
     inkscape:window-height="1053"
     inkscape:window-x="0"
     inkscape:window-y="0"
     inkscape:window-maximized="1" />
  <metadata
     id="metadata5">
    <rdf:RDF>
      <cc:Work
         rdf:about="">
        <dc:format>image/svg+xml</dc:format>
        <dc:type
           rdf:resource="http://purl.org/dc/dcmitype/StillImage" />
        <dc:title />
      </cc:Work>
    </rdf:RDF>
  </metadata>
  <g
     inkscape:label="1. réteg"
     inkscape:groupmode="layer"
     id="layer1"
     transform="translate(0,-283.77082)">
    <rect
       style="opacity:1;vector-effect:none;fill:#d3d3d3;fill-opacity:1;fill-rule:evenodd;stroke-width:0.26458332;stroke-linecap:butt;stroke-linejoin:miter;stroke-miterlimit:4;stroke-dasharray:none;stroke-dashoffset:0;stroke-opacity:1"
       id="rect826"
       width="13.229167"
       height="13.229167"
       x="0.016252046"
       y="283.78708" />
    <path
       style="fill:#00ffff;fill-rule:evenodd;stroke-width:0.0265314"
       d="m 8.6541937,284.37639 a 3.9301477,3.0261331 0 0 0 -3.9301526,3.02614 3.9301477,3.0261331 0 0 0 0.00613,0.13279 4.8712933,4.1485066 42.747301 0 0 -0.299718,-0.0148 4.8712933,4.1485066 42.747301 0 0 -3.77205591,4.49596 4.8712933,4.1485066 42.747301 0 0 5.21760721,4.49597 4.8712933,4.1485066 42.747301 0 0 3.7720555,-4.49597 4.8712933,4.1485066 42.747301 0 0 -0.5579769,-1.61008 3.9301477,3.0261331 0 0 0 3.494284,-3.0038 3.9301477,3.0261331 0 0 0 -3.9301535,-3.02613 z"
       id="path815"
       inkscape:connector-curvature="0" />
    <path
       inkscape:connector-curvature="0"
       id="path857"
       d="m 4.3168349,286.70806 c 0.032395,0.0426 0.068985,0.11347 0.1038432,0.21756 0.025972,0.0776 0.047613,0.163 0.066175,0.25126 0.018286,0.0869 0.031974,0.16965 0.043098,0.23617 0.015216,0.091 0.024497,0.14409 0.036311,0.17617 l 0.081785,-0.027 0.082124,-0.0269 0.026809,0.078 c 0.044768,-0.0137 0.089548,-0.0502 0.1269197,-0.11455 0.027384,-0.0472 0.049674,-0.10683 0.06855,-0.17649 0.048044,-0.17731 0.060245,-0.35674 0.07941,-0.48294 -0.017652,0.11624 -0.076486,0.31052 -0.1601768,0.45278 -0.021318,0.0362 -0.041994,0.0639 -0.062102,0.0876 -0.0037,-0.0544 -0.00818,-0.11874 -0.014932,-0.18965 -0.00821,-0.0861 -0.01816,-0.16842 -0.030203,-0.24451 -0.017227,-0.10885 -0.031162,-0.15946 -0.04208,-0.2073 0.00911,0.0399 0.013037,0.10865 0.00814,0.2089 -0.00364,0.0746 -0.01187,0.15856 -0.022737,0.24163 -0.010753,0.0822 -0.023258,0.15406 -0.034614,0.2105 -0.00412,-0.01 -0.00395,-0.01 -0.00848,-0.0209 -0.02454,-0.0596 -0.059251,-0.14489 -0.094679,-0.22526 -0.037732,-0.0856 -0.076391,-0.16596 -0.1177568,-0.24002 -0.057079,-0.1022 -0.1005758,-0.15926 -0.1354043,-0.20505 z"
       style="fill:#008000;fill-rule:nonzero;stroke:none;stroke-width:0.16895638px;stroke-linecap:butt;stroke-linejoin:miter;stroke-opacity:1" />
    <path
       inkscape:connector-curvature="0"
       id="path859"
       d="m 8.7337629,289.71517 c 0.032395,0.0426 0.068985,0.11347 0.1038432,0.21756 0.025972,0.0776 0.047613,0.163 0.066175,0.25126 0.018286,0.0869 0.031974,0.16965 0.043098,0.23617 0.015216,0.091 0.024497,0.14409 0.036311,0.17617 l 0.081785,-0.027 0.082124,-0.0269 0.026809,0.078 c 0.044768,-0.0137 0.089548,-0.0502 0.1269197,-0.11455 0.027384,-0.0472 0.049674,-0.10683 0.06855,-0.17649 0.048044,-0.17731 0.060245,-0.35674 0.07941,-0.48294 -0.017652,0.11624 -0.076486,0.31052 -0.1601768,0.45278 -0.021318,0.0362 -0.041994,0.0639 -0.062102,0.0876 -0.0037,-0.0544 -0.00818,-0.11874 -0.014932,-0.18965 -0.00821,-0.0861 -0.01816,-0.16842 -0.030203,-0.24451 -0.017227,-0.10885 -0.031162,-0.15946 -0.04208,-0.2073 0.00911,0.0399 0.013037,0.10865 0.00814,0.2089 -0.00364,0.0746 -0.01187,0.15856 -0.022737,0.24163 -0.010753,0.0822 -0.023258,0.15406 -0.034614,0.2105 -0.00412,-0.01 -0.00395,-0.01 -0.00848,-0.0209 -0.02454,-0.0596 -0.059251,-0.14489 -0.094679,-0.22526 -0.037732,-0.0856 -0.076391,-0.16596 -0.1177568,-0.24002 -0.057079,-0.1022 -0.1005758,-0.15926 -0.1354043,-0.20505 z"
       style="fill:#008000;fill-rule:nonzero;stroke:none;stroke-width:0.16895638px;stroke-linecap:butt;stroke-linejoin:miter;stroke-opacity:1" />
    <path
       inkscape:connector-curvature="0"
       id="path861"
       d="m 8.62687,289.9051 c 0.032395,0.0426 0.068985,0.11347 0.1038432,0.21756 0.025972,0.0776 0.047613,0.163 0.066175,0.25126 0.018286,0.0869 0.031974,0.16965 0.043098,0.23617 0.015216,0.091 0.024497,0.14409 0.036311,0.17617 l 0.081785,-0.027 0.082124,-0.0269 0.026809,0.078 c 0.044768,-0.0137 0.089548,-0.0502 0.1269197,-0.11455 0.027384,-0.0472 0.049674,-0.10683 0.06855,-0.17649 0.048044,-0.17731 0.060245,-0.35674 0.07941,-0.48294 -0.017652,0.11624 -0.076486,0.31052 -0.1601768,0.45278 -0.021318,0.0362 -0.041994,0.0639 -0.062102,0.0876 -0.0037,-0.0544 -0.00818,-0.11874 -0.014932,-0.18965 -0.00821,-0.0861 -0.01816,-0.16842 -0.030203,-0.24451 -0.017227,-0.10885 -0.031162,-0.15946 -0.04208,-0.2073 0.00911,0.0399 0.013037,0.10865 0.00814,0.2089 -0.00364,0.0746 -0.01187,0.15856 -0.022737,0.24163 -0.010753,0.0822 -0.023258,0.15406 -0.034614,0.2105 -0.00412,-0.01 -0.00395,-0.01 -0.00848,-0.0209 -0.02454,-0.0596 -0.059251,-0.14489 -0.094679,-0.22526 -0.037732,-0.0856 -0.076391,-0.16596 -0.1177568,-0.24002 -0.057079,-0.1022 -0.1005758,-0.15926 -0.1354043,-0.20505 z"
       style="fill:#008000;fill-rule:nonzero;stroke:none;stroke-width:0.16895638px;stroke-linecap:butt;stroke-linejoin:miter;stroke-opacity:1" />
    <path
       inkscape:connector-curvature="0"
       id="path863"
       d="m 8.817588,289.9292 c 0.032395,0.0426 0.068985,0.11347 0.1038432,0.21756 0.025972,0.0776 0.047613,0.163 0.066175,0.25126 0.018286,0.0869 0.031974,0.16965 0.043098,0.23617 0.015216,0.091 0.024497,0.14409 0.036311,0.17617 l 0.081785,-0.027 0.082124,-0.0269 0.026809,0.078 c 0.044768,-0.0137 0.089548,-0.0502 0.1269197,-0.11455 0.027384,-0.0472 0.049674,-0.10683 0.06855,-0.17649 0.048044,-0.17731 0.060245,-0.35674 0.07941,-0.48294 -0.017652,0.11624 -0.076486,0.31052 -0.1601768,0.45278 -0.021318,0.0362 -0.041994,0.0639 -0.062102,0.0876 -0.0037,-0.0544 -0.00818,-0.11874 -0.014932,-0.18965 -0.00821,-0.0861 -0.01816,-0.16842 -0.030203,-0.24451 -0.017227,-0.10885 -0.031162,-0.15946 -0.04208,-0.2073 0.00911,0.0399 0.013037,0.10865 0.00814,0.2089 -0.00364,0.0746 -0.01187,0.15856 -0.022737,0.24163 -0.010753,0.0822 -0.023258,0.15406 -0.034614,0.2105 -0.00412,-0.01 -0.00395,-0.01 -0.00848,-0.0209 -0.02454,-0.0596 -0.059251,-0.14489 -0.094679,-0.22526 -0.037732,-0.0856 -0.076391,-0.16596 -0.1177568,-0.24002 -0.057079,-0.1022 -0.1005758,-0.15926 -0.1354043,-0.20505 z"
       style="fill:#008000;fill-rule:nonzero;stroke:none;stroke-width:0.16895638px;stroke-linecap:butt;stroke-linejoin:miter;stroke-opacity:1" />
    <path
       inkscape:connector-curvature="0"
       id="path865"
       d="m 8.8701889,289.6956 c 0.032395,0.0426 0.068985,0.11347 0.1038432,0.21756 0.025972,0.0776 0.047613,0.163 0.066175,0.25126 0.018286,0.0869 0.031974,0.16965 0.043098,0.23617 0.015216,0.091 0.024497,0.14409 0.036311,0.17617 l 0.081785,-0.027 0.082124,-0.0269 0.026809,0.078 c 0.044768,-0.0137 0.089548,-0.0502 0.1269197,-0.11455 0.027384,-0.0472 0.049674,-0.10683 0.06855,-0.17649 0.048044,-0.17731 0.060245,-0.35674 0.07941,-0.48294 -0.017652,0.11624 -0.076486,0.31052 -0.1601768,0.45278 -0.021318,0.0362 -0.041994,0.0639 -0.062102,0.0876 -0.0037,-0.0544 -0.00818,-0.11874 -0.014932,-0.18965 -0.00821,-0.0861 -0.01816,-0.16842 -0.030203,-0.24451 -0.017227,-0.10885 -0.031162,-0.15946 -0.04208,-0.2073 0.00911,0.0399 0.013037,0.10865 0.00814,0.2089 -0.00364,0.0746 -0.01187,0.15856 -0.022737,0.24163 -0.010753,0.0822 -0.023258,0.15406 -0.034614,0.2105 -0.00412,-0.01 -0.00395,-0.01 -0.00848,-0.0209 -0.02454,-0.0596 -0.059251,-0.14489 -0.094679,-0.22526 -0.037732,-0.0856 -0.076391,-0.16596 -0.1177568,-0.24002 -0.057079,-0.1022 -0.1005758,-0.15926 -0.1354043,-0.20505 z"
       style="fill:#008000;fill-rule:nonzero;stroke:none;stroke-width:0.16895638px;stroke-linecap:butt;stroke-linejoin:miter;stroke-opacity:1" />
    <path
       inkscape:connector-curvature="0"
       id="path867"
       d="m 9.0066149,289.67603 c 0.032395,0.0426 0.068985,0.11347 0.1038432,0.21756 0.025972,0.0776 0.047613,0.163 0.066175,0.25126 0.018286,0.0869 0.031974,0.16965 0.043098,0.23617 0.015216,0.091 0.024497,0.14409 0.036311,0.17617 l 0.081785,-0.027 0.082124,-0.0269 0.026809,0.078 c 0.044768,-0.0137 0.089548,-0.0502 0.1269197,-0.11455 0.027384,-0.0472 0.049674,-0.10683 0.06855,-0.17649 0.048044,-0.17731 0.060245,-0.35674 0.07941,-0.48294 -0.017652,0.11624 -0.076486,0.31052 -0.1601768,0.45278 -0.021318,0.0362 -0.041994,0.0639 -0.062102,0.0876 -0.0037,-0.0544 -0.00818,-0.11874 -0.014932,-0.18965 -0.00821,-0.0861 -0.01816,-0.16842 -0.030203,-0.24451 -0.017227,-0.10885 -0.031162,-0.15946 -0.04208,-0.2073 0.00911,0.0399 0.013037,0.10865 0.00814,0.2089 -0.00364,0.0746 -0.01187,0.15856 -0.022737,0.24163 -0.010753,0.0822 -0.023258,0.15406 -0.034614,0.2105 -0.00412,-0.01 -0.00395,-0.01 -0.00848,-0.0209 -0.02454,-0.0596 -0.059251,-0.14489 -0.094679,-0.22526 -0.037732,-0.0856 -0.076391,-0.16596 -0.1177568,-0.24002 -0.057079,-0.1022 -0.1005758,-0.15926 -0.1354043,-0.20505 z"
       style="fill:#008000;fill-rule:nonzero;stroke:none;stroke-width:0.16895638px;stroke-linecap:butt;stroke-linejoin:miter;stroke-opacity:1" />
    <path
       inkscape:connector-curvature="0"
       id="path869"
       d="m 8.9014131,290.14323 c 0.032395,0.0426 0.068985,0.11347 0.1038432,0.21756 0.025972,0.0776 0.047613,0.163 0.066175,0.25126 0.018286,0.0869 0.031974,0.16965 0.043098,0.23617 0.015216,0.091 0.024497,0.14409 0.036311,0.17617 l 0.081785,-0.027 0.082124,-0.0269 0.026809,0.078 c 0.044768,-0.0137 0.089548,-0.0502 0.1269197,-0.11455 0.027384,-0.0472 0.049674,-0.10683 0.06855,-0.17649 0.048044,-0.17731 0.060245,-0.35674 0.07941,-0.48294 -0.017652,0.11624 -0.076486,0.31052 -0.1601768,0.45278 -0.021318,0.0362 -0.041994,0.0639 -0.062102,0.0876 -0.0037,-0.0544 -0.00818,-0.11874 -0.014932,-0.18965 -0.00821,-0.0861 -0.01816,-0.16842 -0.030203,-0.24451 -0.017227,-0.10885 -0.031162,-0.15946 -0.04208,-0.2073 0.00911,0.0399 0.013037,0.10865 0.00814,0.2089 -0.00364,0.0746 -0.01187,0.15856 -0.022737,0.24163 -0.010753,0.0822 -0.023258,0.15406 -0.034614,0.2105 -0.00412,-0.01 -0.00395,-0.01 -0.00848,-0.0209 -0.02454,-0.0596 -0.059251,-0.14489 -0.094679,-0.22526 -0.037732,-0.0856 -0.076391,-0.16596 -0.1177568,-0.24002 -0.057079,-0.1022 -0.1005758,-0.15926 -0.1354043,-0.20505 z"
       style="fill:#008000;fill-rule:nonzero;stroke:none;stroke-width:0.16895638px;stroke-linecap:butt;stroke-linejoin:miter;stroke-opacity:1" />
    <path
       inkscape:connector-curvature="0"
       id="path871"
       d="m 4.209942,286.89799 c 0.032395,0.0426 0.068985,0.11347 0.1038432,0.21756 0.025972,0.0776 0.047613,0.163 0.066175,0.25126 0.018286,0.0869 0.031974,0.16965 0.043098,0.23617 0.015216,0.091 0.024497,0.14409 0.036311,0.17617 l 0.081785,-0.027 0.082124,-0.0269 0.026809,0.078 c 0.044768,-0.0137 0.089548,-0.0502 0.1269197,-0.11455 0.027384,-0.0472 0.049674,-0.10683 0.06855,-0.17649 0.048044,-0.17731 0.060245,-0.35674 0.07941,-0.48294 -0.017652,0.11624 -0.076486,0.31052 -0.1601768,0.45278 -0.021318,0.0362 -0.041994,0.0639 -0.062102,0.0876 -0.0037,-0.0544 -0.00818,-0.11874 -0.014932,-0.18965 -0.00821,-0.0861 -0.01816,-0.16842 -0.030203,-0.24451 -0.017227,-0.10885 -0.031162,-0.15946 -0.04208,-0.2073 0.00911,0.0399 0.013037,0.10865 0.00814,0.2089 -0.00364,0.0746 -0.01187,0.15856 -0.022737,0.24163 -0.010753,0.0822 -0.023258,0.15406 -0.034614,0.2105 -0.00412,-0.01 -0.00395,-0.01 -0.00848,-0.0209 -0.02454,-0.0596 -0.059251,-0.14489 -0.094679,-0.22526 -0.037732,-0.0856 -0.076391,-0.16596 -0.1177568,-0.24002 -0.057079,-0.1022 -0.1005758,-0.15926 -0.1354043,-0.20505 z"
       style="fill:#008000;fill-rule:nonzero;stroke:none;stroke-width:0.16895638px;stroke-linecap:butt;stroke-linejoin:miter;stroke-opacity:1" />
    <path
       inkscape:connector-curvature="0"
       id="path873"
       d="m 3.9666231,287.10749 c 0.032395,0.0426 0.068985,0.11347 0.1038432,0.21756 0.025972,0.0776 0.047613,0.163 0.066175,0.25126 0.018286,0.0869 0.031974,0.16965 0.043098,0.23617 0.015216,0.091 0.024497,0.14409 0.036311,0.17617 l 0.081785,-0.027 0.082124,-0.0269 0.026809,0.078 c 0.044768,-0.0137 0.089548,-0.0502 0.1269197,-0.11455 0.027384,-0.0472 0.049674,-0.10683 0.06855,-0.17649 0.048044,-0.17731 0.060245,-0.35674 0.07941,-0.48294 -0.017652,0.11624 -0.076486,0.31052 -0.1601768,0.45278 -0.021318,0.0362 -0.041994,0.0639 -0.062102,0.0876 -0.0037,-0.0544 -0.00818,-0.11874 -0.014932,-0.18965 -0.00821,-0.0861 -0.01816,-0.16842 -0.030203,-0.24451 -0.017227,-0.10885 -0.031162,-0.15946 -0.04208,-0.2073 0.00911,0.0399 0.013037,0.10865 0.00814,0.2089 -0.00364,0.0746 -0.01187,0.15856 -0.022737,0.24163 -0.010753,0.0822 -0.023258,0.15406 -0.034614,0.2105 -0.00412,-0.01 -0.00395,-0.01 -0.00848,-0.0209 -0.02454,-0.0596 -0.059251,-0.14489 -0.094679,-0.22526 -0.037732,-0.0856 -0.076391,-0.16596 -0.1177568,-0.24002 -0.057079,-0.1022 -0.1005758,-0.15926 -0.1354043,-0.20505 z"
       style="fill:#008000;fill-rule:nonzero;stroke:none;stroke-width:0.16895638px;stroke-linecap:butt;stroke-linejoin:miter;stroke-opacity:1" />
    <path
       inkscape:connector-curvature="0"
       id="path875"
       d="m 12.036558,286.30176 c 0.0324,0.0426 0.06898,0.11347 0.103843,0.21756 0.02597,0.0776 0.04761,0.163 0.06617,0.25126 0.01829,0.0869 0.03197,0.16965 0.0431,0.23617 0.01522,0.091 0.0245,0.14409 0.03631,0.17617 l 0.08179,-0.027 0.08212,-0.0269 0.02681,0.078 c 0.04477,-0.0137 0.08955,-0.0502 0.126919,-0.11455 0.02738,-0.0472 0.04967,-0.10683 0.06855,-0.17649 0.04804,-0.17731 0.06025,-0.35674 0.07941,-0.48294 -0.01765,0.11624 -0.07649,0.31052 -0.160176,0.45278 -0.02132,0.0362 -0.04199,0.0639 -0.0621,0.0876 -0.0037,-0.0544 -0.0082,-0.11874 -0.01493,-0.18965 -0.0082,-0.0861 -0.01816,-0.16842 -0.0302,-0.24451 -0.01723,-0.10885 -0.03116,-0.15946 -0.04208,-0.2073 0.0091,0.0399 0.01304,0.10865 0.0081,0.2089 -0.0036,0.0746 -0.01187,0.15856 -0.02274,0.24163 -0.01075,0.0822 -0.02326,0.15406 -0.03461,0.2105 -0.0041,-0.01 -0.0039,-0.01 -0.0085,-0.0209 -0.02454,-0.0596 -0.05925,-0.14489 -0.09468,-0.22526 -0.03773,-0.0856 -0.07639,-0.16596 -0.117757,-0.24002 -0.05708,-0.1022 -0.100576,-0.15926 -0.135404,-0.20505 z"
       style="fill:#008000;fill-rule:nonzero;stroke:none;stroke-width:0.16895638px;stroke-linecap:butt;stroke-linejoin:miter;stroke-opacity:1" />
    <path
       inkscape:connector-curvature="0"
       id="path877"
       d="m 11.971549,286.67556 c 0.0324,0.0426 0.06898,0.11347 0.103844,0.21756 0.02597,0.0776 0.04761,0.163 0.06617,0.25126 0.01829,0.0869 0.03197,0.16965 0.0431,0.23617 0.01522,0.091 0.0245,0.14409 0.03631,0.17617 l 0.08179,-0.027 0.08212,-0.0269 0.02681,0.078 c 0.04477,-0.0137 0.08955,-0.0502 0.12692,-0.11455 0.02738,-0.0472 0.04967,-0.10683 0.06855,-0.17649 0.04804,-0.17731 0.06025,-0.35674 0.07941,-0.48294 -0.01765,0.11624 -0.07649,0.31052 -0.160177,0.45278 -0.02132,0.0362 -0.04199,0.0639 -0.0621,0.0876 -0.0037,-0.0544 -0.0082,-0.11874 -0.01493,-0.18965 -0.0082,-0.0861 -0.01816,-0.16842 -0.0302,-0.24451 -0.01723,-0.10885 -0.03116,-0.15946 -0.04208,-0.2073 0.0091,0.0399 0.01304,0.10865 0.0081,0.2089 -0.0036,0.0746 -0.01187,0.15856 -0.02274,0.24163 -0.01075,0.0822 -0.02326,0.15406 -0.03461,0.2105 -0.0041,-0.01 -0.0039,-0.01 -0.0085,-0.0209 -0.02454,-0.0596 -0.05925,-0.14489 -0.09468,-0.22526 -0.03773,-0.0856 -0.07639,-0.16596 -0.117756,-0.24002 -0.05708,-0.1022 -0.100576,-0.15926 -0.135405,-0.20505 z"
       style="fill:#008000;fill-rule:nonzero;stroke:none;stroke-width:0.16895638px;stroke-linecap:butt;stroke-linejoin:miter;stroke-opacity:1" />
    <path
       inkscape:connector-curvature="0"
       id="path879"
       d="m 0.4163435,291.74619 c 0.032395,0.0426 0.068985,0.11347 0.1038432,0.21756 0.025972,0.0776 0.047613,0.163 0.066175,0.25126 0.018286,0.0869 0.031974,0.16965 0.043098,0.23617 0.015216,0.091 0.024497,0.14409 0.036311,0.17617 l 0.081785,-0.027 0.082124,-0.0269 0.026809,0.078 c 0.044768,-0.0137 0.089548,-0.0502 0.1269197,-0.11455 0.027384,-0.0472 0.049674,-0.10683 0.06855,-0.17649 0.048044,-0.17731 0.060245,-0.35674 0.07941,-0.48294 -0.017652,0.11624 -0.076486,0.31052 -0.1601768,0.45278 -0.021318,0.0362 -0.041994,0.0639 -0.062102,0.0876 -0.0037,-0.0544 -0.00818,-0.11874 -0.014932,-0.18965 -0.00821,-0.0861 -0.01816,-0.16842 -0.030203,-0.24451 -0.017227,-0.10885 -0.031162,-0.15946 -0.04208,-0.2073 0.00911,0.0399 0.013037,0.10865 0.00814,0.2089 -0.00364,0.0746 -0.01187,0.15856 -0.022737,0.24163 -0.010753,0.0822 -0.023258,0.15406 -0.034614,0.2105 -0.00412,-0.01 -0.00395,-0.01 -0.00848,-0.0209 -0.02454,-0.0596 -0.059251,-0.14489 -0.094679,-0.22526 -0.037732,-0.0856 -0.076391,-0.16596 -0.1177568,-0.24002 -0.057079,-0.1022 -0.1005758,-0.15926 -0.1354043,-0.20505 z"
       style="fill:#008000;fill-rule:nonzero;stroke:none;stroke-width:0.16895638px;stroke-linecap:butt;stroke-linejoin:miter;stroke-opacity:1" />
    <path
       inkscape:connector-curvature="0"
       id="path881"
       d="m 0.5001686,291.96022 c 0.032395,0.0426 0.068985,0.11347 0.1038432,0.21756 0.025972,0.0776 0.047613,0.163 0.066175,0.25126 0.018286,0.0869 0.031974,0.16965 0.043098,0.23617 0.015216,0.091 0.024497,0.14409 0.036311,0.17617 l 0.081785,-0.027 0.082124,-0.0269 0.026809,0.078 c 0.044768,-0.0137 0.089548,-0.0502 0.1269197,-0.11455 0.027384,-0.0472 0.049674,-0.10683 0.06855,-0.17649 0.048044,-0.17731 0.060245,-0.35674 0.07941,-0.48294 -0.017652,0.11624 -0.076486,0.31052 -0.1601768,0.45278 -0.021318,0.0362 -0.041994,0.0639 -0.062102,0.0876 -0.0037,-0.0544 -0.00818,-0.11874 -0.014932,-0.18965 -0.00821,-0.0861 -0.01816,-0.16842 -0.030203,-0.24451 -0.017227,-0.10885 -0.031162,-0.15946 -0.04208,-0.2073 0.00911,0.0399 0.013037,0.10865 0.00814,0.2089 -0.00364,0.0746 -0.01187,0.15856 -0.022737,0.24163 -0.010753,0.0822 -0.023258,0.15406 -0.034614,0.2105 -0.00412,-0.01 -0.00395,-0.01 -0.00848,-0.0209 -0.02454,-0.0596 -0.059251,-0.14489 -0.094679,-0.22526 -0.037732,-0.0856 -0.076391,-0.16596 -0.1177568,-0.24002 -0.057079,-0.1022 -0.1005758,-0.15926 -0.1354043,-0.20505 z"
       style="fill:#008000;fill-rule:nonzero;stroke:none;stroke-width:0.16895638px;stroke-linecap:butt;stroke-linejoin:miter;stroke-opacity:1" />
    <path
       inkscape:connector-curvature="0"
       id="path883"
       d="m 0.5839937,292.17425 c 0.032395,0.0426 0.068985,0.11347 0.1038432,0.21756 0.025972,0.0776 0.047613,0.163 0.066175,0.25126 0.018286,0.0869 0.031974,0.16965 0.043098,0.23617 0.015216,0.091 0.024497,0.14409 0.036311,0.17617 l 0.081785,-0.027 0.082124,-0.0269 0.026809,0.078 c 0.044768,-0.0137 0.089548,-0.0502 0.1269197,-0.11455 0.027384,-0.0472 0.049674,-0.10683 0.06855,-0.17649 0.048044,-0.17731 0.060245,-0.35674 0.07941,-0.48294 -0.017652,0.11624 -0.076486,0.31052 -0.1601768,0.45278 -0.021318,0.0362 -0.041994,0.0639 -0.062102,0.0876 -0.0037,-0.0544 -0.00818,-0.11874 -0.014932,-0.18965 -0.00821,-0.0861 -0.01816,-0.16842 -0.030203,-0.24451 -0.017227,-0.10885 -0.031162,-0.15946 -0.04208,-0.2073 0.00911,0.0399 0.013037,0.10865 0.00814,0.2089 -0.00364,0.0746 -0.01187,0.15856 -0.022737,0.24163 -0.010753,0.0822 -0.023258,0.15406 -0.034614,0.2105 -0.00412,-0.01 -0.00395,-0.01 -0.00848,-0.0209 -0.02454,-0.0596 -0.059251,-0.14489 -0.094679,-0.22526 -0.037732,-0.0856 -0.076391,-0.16596 -0.1177568,-0.24002 -0.057079,-0.1022 -0.1005758,-0.15926 -0.1354043,-0.20505 z"
       style="fill:#008000;fill-rule:nonzero;stroke:none;stroke-width:0.16895638px;stroke-linecap:butt;stroke-linejoin:miter;stroke-opacity:1" />
    <path
       style="fill:#008000;fill-rule:nonzero;stroke:none;stroke-width:0.16895638px;stroke-linecap:butt;stroke-linejoin:miter;stroke-opacity:1"
       d="m 0.5839937,292.17425 c 0.032395,0.0426 0.068985,0.11347 0.1038432,0.21756 0.025972,0.0776 0.047613,0.163 0.066175,0.25126 0.018286,0.0869 0.031974,0.16965 0.043098,0.23617 0.015216,0.091 0.024497,0.14409 0.036311,0.17617 l 0.081785,-0.027 0.082124,-0.0269 0.026809,0.078 c 0.044768,-0.0137 0.089548,-0.0502 0.1269197,-0.11455 0.027384,-0.0472 0.049674,-0.10683 0.06855,-0.17649 0.048044,-0.17731 0.060245,-0.35674 0.07941,-0.48294 -0.017652,0.11624 -0.076486,0.31052 -0.1601768,0.45278 -0.021318,0.0362 -0.041994,0.0639 -0.062102,0.0876 -0.0037,-0.0544 -0.00818,-0.11874 -0.014932,-0.18965 -0.00821,-0.0861 -0.01816,-0.16842 -0.030203,-0.24451 -0.017227,-0.10885 -0.031162,-0.15946 -0.04208,-0.2073 0.00911,0.0399 0.013037,0.10865 0.00814,0.2089 -0.00364,0.0746 -0.01187,0.15856 -0.022737,0.24163 -0.010753,0.0822 -0.023258,0.15406 -0.034614,0.2105 -0.00412,-0.01 -0.00395,-0.01 -0.00848,-0.0209 -0.02454,-0.0596 -0.059251,-0.14489 -0.094679,-0.22526 -0.037732,-0.0856 -0.076391,-0.16596 -0.1177568,-0.24002 -0.057079,-0.1022 -0.1005758,-0.15926 -0.1354043,-0.20505 z"
       id="path840"
       inkscape:connector-curvature="0" />
  </g>
</svg>
