<?xml version="1.0" encoding="UTF-8" standalone="no"?>
<!-- Created with Inkscape (http://www.inkscape.org/) -->

<svg
   xmlns:dc="http://purl.org/dc/elements/1.1/"
   xmlns:cc="http://creativecommons.org/ns#"
   xmlns:rdf="http://www.w3.org/1999/02/22-rdf-syntax-ns#"
   xmlns:svg="http://www.w3.org/2000/svg"
   xmlns="http://www.w3.org/2000/svg"
   xmlns:sodipodi="http://sodipodi.sourceforge.net/DTD/sodipodi-0.dtd"
   xmlns:inkscape="http://www.inkscape.org/namespaces/inkscape"
   width="50"
   height="50"
   viewBox="0 0 13.229167 13.229167"
   version="1.1"
   id="svg8"
   inkscape:version="0.92.5 (2060ec1f9f, 2020-04-08)"
   sodipodi:docname="creek.svg">
  <defs
     id="defs2" />
  <sodipodi:namedview
     id="base"
     pagecolor="#ffffff"
     bordercolor="#666666"
     borderopacity="1.0"
     inkscape:pageopacity="0.0"
     inkscape:pageshadow="2"
     inkscape:zoom="23.023397"
     inkscape:cx="34.082107"
     inkscape:cy="31.949452"
     inkscape:document-units="mm"
     inkscape:current-layer="layer1"
     showgrid="false"
     inkscape:window-width="1920"
     inkscape:window-height="1053"
     inkscape:window-x="0"
     inkscape:window-y="0"
     inkscape:window-maximized="1"
     inkscape:measure-start="0,0"
     inkscape:measure-end="0,0"
     inkscape:snap-global="false"
     fit-margin-top="0"
     fit-margin-left="0"
     fit-margin-right="0"
     fit-margin-bottom="0"
     units="px"
     inkscape:snap-bbox="true" />
  <metadata
     id="metadata5">
    <rdf:RDF>
      <cc:Work
         rdf:about="">
        <dc:format>image/svg+xml</dc:format>
        <dc:type
           rdf:resource="http://purl.org/dc/dcmitype/StillImage" />
        <dc:title></dc:title>
      </cc:Work>
    </rdf:RDF>
  </metadata>
  <g
     inkscape:label="Layer 1"
     inkscape:groupmode="layer"
     id="layer1"
     transform="translate(-46.135593,-226.8854)">
    <rect
       style="opacity:1;vector-effect:none;fill:#d3d3d3;fill-opacity:1;fill-rule:evenodd;stroke-width:0.26458332;stroke-linecap:butt;stroke-linejoin:miter;stroke-miterlimit:4;stroke-dasharray:none;stroke-dashoffset:0;stroke-opacity:1"
       id="rect889"
       width="13.229167"
       height="13.229167"
       x="46.135593"
       y="226.88539" />
    <rect
       style="opacity:1;vector-effect:none;fill:#d3d3d3;fill-opacity:1;fill-rule:evenodd;stroke-width:0.26458332;stroke-linecap:butt;stroke-linejoin:miter;stroke-miterlimit:4;stroke-dasharray:none;stroke-dashoffset:0;stroke-opacity:1"
       id="rect1833"
       width="13.229167"
       height="13.229167"
       x="46.135593"
       y="226.88539" />
    <path
       transform="matrix(0.70949665,0.70470881,-0.71415179,0.69999088,0,0)"
       style="opacity:1;vector-effect:none;fill:#00ffff;fill-opacity:1;fill-rule:evenodd;stroke-width:0.37782317;stroke-linecap:butt;stroke-linejoin:miter;stroke-miterlimit:4;stroke-dasharray:none;stroke-dashoffset:0;stroke-opacity:1"
       d="m 203.55603,120.43932 0.13215,-0.1049 0.19071,0.1592 -0.11124,1.25464 -0.24478,2.09023 0.0542,1.76852 0.10031,1.43871 0.20341,1.00943 2.8e-4,1.50759 0.15616,1.04796 0.0106,2.23971 -0.0125,1.42332 0.04,1.30244 -0.12339,0.83493 v 0 l -0.1934,0.16187 -0.41804,-0.34358 0.20976,-1.14273 0.0499,-1.74265 0.0646,-1.57051 -0.1148,-1.28924 -0.1975,-1.30128 -0.0974,-1.2644 -0.0572,-1.55245 -0.1362,-1.37966 0.0946,-1.76953 z"
       id="rect929"
       inkscape:connector-curvature="0"
       sodipodi:nodetypes="ccccccccccccccccccccccccccc" />
    <path
       style="opacity:1;vector-effect:none;fill:#008000;fill-opacity:1;fill-rule:evenodd;stroke-width:0.26458332;stroke-linecap:butt;stroke-linejoin:miter;stroke-miterlimit:4;stroke-dasharray:none;stroke-dashoffset:0;stroke-opacity:1"
       d="m 47.013202,227.73051 11.397163,0.0236 -2.732255,2.07419 -1.803449,1.83817 -0.575833,0.71839 -0.889947,0.8713 -1.004125,1.37762 -0.524076,0.53958 -0.487496,0.5912 -1.133338,1.04304 -1.313998,1.19545 -0.964907,0.65208 0.01495,-9.44569 z"
       id="rect932"
       inkscape:connector-curvature="0"
       sodipodi:nodetypes="cccccccccccccc" />
    <path
       style="opacity:1;vector-effect:none;fill:#008000;fill-opacity:1;fill-rule:evenodd;stroke-width:0.26458332;stroke-linecap:butt;stroke-linejoin:miter;stroke-miterlimit:4;stroke-dasharray:none;stroke-dashoffset:0;stroke-opacity:1"
       d="m 47.968798,238.71577 1.307274,-1.39333 1.65173,-1.60671 1.197671,-1.34621 1.334844,-1.45822 0.702291,-0.93798 1.077346,-1.13695 0.698716,-0.73178 0.335276,-0.21919 2.326709,-1.86571 0.01201,11.19361 -11.327676,-5e-5 z"
       id="rect935"
       inkscape:connector-curvature="0"
       sodipodi:nodetypes="ccccccccccccc" />
  </g>
</svg>
