<?xml version="1.0" encoding="UTF-8" standalone="no"?>
<!-- Created with Inkscape (http://www.inkscape.org/) -->

<svg
   xmlns:dc="http://purl.org/dc/elements/1.1/"
   xmlns:cc="http://creativecommons.org/ns#"
   xmlns:rdf="http://www.w3.org/1999/02/22-rdf-syntax-ns#"
   xmlns:svg="http://www.w3.org/2000/svg"
   xmlns="http://www.w3.org/2000/svg"
   xmlns:sodipodi="http://sodipodi.sourceforge.net/DTD/sodipodi-0.dtd"
   xmlns:inkscape="http://www.inkscape.org/namespaces/inkscape"
   width="50"
   height="50"
   viewBox="0 0 13.229166 13.229167"
   version="1.1"
   id="svg9091"
   inkscape:version="0.92.5 (2060ec1f9f, 2020-04-08)"
   sodipodi:docname="grass1.svg">
  <defs
     id="defs9085">
    <inkscape:path-effect
       effect="powerstroke"
       id="path-effect1464"
       is_visible="true"
       offset_points="71,0.13229166"
       sort_points="true"
       interpolator_type="CubicBezierJohan"
       interpolator_beta="0.2"
       start_linecap_type="zerowidth"
       linejoin_type="extrp_arc"
       miter_limit="4"
       end_linecap_type="zerowidth" />
    <inkscape:path-effect
       effect="bspline"
       id="path-effect1462"
       is_visible="true"
       weight="33.333333"
       steps="2"
       helper_size="0"
       apply_no_weight="true"
       apply_with_weight="true"
       only_selected="false" />
    <inkscape:path-effect
       effect="powerstroke"
       id="path-effect1458"
       is_visible="true"
       offset_points="66,0.13229166"
       sort_points="true"
       interpolator_type="CubicBezierJohan"
       interpolator_beta="0.2"
       start_linecap_type="zerowidth"
       linejoin_type="extrp_arc"
       miter_limit="4"
       end_linecap_type="zerowidth" />
    <inkscape:path-effect
       effect="bspline"
       id="path-effect1456"
       is_visible="true"
       weight="33.333333"
       steps="2"
       helper_size="0"
       apply_no_weight="true"
       apply_with_weight="true"
       only_selected="false" />
    <inkscape:path-effect
       effect="powerstroke"
       id="path-effect1452"
       is_visible="true"
       offset_points="87,0.13229166"
       sort_points="true"
       interpolator_type="CubicBezierJohan"
       interpolator_beta="0.2"
       start_linecap_type="zerowidth"
       linejoin_type="extrp_arc"
       miter_limit="4"
       end_linecap_type="zerowidth" />
    <inkscape:path-effect
       effect="bspline"
       id="path-effect1450"
       is_visible="true"
       weight="33.333333"
       steps="2"
       helper_size="0"
       apply_no_weight="true"
       apply_with_weight="true"
       only_selected="false" />
    <inkscape:path-effect
       effect="powerstroke"
       id="path-effect1446"
       is_visible="true"
       offset_points="91,0.13229166"
       sort_points="true"
       interpolator_type="CubicBezierJohan"
       interpolator_beta="0.2"
       start_linecap_type="zerowidth"
       linejoin_type="extrp_arc"
       miter_limit="4"
       end_linecap_type="zerowidth" />
    <inkscape:path-effect
       effect="bspline"
       id="path-effect1444"
       is_visible="true"
       weight="33.333333"
       steps="2"
       helper_size="0"
       apply_no_weight="true"
       apply_with_weight="true"
       only_selected="false" />
    <inkscape:path-effect
       effect="powerstroke"
       id="path-effect1440"
       is_visible="true"
       offset_points="71,0.13229166"
       sort_points="true"
       interpolator_type="CubicBezierJohan"
       interpolator_beta="0.2"
       start_linecap_type="zerowidth"
       linejoin_type="extrp_arc"
       miter_limit="4"
       end_linecap_type="zerowidth" />
    <inkscape:path-effect
       effect="bspline"
       id="path-effect1438"
       is_visible="true"
       weight="33.333333"
       steps="2"
       helper_size="0"
       apply_no_weight="true"
       apply_with_weight="true"
       only_selected="false" />
    <inkscape:path-effect
       effect="powerstroke"
       id="path-effect1434"
       is_visible="true"
       offset_points="53,0.13229166"
       sort_points="true"
       interpolator_type="CubicBezierJohan"
       interpolator_beta="0.2"
       start_linecap_type="zerowidth"
       linejoin_type="extrp_arc"
       miter_limit="4"
       end_linecap_type="zerowidth" />
    <inkscape:path-effect
       effect="bspline"
       id="path-effect1432"
       is_visible="true"
       weight="33.333333"
       steps="2"
       helper_size="0"
       apply_no_weight="true"
       apply_with_weight="true"
       only_selected="false" />
    <inkscape:path-effect
       effect="powerstroke"
       id="path-effect1404"
       is_visible="true"
       offset_points="48,0.13229166"
       sort_points="true"
       interpolator_type="CubicBezierJohan"
       interpolator_beta="0.2"
       start_linecap_type="zerowidth"
       linejoin_type="extrp_arc"
       miter_limit="4"
       end_linecap_type="zerowidth" />
    <inkscape:path-effect
       effect="bspline"
       id="path-effect1402"
       is_visible="true"
       weight="33.333333"
       steps="2"
       helper_size="0"
       apply_no_weight="true"
       apply_with_weight="true"
       only_selected="false" />
  </defs>
  <sodipodi:namedview
     id="base"
     pagecolor="#ffffff"
     bordercolor="#666666"
     borderopacity="1.0"
     inkscape:pageopacity="0.0"
     inkscape:pageshadow="2"
     inkscape:zoom="16.28"
     inkscape:cx="25"
     inkscape:cy="26.466728"
     inkscape:document-units="mm"
     inkscape:current-layer="layer1"
     showgrid="false"
     units="px"
     inkscape:snap-bbox="true"
     inkscape:window-width="1920"
     inkscape:window-height="1053"
     inkscape:window-x="0"
     inkscape:window-y="0"
     inkscape:window-maximized="1" />
  <metadata
     id="metadata9088">
    <rdf:RDF>
      <cc:Work
         rdf:about="">
        <dc:format>image/svg+xml</dc:format>
        <dc:type
           rdf:resource="http://purl.org/dc/dcmitype/StillImage" />
        <dc:title></dc:title>
      </cc:Work>
    </rdf:RDF>
  </metadata>
  <g
     inkscape:label="1. réteg"
     inkscape:groupmode="layer"
     id="layer1"
     transform="translate(0,-283.77082)">
    <rect
       style="opacity:0.95999995;vector-effect:none;fill:#d3d3d3;fill-opacity:1;fill-rule:evenodd;stroke-width:0.26458332;stroke-linecap:butt;stroke-linejoin:miter;stroke-miterlimit:4;stroke-dasharray:none;stroke-dashoffset:0;stroke-opacity:1"
       id="rect13929"
       width="13.229167"
       height="13.229167"
       x="0.016252045"
       y="283.77081"
       ry="0.007369122" />
    <path
       style="fill:#008000;fill-rule:nonzero;stroke:none;stroke-width:0.26458332px;stroke-linecap:butt;stroke-linejoin:miter;stroke-opacity:1"
       d="m 3.0878891,289.99535 c 0.01604,-0.0374 0.03371,-0.0782 0.047658,-0.11412 0.013016,-0.0335 0.024437,-0.0666 0.033594,-0.089 0.00431,-0.0105 0.00797,-0.0186 0.011669,-0.0256 0.00358,-0.007 0.00718,-0.0127 0.011629,-0.0193 0.0082,-0.0122 0.020231,-0.0291 0.02862,-0.0485 0.00817,-0.0189 0.014187,-0.04 0.02602,-0.0813 0.00568,-0.0198 0.012875,-0.0449 0.020776,-0.0703 0.00777,-0.0249 0.016348,-0.0504 0.02504,-0.0718 0.016921,-0.0416 0.033698,-0.0679 0.048272,-0.0988 0.01401,-0.0297 0.025742,-0.0621 0.040302,-0.094 0.01418,-0.0311 0.031438,-0.0633 0.043386,-0.0947 0.0058,-0.0152 0.010263,-0.0295 0.015043,-0.0429 0.00474,-0.0132 0.00973,-0.0253 0.016582,-0.0372 0.013788,-0.0238 0.035967,-0.05 0.054037,-0.0793 0.017451,-0.0282 0.028794,-0.0541 0.050844,-0.0871 0.011162,-0.0167 0.024709,-0.0353 0.038966,-0.055 0.013795,-0.0191 0.028256,-0.0393 0.039852,-0.0576 0.023054,-0.0364 0.03562,-0.0644 0.04906,-0.0855 0.013607,-0.0214 0.030941,-0.0426 0.046731,-0.0699 0.015219,-0.0262 0.026771,-0.0523 0.043048,-0.0791 0.016388,-0.0271 0.037801,-0.0573 0.065001,-0.0905 0.027111,-0.0331 0.060138,-0.0699 0.083679,-0.0979 0.023654,-0.0281 0.035729,-0.0444 0.04811,-0.0608 0.012028,-0.0159 0.022454,-0.0295 0.032246,-0.0394 0.00758,-0.008 0.024812,-0.0235 0.035423,-0.0373 0.011038,-0.0141 0.017876,-0.0254 0.02017,-0.0256 0.0016,-0.001 0.00556,-0.005 0.00948,-0.009 0.00331,-0.004 0.01212,-0.0139 0.016696,-0.0295 0.00254,-0.008 0.00347,-0.0104 0.00353,-0.008 6.65e-5,0.002 -0.00147,0.009 -0.00584,0.0159 -2.45e-5,-4e-5 4.689e-4,0.003 -0.00779,0.009 -0.00357,0.003 -0.01307,0.009 -0.027905,0.011 -0.00793,9.8e-4 -0.017116,5.7e-4 -0.026688,-0.002 -0.0096,-0.003 -0.017624,-0.008 -0.023921,-0.0132 -0.00681,-0.006 -0.00783,-0.008 -0.00846,-0.008 -5.859e-4,-3.9e-4 -2.001e-4,7.5e-4 5.986e-4,0.003 0.00149,0.004 0.00502,0.0112 0.00911,0.0192 0.00434,0.008 0.00599,0.012 0.00844,0.0189 0.00236,0.007 0.00593,0.018 0.00991,0.0369 0.00426,0.0203 0.00864,0.0476 0.013961,0.0813 0.00511,0.0324 0.010842,0.0692 0.0173,0.10329 0.012881,0.0681 0.029331,0.12763 0.054389,0.2296 0.025763,0.10483 0.062939,0.2636 0.09722,0.39467 0.034744,0.13284 0.065991,0.23569 0.091073,0.34271 0.02533,0.10809 0.045543,0.2253 0.076927,0.40406 0.03171,0.18062 0.073945,0.41894 0.1189103,0.65216 0.045424,0.2356 0.093373,0.46434 0.1330893,0.63333 0.040359,0.17173 0.072693,0.28307 0.1039646,0.39095 0.031822,0.10977 0.063402,0.21864 0.095184,0.32008 0.032334,0.10321 0.063942,0.19585 0.089179,0.27717 0.025704,0.0828 0.046937,0.16061 0.084676,0.27161 0.038336,0.11276 0.092622,0.25627 0.1459255,0.38673 0.054934,0.13444 0.1085811,0.25459 0.1445408,0.33893 0.035934,0.0843 0.05859,0.1432 0.084096,0.19629 0.01356,0.0282 0.026244,0.0518 0.038175,0.0759 0.012006,0.0243 0.023993,0.0504 0.036569,0.0833 0.013132,0.0344 0.027385,0.0775 0.041513,0.12275 0.014284,0.0457 0.027996,0.0921 0.039816,0.13147 0.024349,0.0811 0.040521,0.13181 0.052971,0.17119 0.013519,0.0428 0.024383,0.0771 0.043702,0.12849 0.020164,0.0536 0.046833,0.11882 0.061456,0.15636 0.015103,0.0388 0.019094,0.0524 0.023379,0.0659 0.00566,0.0179 0.011131,0.0347 0.016389,0.0505 0,0 0.125515,-0.0418 0.125515,-0.0418 0,0 0.125515,-0.0418 0.125515,-0.0418 -0.00526,-0.0158 -0.010993,-0.0326 -0.017174,-0.0503 -0.00606,-0.0173 -0.012421,-0.0355 -0.030814,-0.0801 -0.016709,-0.0405 -0.044021,-0.10472 -0.06311,-0.15234 -0.018001,-0.0449 -0.028422,-0.0741 -0.042991,-0.11564 -0.013518,-0.0385 -0.030308,-0.0865 -0.055355,-0.1648 -0.01192,-0.0372 -0.027285,-0.0863 -0.042772,-0.13326 -0.015298,-0.0463 -0.032277,-0.0954 -0.049181,-0.13713 -0.016976,-0.0419 -0.033303,-0.0751 -0.048706,-0.10415 -0.014912,-0.0281 -0.028003,-0.0508 -0.03909,-0.0721 -0.023363,-0.0449 -0.042353,-0.0908 -0.083952,-0.18344 -0.038157,-0.0849 -0.093474,-0.20439 -0.1479812,-0.33284 -0.053636,-0.1264 -0.1080299,-0.26494 -0.146568,-0.37226 -0.037427,-0.10422 -0.05961,-0.1782 -0.088672,-0.26481 -0.031617,-0.0942 -0.063421,-0.18119 -0.095038,-0.2754 -0.032901,-0.0982 -0.065788,-0.20422 -0.099797,-0.31387 -0.033015,-0.10644 -0.066099,-0.21286 -0.1072269,-0.37861 -0.040907,-0.16486 -0.090369,-0.39019 -0.137649,-0.62389 -0.046824,-0.23144 -0.090844,-0.46744 -0.1248243,-0.64811 -0.033239,-0.17673 -0.056628,-0.29941 -0.085731,-0.41351 -0.028998,-0.11369 -0.062707,-0.2166 -0.098613,-0.3451 -0.035647,-0.12757 -0.074611,-0.28411 -0.1032125,-0.39089 -0.028412,-0.10606 -0.045451,-0.1591 -0.059241,-0.22039 -0.00698,-0.031 -0.013373,-0.0649 -0.01978,-0.0981 -0.00622,-0.0322 -0.012583,-0.0646 -0.019269,-0.09 -0.00686,-0.0261 -0.014212,-0.0459 -0.022019,-0.062 -0.00774,-0.016 -0.015597,-0.0274 -0.019458,-0.0328 -0.00389,-0.005 -0.00751,-0.0108 -0.01165,-0.0167 -0.00187,-0.003 -0.00448,-0.006 -0.00722,-0.01 -0.00212,-0.003 -0.00748,-0.01 -0.014824,-0.0159 -0.00725,-0.006 -0.016269,-0.0117 -0.026912,-0.015 -0.010612,-0.003 -0.020873,-0.004 -0.029916,-0.003 -0.017013,0.002 -0.028914,0.01 -0.034784,0.0139 -0.011655,0.009 -0.018461,0.0189 -0.021211,0.0233 -0.00846,0.0123 -0.011843,0.0242 -0.013201,0.0322 -0.00146,0.009 -6.138e-4,0.009 9.38e-5,0.008 0.00463,-0.0149 0.00713,-0.0103 0.00733,-0.0126 -1.012e-4,0.001 -0.0029,0.005 -0.00669,0.0113 -0.00702,0.0106 -0.016102,0.0308 -0.017698,0.0339 -0.003,0.007 -0.010685,0.0157 -0.023715,0.0332 -0.012446,0.0166 -0.023893,0.0361 -0.033359,0.0522 -0.00977,0.0167 -0.018625,0.0321 -0.038194,0.0587 -0.019566,0.0266 -0.051587,0.0657 -0.078801,0.10252 -0.027618,0.0374 -0.049544,0.0722 -0.066245,0.10433 -0.017167,0.033 -0.027249,0.0611 -0.037994,0.0835 -0.010493,0.022 -0.025714,0.0442 -0.039963,0.071 -0.014809,0.0278 -0.024028,0.0541 -0.043041,0.0879 -0.0096,0.017 -0.022183,0.0364 -0.035262,0.0563 -0.013068,0.0199 -0.026577,0.0402 -0.037586,0.0586 -0.022678,0.0379 -0.032892,0.0661 -0.046597,0.0919 -0.013733,0.0258 -0.034874,0.0538 -0.049552,0.0835 -0.00761,0.0153 -0.012512,0.0303 -0.016604,0.0447 -0.00416,0.0146 -0.00759,0.0287 -0.01205,0.043 -0.00909,0.0291 -0.024384,0.0617 -0.037441,0.0947 -0.013459,0.034 -0.023445,0.0668 -0.035293,0.0958 -0.012189,0.0298 -0.028062,0.0582 -0.044012,0.10165 -0.00819,0.0223 -0.01617,0.0486 -0.023246,0.0738 -0.00723,0.0258 -0.013697,0.0512 -0.018689,0.0713 -0.010492,0.0422 -0.014871,0.0625 -0.021591,0.0813 -0.00677,0.019 -0.01719,0.0358 -0.024714,0.0489 -0.00405,0.007 -0.00727,0.0134 -0.010482,0.0205 -0.00331,0.007 -0.00658,0.0157 -0.010499,0.0265 -0.00836,0.0228 -0.019085,0.0561 -0.031635,0.0898 -0.013585,0.0365 -0.030691,0.0766 -0.046885,0.11441 z"
       id="path1400"
       inkscape:connector-curvature="0"
       inkscape:path-effect="#path-effect1402;#path-effect1404"
       inkscape:original-d="m 3.0878891,289.99535 c 0.018896,-0.0406 0.03515,-0.0785 0.048756,-0.11376 0.013481,-0.0352 0.024315,-0.0677 0.032504,-0.0975 0.00806,-0.0135 0.013481,-0.0243 0.016251,-0.0325 0.013481,-0.0189 0.024315,-0.0351 0.032504,-0.0488 0.00806,-0.0243 0.013481,-0.046 0.016251,-0.065 0.018896,-0.0622 0.03515,-0.12183 0.048756,-0.17877 0.018897,-0.0297 0.03515,-0.0568 0.048756,-0.0813 0.013481,-0.0351 0.024315,-0.0677 0.032504,-0.0975 0.018897,-0.0351 0.03515,-0.0677 0.048756,-0.0975 0.00806,-0.0297 0.01348,-0.0568 0.016251,-0.0813 0.024315,-0.0297 0.045985,-0.0568 0.065008,-0.0813 0.013481,-0.0297 0.024315,-0.0568 0.032504,-0.0813 0.03515,-0.046 0.067654,-0.0893 0.097513,-0.13002 0.013481,-0.0297 0.024315,-0.0568 0.032504,-0.0813 0.018897,-0.0243 0.03515,-0.046 0.048756,-0.065 0.013481,-0.0297 0.024315,-0.0568 0.032504,-0.0813 0.024315,-0.0351 0.045985,-0.0677 0.065008,-0.0975 0.03515,-0.0406 0.067654,-0.0785 0.097513,-0.11376 0.013481,-0.0189 0.024315,-0.0352 0.032504,-0.0488 0.013481,-0.0189 0.024315,-0.0351 0.032504,-0.0487 0.013481,-0.0135 0.024315,-0.0243 0.032504,-0.0325 0.00806,-0.0135 0.013481,-0.0243 0.016251,-0.0325 0.00806,-0.008 0.013481,-0.0135 0.016253,-0.0163 0.00265,-0.008 0.00265,-0.0135 0,-0.0162 0.00806,-0.008 0.013481,-0.0135 0.016251,-0.0163 0.00806,0.008 0.013481,0.019 0.016251,0.0325 0.013481,0.0136 0.024315,0.0299 0.032504,0.0488 0.013481,0.0732 0.024315,0.14904 0.032504,0.22753 0.018899,0.0515 0.03515,0.1057 0.048756,0.16252 0.040567,0.15445 0.078489,0.31156 0.1137642,0.47131 0.03515,0.10028 0.067654,0.20321 0.097512,0.30878 0.024315,0.11654 0.045985,0.23572 0.065008,0.35755 0.045985,0.23572 0.089323,0.47408 0.1300162,0.71509 0.051402,0.22488 0.1001583,0.45241 0.1462686,0.68259 0.03515,0.1057 0.067654,0.21404 0.097512,0.32504 0.03515,0.1057 0.067654,0.21404 0.097512,0.32504 0.03515,0.0894 0.067654,0.18154 0.097512,0.27628 0.024315,0.0732 0.045985,0.14904 0.065008,0.22753 0.056819,0.13821 0.110993,0.27906 0.1625206,0.42255 0.056819,0.11654 0.1109927,0.23572 0.1625203,0.35755 0.024315,0.0515 0.045985,0.1057 0.065008,0.16252 0.029733,0.0407 0.056819,0.084 0.08126,0.13002 0.03515,0.1057 0.067654,0.21404 0.097512,0.32504 0.018897,0.0461 0.03515,0.0949 0.048756,0.14627 0.013481,0.0298 0.024315,0.0624 0.032504,0.0975 0.029732,0.0624 0.056819,0.12737 0.08126,0.19502 0.00806,0.0136 0.013481,0.0299 0.016251,0.0488 0.00806,0.0136 0.013481,0.0299 0.016251,0.0488" />
    <path
       style="fill:#008000;fill-rule:nonzero;stroke:none;stroke-width:0.26458332px;stroke-linecap:butt;stroke-linejoin:miter;stroke-opacity:1"
       d="m 5.5582002,290.30414 c 0.00494,0.0123 0.010314,0.0259 0.015042,0.0384 0.00451,0.0119 0.00863,0.0234 0.011433,0.0328 0.00269,0.009 0.00401,0.0163 0.0049,0.0236 8.536e-4,0.007 0.0013,0.0139 0.00238,0.0224 0.00105,0.008 0.0028,0.0178 0.00467,0.0276 0.00178,0.009 0.00369,0.0189 0.00492,0.0268 0.0012,0.008 0.00168,0.0143 0.0021,0.0219 4.062e-4,0.007 7.797e-4,0.0157 0.00177,0.0269 9.88e-4,0.011 0.00267,0.0245 0.00443,0.0387 0.0017,0.0137 0.00348,0.028 0.0046,0.0401 0.00109,0.0118 0.00148,0.0219 0.00253,0.0335 0.00102,0.0113 0.00268,0.024 0.00638,0.0411 0.00364,0.0168 0.00933,0.0374 0.01547,0.0591 0.00599,0.0212 0.012471,0.0437 0.017534,0.0639 0.00997,0.0397 0.01452,0.0714 0.019261,0.10476 0.00457,0.0322 0.00919,0.0648 0.013858,0.0979 0.00452,0.032 0.0092,0.0655 0.01933,0.11272 0.00995,0.0464 0.025367,0.1063 0.035387,0.15234 0.00985,0.0453 0.014232,0.077 0.018833,0.10761 0.00451,0.0301 0.00898,0.0571 0.010832,0.0777 8.774e-4,0.01 0.0011,0.0186 0.0013,0.0281 2.001e-4,0.009 3.872e-4,0.0195 0.00126,0.0314 8.848e-4,0.0119 0.00249,0.0248 0.00408,0.0369 0.00159,0.0121 0.00318,0.0235 0.00407,0.0323 8.264e-4,0.008 9.287e-4,0.0145 7.614e-4,0.0212 -1.748e-4,0.007 -6.298e-4,0.0141 -0.00113,0.0253 -9.721e-4,0.026 -0.00196,0.0522 -0.00295,0.0786 -4.863e-4,0.012 -0.00101,0.0232 -7.708e-4,0.0352 2.441e-4,0.0122 0.00126,0.0249 0.00364,0.0403 0.00238,0.0153 0.00616,0.0329 0.010173,0.0498 0.00402,0.017 0.00839,0.0337 0.012028,0.0477 0.00762,0.0292 0.01122,0.0429 0.012469,0.0554 9.545e-4,0.0109 1.898e-4,0.0224 -8.918e-4,0.0424 -5.12e-4,0.009 -0.00104,0.0213 -4.01e-4,0.0361 6.399e-4,0.0148 0.00242,0.0321 0.00625,0.0533 0.00381,0.0211 0.00969,0.0456 0.015347,0.0683 0.00573,0.0229 0.011347,0.0445 0.014813,0.0597 0.00333,0.0148 0.00415,0.0224 0.00429,0.0285 1.422e-4,0.006 -3.006e-4,0.0124 -8.289e-4,0.0248 -0.00104,0.0288 -0.00207,0.0577 -0.00311,0.0866 -0.00104,0.0153 -0.00208,0.0307 -0.00312,0.046 -5.177e-4,0.005 -0.00108,0.0136 -6.022e-4,0.0238 4.816e-4,0.0103 0.00195,0.0217 0.00483,0.0347 0.00294,0.0132 0.00726,0.0273 0.011007,0.0391 0.00384,0.0121 0.00764,0.0234 0.00956,0.0302 0.00185,0.007 3.629e-4,0.005 -1.377e-4,0.004 -6.549e-4,-0.001 -9.274e-4,2e-5 -0.0015,0.009 -0.00104,0.0308 -0.00207,0.0615 -0.00311,0.0922 -0.00104,0.0552 -0.00207,0.11028 -0.0031,0.16524 -0.00103,0.028 -0.00206,0.056 -0.00308,0.0839 -4.848e-4,0.008 -0.00107,0.0164 -0.00113,0.0252 -6.6e-5,0.009 4.332e-4,0.0197 0.00229,0.0311 0.00218,0.0129 0.00571,0.0241 0.00815,0.0315 0.00248,0.008 0.00468,0.0136 0.00424,0.014 -0.00154,-0.002 -0.00408,-0.0108 -0.00487,-0.0138 -6.821e-4,-0.003 -0.001,-6.7e-4 -0.00155,0.007 -0.00101,0.0264 -0.002,0.0526 -0.00299,0.0787 -9.953e-4,0.0717 -0.00198,0.14305 -0.00295,0.21396 -9.837e-4,0.11175 -0.00195,0.22282 -0.00291,0.33316 -9.704e-4,0.0373 -0.00193,0.0743 -0.00287,0.11101 -9.56e-4,0.0136 -0.00197,0.0169 -0.00403,0.0252 -9.092e-4,0.003 -0.00283,0.0106 -0.00504,0.0184 -0.00253,0.009 -0.00449,0.0156 -0.00702,0.0246 -0.00303,0.0112 -0.00405,0.0163 -0.00569,0.0231 -0.00135,0.006 -0.00174,0.006 -0.00262,0.008 -7.77e-5,-0.001 -0.0019,0.004 -0.00425,0.0105 -0.00222,0.006 -0.00563,0.0162 -0.00841,0.0263 -0.00751,0.0279 -0.00808,0.0523 -0.00883,0.0647 -8.383e-4,0.0156 -0.00165,0.0309 -0.00243,0.0461 -8.279e-4,0.017 -0.00168,0.0261 -0.0037,0.0362 -4.04e-5,1.8e-4 -0.00927,0.0394 -0.012963,0.0645 -0.00644,0.0442 -0.00391,0.0473 -0.0097,0.0664 -0.00189,0.006 -0.0046,0.013 -0.010047,0.0249 -0.00572,0.0125 -0.01,0.0205 -0.016209,0.0333 -0.00602,0.0124 -0.012982,0.028 -0.017359,0.0466 -0.00237,0.0101 -0.00356,0.0191 -0.00417,0.0272 -4.696e-4,0.006 -6.991e-4,0.0142 -7.429e-4,0.0152 -4.965e-4,0.0131 -9.237e-4,0.0258 -0.00128,0.0381 -9.25e-5,0.003 -0.0012,-4.8e-4 0.00135,-0.0155 0.00126,-0.007 0.0039,-0.0185 0.00977,-0.031 0.00619,-0.0131 0.015024,-0.0258 0.026582,-0.0368 0.011387,-0.0109 0.023091,-0.0179 0.032781,-0.0224 0.00949,-0.004 0.017556,-0.007 0.022581,-0.008 0.010876,-0.002 0.013611,-0.002 0.012854,-0.002 0.00187,-7e-5 -6.5e-5,-4e-5 -0.00615,-6.6e-4 -0.00583,-6e-4 -0.013281,-0.002 -0.02254,-0.003 -0.019213,-0.003 -0.042312,-0.007 -0.066485,-0.0105 0,0 -0.021453,0.13054 -0.021453,0.13054 0,0 -0.021453,0.13054 -0.021453,0.13054 0.023226,0.004 0.049743,0.008 0.072883,0.0113 0.011293,0.002 0.022996,0.003 0.034153,0.004 0.010242,9.4e-4 0.023164,0.002 0.036238,0.002 0.00895,-2.3e-4 0.023253,-9.5e-4 0.038931,-0.004 0.00818,-0.002 0.018891,-0.005 0.030597,-0.0103 0.011882,-0.006 0.025351,-0.0137 0.038155,-0.0259 0.012961,-0.0124 0.022851,-0.0265 0.029841,-0.0414 0.00666,-0.0141 0.00983,-0.027 0.011445,-0.0365 0.00273,-0.0161 0.00204,-0.03 0.00205,-0.0297 -3.54e-4,-0.0123 -7.812e-4,-0.025 -0.00128,-0.0381 -1.372e-4,-0.003 -1.81e-4,-0.002 -4.644e-4,3.7e-4 -3.563e-4,0.003 -9.561e-4,0.008 -0.00223,0.013 -0.00222,0.009 -0.00423,0.0111 -0.00177,0.005 0.00319,-0.008 0.010087,-0.0224 0.017472,-0.0404 0.00683,-0.0167 0.015486,-0.0396 0.02128,-0.0642 0.00947,-0.0405 0.010614,-0.0886 0.011171,-0.0962 0.00126,-0.0155 0.00564,-0.0345 0.00871,-0.0655 0.00261,-0.0271 0.00173,-0.0499 9.315e-4,-0.0663 -7.794e-4,-0.0152 -0.00159,-0.0305 -0.00243,-0.0461 -9.448e-4,-0.0155 -0.00118,-0.011 -0.00236,-0.0119 2.568e-4,-0.003 0.00152,-0.009 0.00322,-0.0166 0.00131,-0.006 0.00407,-0.0176 0.00579,-0.0279 0.00139,-0.009 0.00188,-0.0158 0.00196,-0.0193 7.41e-5,-0.003 -2.101e-4,-0.005 2.708e-4,-0.009 7.924e-4,-0.006 0.00257,-0.015 0.0044,-0.0254 0.00174,-0.01 0.00388,-0.0225 0.00521,-0.0348 0.00251,-0.0242 0.0016,-0.0416 6.023e-4,-0.0558 -9.408e-4,-0.0367 -0.0019,-0.0737 -0.00287,-0.11101 -9.573e-4,-0.11034 -0.00193,-0.22141 -0.00291,-0.33316 -9.72e-4,-0.0709 -0.00196,-0.14225 -0.00295,-0.21396 -9.849e-4,-0.0261 -0.00198,-0.0523 -0.00299,-0.0787 -3.143e-4,-0.004 -0.00109,-0.0156 -0.00229,-0.024 -0.00176,-0.0123 -0.00488,-0.0238 -0.010077,-0.0352 -0.00283,-0.006 -0.00602,-0.0112 -0.00705,-0.0129 -0.00154,-0.002 -0.00216,-0.003 -0.00229,-0.002 -5.681e-4,-3.2e-4 -0.00124,-8.3e-4 -0.00192,-0.004 -7.066e-4,-0.003 -0.00121,-0.009 -0.00174,-0.017 -0.00102,-0.0279 -0.00205,-0.0559 -0.00308,-0.0839 -0.00103,-0.055 -0.00206,-0.11005 -0.0031,-0.16524 -0.00103,-0.0307 -0.00207,-0.0614 -0.00311,-0.0922 -3.975e-4,-0.006 -0.00102,-0.0179 -0.00292,-0.0285 -0.00227,-0.0126 -0.00591,-0.0226 -0.010113,-0.0327 -0.0038,-0.009 -0.00829,-0.0191 -0.012538,-0.0293 -0.00471,-0.0113 -0.00771,-0.0191 -0.010237,-0.0262 -0.00207,-0.006 -0.00354,-0.0111 -0.00416,-0.0133 -8.251e-4,-0.003 -0.00135,-0.005 -0.00189,-0.0109 -0.00104,-0.0154 -0.00208,-0.0307 -0.00312,-0.046 -0.00104,-0.0289 -0.00208,-0.0577 -0.00311,-0.0866 -4.899e-4,-0.0115 -0.00101,-0.0238 -0.00292,-0.0369 -0.002,-0.0137 -0.00528,-0.0271 -0.010372,-0.0445 -0.00497,-0.0169 -0.011604,-0.0382 -0.01808,-0.0599 -0.0066,-0.0222 -0.012671,-0.0436 -0.016776,-0.061 -0.00403,-0.0171 -0.00621,-0.03 -0.00752,-0.0403 -0.00133,-0.0104 -0.00186,-0.0188 -0.00237,-0.0282 -9.751e-4,-0.018 -0.00196,-0.039 -0.00683,-0.0595 -0.00447,-0.0186 -0.012244,-0.0384 -0.020541,-0.0629 -0.00449,-0.0133 -0.00958,-0.029 -0.014281,-0.0446 -0.00478,-0.0159 -0.00891,-0.0308 -0.011733,-0.0431 -0.00278,-0.0121 -0.00438,-0.0215 -0.00541,-0.0303 -0.00107,-0.009 -0.00156,-0.0182 -0.00206,-0.0306 -9.953e-4,-0.0263 -0.00198,-0.0525 -0.00295,-0.0786 -4.801e-4,-0.0107 -9.81e-4,-0.0197 -0.00186,-0.0283 -9.231e-4,-0.009 -0.00224,-0.0175 -0.00434,-0.0278 -0.00204,-0.01 -0.0046,-0.0212 -0.00706,-0.0327 -0.00251,-0.0117 -0.0048,-0.0231 -0.00644,-0.0333 -0.00166,-0.0103 -0.0027,-0.0191 -0.00386,-0.0288 -0.00116,-0.01 -0.0024,-0.0197 -0.00443,-0.0311 -0.00385,-0.0216 -0.010652,-0.0508 -0.016603,-0.0789 -0.00638,-0.0301 -0.012674,-0.0625 -0.024575,-0.10879 -0.012029,-0.0468 -0.029091,-0.10601 -0.040441,-0.15098 -0.011553,-0.0458 -0.017771,-0.078 -0.023883,-0.10973 -0.00632,-0.0328 -0.012538,-0.0652 -0.018647,-0.0971 -0.00636,-0.0332 -0.012546,-0.0656 -0.024246,-0.10595 -0.00588,-0.0203 -0.013173,-0.0429 -0.019804,-0.0638 -0.00686,-0.0216 -0.013093,-0.0415 -0.017279,-0.0576 -0.00422,-0.0162 -0.00647,-0.0283 -0.0081,-0.039 -0.00167,-0.0111 -0.00272,-0.0212 -0.00448,-0.0333 -0.00178,-0.0122 -0.00421,-0.0265 -0.00649,-0.0401 -0.00238,-0.0141 -0.00461,-0.0274 -0.00614,-0.0382 -0.00154,-0.0109 -0.00248,-0.0193 -0.00339,-0.0265 -9.684e-4,-0.008 -0.00196,-0.0143 -0.00367,-0.0222 -0.00171,-0.008 -0.00412,-0.0176 -0.00627,-0.0266 -0.00229,-0.01 -0.00442,-0.019 -0.00581,-0.0272 -0.00144,-0.008 -0.00222,-0.0153 -0.00337,-0.0223 -0.00121,-0.007 -0.00278,-0.0146 -0.00569,-0.0236 -0.00302,-0.009 -0.00731,-0.0208 -0.011918,-0.0326 -0.00479,-0.0123 -0.010325,-0.0261 -0.015213,-0.0383 z"
       id="path1430"
       inkscape:connector-curvature="0"
       inkscape:path-effect="#path-effect1432;#path-effect1434"
       inkscape:original-d="m 5.5582002,290.30414 c 0.013481,0.0245 0.024315,0.0515 0.032504,0.0813 0.00265,0.008 0.00265,0.019 0,0.0325 0.00806,0.019 0.013481,0.0407 0.016251,0.065 0.00265,0.008 0.00265,0.019 0,0.0325 0.00806,0.0299 0.013481,0.0624 0.016251,0.0975 0.00265,0.0136 0.00265,0.0299 0,0.0488 0.018899,0.0461 0.03515,0.0949 0.048756,0.14627 0.00806,0.0299 0.013481,0.0624 0.016251,0.0975 0.00806,0.0299 0.013481,0.0624 0.016253,0.0975 0.00806,0.0299 0.013481,0.0624 0.016251,0.0975 0.018899,0.057 0.03515,0.11654 0.048756,0.17878 0.00806,0.0299 0.013481,0.0624 0.016251,0.0975 0.00806,0.0244 0.013481,0.0515 0.016251,0.0813 0.00265,0.0136 0.00265,0.0299 0,0.0488 0.00806,0.0245 0.013481,0.0515 0.016251,0.0813 0.00265,0.008 0.00265,0.019 0,0.0325 0.00265,0.0299 0.00265,0.0624 0,0.0975 0.00265,0.0136 0.00265,0.0299 0,0.0488 0.013481,0.0353 0.024315,0.0732 0.032504,0.11376 0.00806,0.0136 0.013481,0.0299 0.016251,0.0488 0.00265,0.0136 0.00265,0.0299 0,0.0487 0.00265,0.019 0.00265,0.0407 0,0.065 0.018896,0.0515 0.03515,0.1057 0.048756,0.16252 0.00265,0.008 0.00265,0.019 0,0.0325 0.00265,0.0353 0.00265,0.0732 0,0.11376 0.00265,0.008 0.00265,0.019 0,0.0325 0.00265,0.008 0.00265,0.019 0,0.0325 0.013481,0.0244 0.024315,0.0515 0.032504,0.0813 0.00265,0.003 0.00265,0.008 0,0.0162 0.00265,0.0244 0.00265,0.0515 0,0.0813 0.00265,0.0678 0.00265,0.13821 0,0.21128 0.00265,0.019 0.00265,0.0407 0,0.065 0.00265,0.008 0.00265,0.019 0,0.0325 0.00806,0.008 0.013481,0.019 0.016253,0.0325 0.00265,0.003 0.00265,0.008 0,0.0163 0.00265,0.019 0.00265,0.0407 0,0.065 0.00265,0.0624 0.00265,0.12737 0,0.19503 0.00265,0.14362 0.00265,0.28989 0,0.4388 0.00265,0.0136 0.00265,0.0299 0,0.0488 0.00265,0.008 0.00265,0.019 0,0.0325 -0.00277,0.019 -0.00819,0.0407 -0.016253,0.065 0.00265,0.003 0.00265,0.008 0,0.0162 -0.00277,0.0136 -0.00819,0.0299 -0.016251,0.0488 0.00265,0.008 0.00265,0.019 0,0.0325 0.00265,0.0136 0.00265,0.0299 0,0.0488 0.00265,0.0136 0.00265,0.0299 0,0.0488 -0.00277,0.019 -0.00819,0.0407 -0.016251,0.065 0.00265,0.0244 0.00265,0.0515 0,0.0813 -0.013607,0.0299 -0.029858,0.0624 -0.048756,0.0975 0.00265,0.003 0.00265,0.008 0,0.0163 0.00265,0.0136 0.00265,0.0298 0,0.0487 0.00265,0.003 0.00265,0.008 0,0.0163 -0.044614,-0.0104 -0.091873,-0.0182 -0.141778,-0.0233" />
    <path
       style="fill:#008000;fill-rule:nonzero;stroke:none;stroke-width:0.26458332px;stroke-linecap:butt;stroke-linejoin:miter;stroke-opacity:1"
       d="m 6.5658272,290.33665 c 0,0.39282 0,0.78828 0,1.02124 0,0.23296 0,0.30336 0,0.3494 0,0.046 0,0.0677 0,0.0839 0,0.0161 0,0.0272 -0.00188,0.0376 -0.00188,0.0105 -0.00736,0.0215 -0.010868,0.038 -0.00351,0.0165 -0.00351,0.0382 -0.00569,0.0569 -0.00218,0.0187 -0.00762,0.035 -0.010844,0.0487 -0.00323,0.0137 -0.00323,0.0247 -0.00554,0.0407 -0.00232,0.016 -0.00774,0.0377 -0.010838,0.0541 -0.0031,0.0164 -0.0031,0.0274 -0.0031,0.0409 0,0.0136 0,0.0299 -0.00503,0.0594 -0.00503,0.0296 -0.015855,0.0729 -0.021665,0.1001 -0.00581,0.0272 -0.00581,0.0382 -0.00581,0.0518 0,0.0135 0,0.0298 0,0.0596 0,0.0298 0,0.0731 0,0.10011 0,0.027 0,0.038 0,0.0516 0,0.0135 0,0.0298 -0.00218,0.0458 -0.00218,0.016 -0.0076,0.0323 -0.01084,0.0435 -0.00324,0.0112 -0.00324,0.0162 -0.00541,0.0269 -0.00218,0.0106 -0.0076,0.0269 -0.010839,0.0462 -0.00324,0.0192 -0.00324,0.0409 -0.00541,0.0596 -0.00218,0.0187 -0.0076,0.035 -0.010839,0.0462 -0.00324,0.0112 -0.00324,0.0162 -0.00541,0.0269 -0.00218,0.0107 -0.0076,0.027 -0.012716,0.0405 -0.00511,0.0135 -0.010597,0.0244 -0.014103,0.0329 -0.00351,0.009 -0.00351,0.0135 -0.00582,0.0269 -0.00232,0.0134 -0.00774,0.0351 -0.010838,0.049 -0.0031,0.0139 -0.0031,0.0189 -0.00541,0.0323 -0.00232,0.0134 -0.00774,0.0351 -0.010838,0.049 -0.0031,0.0139 -0.0031,0.0189 -0.0031,0.027 0,0.008 0,0.0192 -0.00218,0.0324 -0.00218,0.0133 -0.0076,0.0296 -0.010839,0.0408 -0.00324,0.0112 -0.00324,0.0162 -0.00555,0.0296 -0.00232,0.0134 -0.00774,0.0351 -0.012715,0.0513 -0.00497,0.0161 -0.010458,0.0271 -0.015842,0.0379 -0.00538,0.0108 -0.010868,0.0217 -0.016252,0.0325 -0.00538,0.0108 -0.010868,0.0217 -0.016691,0.038 -0.00582,0.0163 -0.011248,0.038 -0.018746,0.057 -0.0075,0.019 -0.018363,0.0353 -0.026658,0.0486 -0.00829,0.0134 -0.013779,0.0243 -0.019162,0.0351 -0.00538,0.0108 -0.010868,0.0217 -0.016252,0.0325 -0.00538,0.0108 -0.010868,0.0217 -0.016555,0.0353 -0.00569,0.0136 -0.011124,0.0298 -0.015791,0.041 -0.00467,0.0111 -0.00987,0.0163 -0.018572,0.0297 -0.0087,0.0133 -0.019551,0.035 -0.0272,0.0489 -0.00765,0.0139 -0.012851,0.0191 -0.016935,0.0247 -0.00408,0.006 -0.00408,0.0106 -0.00848,0.0213 -0.0044,0.0107 -0.015246,0.027 -0.023122,0.0381 -0.00788,0.0111 -0.013095,0.0163 -0.017166,0.0219 -0.00407,0.006 -0.00407,0.0106 -0.00595,0.0185 -0.00188,0.008 -0.00736,0.0189 -0.012308,0.0273 -0.00495,0.008 -0.010149,0.0137 -0.01611,0.0215 -0.00596,0.008 -0.011445,0.0188 -0.016392,0.0273 -0.00495,0.008 -0.010149,0.0137 -0.01611,0.0215 -0.00596,0.008 -0.011445,0.0188 -0.016392,0.0273 -0.00495,0.008 -0.010149,0.0137 -0.014233,0.0218 -0.00408,0.008 -0.00408,0.0191 -0.00596,0.0296 -0.00188,0.0105 -0.00736,0.0215 -0.010869,0.03 -0.00351,0.009 -0.00351,0.0135 -0.00351,0.0217 0,0.008 0,0.0191 0,0.0274 0,0.008 0,0.0132 -0.0044,0.0239 -0.0044,0.0107 -0.015246,0.027 -0.021677,0.0381 -0.00643,0.0112 -0.00643,0.0162 -0.00643,0.0218 0,0.006 0,0.0106 0,0.0163 0,0.006 0,0.0106 -0.00188,0.0185 -0.00188,0.008 -0.00736,0.0188 -0.010868,0.0273 -0.00351,0.009 -0.00351,0.0135 -0.00568,0.0242 -0.00218,0.0107 -0.0076,0.027 -0.013016,0.0432 -0.00541,0.0163 -0.010839,0.0326 -0.015515,0.0437 -0.00468,0.0112 -0.00988,0.0164 -0.034052,0.0141 -0.024175,-0.002 -0.066017,-0.0155 -0.1095194,-0.0292"
       id="path1436"
       inkscape:connector-curvature="0"
       inkscape:path-effect="#path-effect1438;#path-effect1440"
       inkscape:original-d="m 6.5658272,290.33665 c 0.00265,0.39282 0.00265,0.78828 0,1.1864 0.00265,0.0678 0.00265,0.1382 0,0.21127 0.00265,0.019 0.00265,0.0407 0,0.065 0.00265,0.008 0.00265,0.019 0,0.0325 -0.00277,0.008 -0.00819,0.019 -0.016251,0.0325 0.00265,0.019 0.00265,0.0407 0,0.065 -0.00277,0.0136 -0.00819,0.0299 -0.016251,0.0487 0.00265,0.008 0.00265,0.019 0,0.0325 -0.00277,0.019 -0.00819,0.0407 -0.016251,0.065 0.00265,0.008 0.00265,0.019 0,0.0325 0.00265,0.0136 0.00265,0.0299 0,0.0488 -0.00819,0.0407 -0.019024,0.084 -0.032504,0.13001 0.00265,0.008 0.00265,0.019 0,0.0325 0.00265,0.0136 0.00265,0.0299 0,0.0488 0.00265,0.0407 0.00265,0.084 0,0.13002 0.00265,0.008 0.00265,0.019 0,0.0325 0.00265,0.0136 0.00265,0.0299 0,0.0488 -0.00277,0.0136 -0.00819,0.0299 -0.016253,0.0488 0.00265,0.003 0.00265,0.008 0,0.0162 -0.00277,0.0136 -0.00819,0.0299 -0.016251,0.0488 0.00265,0.019 0.00265,0.0407 0,0.065 -0.00277,0.0136 -0.00819,0.0299 -0.016251,0.0488 0.00265,0.003 0.00265,0.008 0,0.0163 -0.00277,0.0136 -0.00819,0.0299 -0.016251,0.0488 -0.00277,0.008 -0.00819,0.019 -0.016251,0.0325 0.00265,0.003 0.00265,0.008 0,0.0163 -0.00277,0.019 -0.00819,0.0407 -0.016251,0.065 0.00265,0.003 0.00265,0.008 0,0.0163 -0.00277,0.019 -0.00819,0.0407 -0.016251,0.065 0.00265,0.003 0.00265,0.008 0,0.0163 0.00265,0.008 0.00265,0.019 0,0.0325 -0.00277,0.0136 -0.00819,0.0299 -0.016251,0.0488 0.00265,0.003 0.00265,0.008 0,0.0163 -0.00277,0.019 -0.00819,0.0407 -0.016251,0.065 -0.00277,0.008 -0.00819,0.019 -0.016253,0.0325 -0.00277,0.008 -0.00819,0.019 -0.016251,0.0325 -0.00277,0.008 -0.00819,0.019 -0.016251,0.0325 -0.00277,0.019 -0.00819,0.0407 -0.016251,0.065 -0.00819,0.0136 -0.019024,0.0299 -0.032504,0.0487 -0.00277,0.008 -0.00819,0.019 -0.016251,0.0325 -0.00277,0.008 -0.00819,0.019 -0.016253,0.0325 -0.00277,0.008 -0.00819,0.019 -0.016251,0.0325 -0.00277,0.0136 -0.00819,0.0299 -0.016251,0.0487 -0.00277,0.003 -0.00819,0.008 -0.016251,0.0163 -0.00819,0.019 -0.019024,0.0407 -0.032504,0.065 -0.00277,0.003 -0.00819,0.008 -0.016251,0.0163 0.00265,0.003 0.00265,0.008 0,0.0162 -0.00819,0.0136 -0.019024,0.0299 -0.032504,0.0488 -0.00277,0.003 -0.00819,0.008 -0.016251,0.0162 0.00265,0.003 0.00265,0.008 0,0.0163 -0.00277,0.008 -0.00819,0.019 -0.016251,0.0325 -0.00277,0.003 -0.00819,0.008 -0.016251,0.0163 -0.00277,0.008 -0.00819,0.019 -0.016251,0.0325 -0.00277,0.003 -0.00819,0.008 -0.016251,0.0163 -0.00277,0.008 -0.00819,0.019 -0.016251,0.0325 -0.00277,0.003 -0.00819,0.008 -0.016251,0.0163 0.00265,0.008 0.00265,0.019 0,0.0325 -0.00277,0.008 -0.00819,0.019 -0.016253,0.0325 0.00265,0.003 0.00265,0.008 0,0.0163 0.00265,0.008 0.00265,0.019 0,0.0325 0.00265,0.003 0.00265,0.008 0,0.0162 -0.00819,0.0136 -0.019024,0.0299 -0.032504,0.0488 0.00265,0.003 0.00265,0.008 0,0.0163 0.00265,0.003 0.00265,0.008 0,0.0163 0.00265,0.003 0.00265,0.008 0,0.0162 -0.00277,0.008 -0.00819,0.019 -0.016251,0.0325 0.00265,0.003 0.00265,0.008 0,0.0163 -0.00277,0.0136 -0.00819,0.0299 -0.016251,0.0488 -0.00277,0.0136 -0.00819,0.0299 -0.016251,0.0488 -0.00277,0.003 -0.00819,0.008 -0.016251,0.0163 -0.039196,-0.0158 -0.081038,-0.029 -0.125526,-0.0396" />
    <path
       style="fill:#008000;fill-rule:nonzero;stroke:none;stroke-width:0.26458332px;stroke-linecap:butt;stroke-linejoin:miter;stroke-opacity:1"
       d="m 9.3936835,286.98873 c -0.018606,0.005 -0.040173,0.0101 -0.056464,0.0151 -0.016291,0.005 -0.026951,0.0104 -0.051555,0.029 -0.024604,0.0186 -0.062526,0.0511 -0.092719,0.0833 -0.030193,0.0322 -0.051862,0.0647 -0.078936,0.1053 -0.027074,0.0406 -0.059598,0.0894 -0.111075,0.16793 -0.051477,0.0785 -0.1219042,0.18688 -0.1709983,0.27351 -0.049094,0.0866 -0.076166,0.1516 -0.1059446,0.22203 -0.029778,0.0704 -0.062282,0.14627 -0.094786,0.22211 -0.032504,0.0758 -0.065006,0.15168 -0.1031457,0.26276 -0.038139,0.11108 -0.081475,0.25734 -0.1139239,0.36299 -0.032448,0.10565 -0.054107,0.17062 -0.068071,0.23852 -0.013964,0.0679 -0.01938,0.1383 -0.027336,0.20319 -0.00796,0.0649 -0.018798,0.12452 -0.024491,0.17618 -0.00569,0.0517 -0.00569,0.095 -0.00569,0.19249 0,0.0975 0,0.24921 0,0.34673 0,0.0975 0,0.14082 -0.00253,0.18403 -0.00253,0.0432 -0.00794,0.0865 -0.010832,0.12187 -0.00289,0.0353 -0.00289,0.0625 -0.00542,0.0976 -0.00253,0.0351 -0.00794,0.0784 -0.010832,0.1138 -0.00289,0.0354 -0.00289,0.0624 -0.00779,0.092 -0.0049,0.0296 -0.01573,0.0621 -0.026808,0.10816 -0.011078,0.0461 -0.02192,0.10571 -0.04028,0.15982 -0.01836,0.0541 -0.045465,0.1029 -0.06477,0.14352 -0.019305,0.0406 -0.03014,0.0731 -0.043526,0.10832 -0.013386,0.0352 -0.029631,0.0731 -0.040902,0.10842 -0.011271,0.0353 -0.016688,0.0678 -0.022041,0.0976 -0.00535,0.0297 -0.01077,0.0568 -0.016251,0.0867 -0.00548,0.0299 -0.010898,0.0624 -0.018748,0.0948 -0.00785,0.0324 -0.018685,0.0649 -0.027123,0.10022 -0.00844,0.0353 -0.013852,0.0732 -0.019089,0.10292 -0.00524,0.0297 -0.010662,0.0514 -0.016166,0.0758 -0.0055,0.0244 -0.010902,0.0514 -0.016097,0.0731 -0.0052,0.0216 -0.010623,0.0379 -0.013858,0.0545 -0.00324,0.0165 -0.00324,0.0328 -0.00555,0.0515 -0.00232,0.0187 -0.00774,0.0404 -0.010838,0.0568 -0.0031,0.0164 -0.0031,0.0274 -0.00787,0.0461 -0.00477,0.0187 -0.015604,0.0458 -0.021669,0.065 -0.00607,0.0192 -0.00607,0.0302 -0.010461,0.0435 -0.0044,0.0134 -0.015246,0.0296 -0.021677,0.0408 -0.00643,0.0112 -0.00643,0.0162 -0.00861,0.0268 -0.00218,0.0107 -0.0076,0.027 -0.01302,0.0432 -0.00542,0.0163 -0.010823,0.0325 -0.018112,0.0462 -0.00729,0.0138 -0.018207,0.0247 -0.027133,0.038 -0.00893,0.0133 -0.014363,0.0296 -0.024793,0.0512 -0.010429,0.0217 -0.026637,0.0487 -0.040104,0.0704 -0.013467,0.0217 -0.024317,0.038 -0.035144,0.0543 -0.010827,0.0163 -0.021677,0.0326 -0.03251,0.0488 -0.010833,0.0163 -0.021698,0.0325 -0.03806,0.0596 -0.016362,0.027 -0.038021,0.0649 -0.051628,0.0892 -0.013607,0.0243 -0.019092,0.0353 -0.024475,0.046 -0.00538,0.0108 -0.010868,0.0217 -0.016251,0.0325 -0.00538,0.0108 -0.010868,0.0217 -0.018423,0.0328 -0.00755,0.0111 -0.018472,0.022 -0.034724,0.0382 -0.016252,0.0163 -0.037938,0.0379 -0.05414,0.0541 -0.016202,0.0162 -0.02712,0.0271 -0.037913,0.0379 -0.010793,0.0108 -0.021711,0.0217 -0.032335,0.0304 -0.010624,0.009 -0.021299,0.014 -0.032382,0.0215 -0.011083,0.008 -0.022001,0.0185 -0.035302,0.0296 -0.013301,0.0111 -0.029631,0.022 -0.043336,0.0325 -0.013705,0.0105 -0.024623,0.0214 -0.037925,0.0325 -0.013302,0.0111 -0.02963,0.022 -0.043335,0.0325 -0.013705,0.0105 -0.024623,0.0214 -0.035241,0.0301 -0.010619,0.009 -0.021278,0.014 -0.035126,0.0244 -0.013848,0.0103 -0.030116,0.0266 -0.048771,0.0407 -0.018655,0.0141 -0.040391,0.0249 -0.059616,0.0379 -0.019225,0.013 -0.035493,0.0293 -0.051743,0.0455 -0.01625,0.0163 -0.032536,0.0325 -0.059413,0.0544 -0.026877,0.0219 -0.064798,0.049 -0.097635,0.0784 -0.032837,0.0295 -0.059924,0.062 -0.089456,0.092 -0.029532,0.03 -0.062036,0.0571 -0.084135,0.0785 -0.022098,0.0213 -0.032964,0.0376 -0.043429,0.0513 -0.010465,0.0137 -0.021383,0.0246 -0.030005,0.0351 -0.00862,0.0105 -0.014107,0.0215 -0.019058,0.0299 -0.00495,0.008 -0.010169,0.0136 -0.018289,0.0218 -0.00812,0.008 -0.019037,0.019 -0.027223,0.0272 -0.00819,0.008 -0.013388,0.0134 -0.018912,0.019 -0.00552,0.006 -0.010726,0.0108 -0.021381,0.017 -0.010655,0.006 -0.026776,0.0117 -0.037967,0.0164 -0.011192,0.005 -0.01641,0.01 -0.02453,0.018 -0.00812,0.008 -0.019037,0.019 -0.040723,0.0407 -0.021686,0.0217 -0.05419,0.0542 -0.075801,0.0758 -0.021611,0.0216 -0.032529,0.0325 -0.040715,0.0407 -0.00819,0.008 -0.013388,0.0134 -0.021351,0.0194 -0.00796,0.006 -0.018638,0.0114 -0.029546,0.0168 -0.010909,0.005 -0.02157,0.0108 -0.030495,0.0181 -0.00893,0.007 -0.01441,0.0183 -0.019357,0.0267 -0.00495,0.008 -0.010149,0.0137 -0.015673,0.0192 -0.00552,0.006 -0.010726,0.0108 -0.016255,0.0163 -0.00553,0.006 -0.010747,0.0107 -0.016259,0.0163 -0.00551,0.005 -0.010714,0.0107 -0.015499,0.0336 -0.00479,0.0228 -0.00629,0.063 -0.00789,0.10594"
       id="path1442"
       inkscape:connector-curvature="0"
       inkscape:path-effect="#path-effect1444;#path-effect1446"
       inkscape:original-d="m 9.3936835,286.98873 c -0.019024,0.003 -0.040693,0.008 -0.065008,0.0163 -0.00819,0.003 -0.019024,0.008 -0.032504,0.0163 -0.035276,0.0299 -0.073197,0.0624 -0.1137642,0.0975 -0.019024,0.0299 -0.040693,0.0624 -0.065008,0.0975 -0.029858,0.0461 -0.062362,0.0949 -0.097512,0.14627 -0.06778,0.1057 -0.1382051,0.21405 -0.2112766,0.32504 -0.024442,0.0624 -0.051528,0.12737 -0.08126,0.19503 -0.029858,0.0732 -0.062362,0.14904 -0.097512,0.22752 -0.029859,0.0732 -0.062363,0.14904 -0.097512,0.22753 -0.040693,0.14363 -0.084032,0.28989 -0.1300163,0.43881 -0.019023,0.0624 -0.040693,0.12737 -0.065008,0.19502 -0.00277,0.0678 -0.00819,0.13821 -0.016253,0.21128 -0.00819,0.0569 -0.019023,0.11653 -0.032504,0.17877 0.00265,0.0407 0.00265,0.084 0,0.13002 0.00265,0.14904 0.00265,0.30072 0,0.45506 0.00265,0.0407 0.00265,0.084 0,0.13001 -0.00277,0.0407 -0.00819,0.084 -0.016251,0.13002 0.00265,0.0244 0.00265,0.0515 0,0.0813 -0.00277,0.0407 -0.00819,0.084 -0.016251,0.13001 0.00265,0.0245 0.00265,0.0515 0,0.0813 -0.00819,0.0299 -0.019024,0.0624 -0.032504,0.0975 -0.00819,0.0569 -0.019024,0.11653 -0.032504,0.17877 -0.024442,0.0461 -0.051528,0.0949 -0.08126,0.14627 -0.00819,0.0299 -0.019024,0.0624 -0.032504,0.0975 -0.013607,0.0353 -0.029858,0.0732 -0.048756,0.11376 -0.00277,0.0299 -0.00819,0.0624 -0.016251,0.0975 -0.00277,0.0244 -0.00819,0.0515 -0.016251,0.0813 -0.00277,0.0299 -0.00819,0.0624 -0.016251,0.0975 -0.00819,0.0299 -0.019024,0.0624 -0.032504,0.0975 -0.00277,0.0353 -0.00819,0.0732 -0.016251,0.11377 -0.00277,0.019 -0.00819,0.0407 -0.016251,0.065 -0.00277,0.0245 -0.00819,0.0515 -0.016251,0.0813 -0.00277,0.0136 -0.00819,0.0299 -0.016251,0.0488 0.00265,0.0136 0.00265,0.0299 0,0.0488 -0.00277,0.019 -0.00819,0.0407 -0.016251,0.065 0.00265,0.008 0.00265,0.019 0,0.0325 -0.00819,0.0244 -0.019024,0.0515 -0.032504,0.0813 0.00265,0.008 0.00265,0.019 0,0.0325 -0.00819,0.0136 -0.019024,0.0299 -0.032504,0.0488 0.00265,0.003 0.00265,0.008 0,0.0163 -0.00277,0.0136 -0.00819,0.0299 -0.016251,0.0488 -0.00277,0.0136 -0.00819,0.0298 -0.016251,0.0487 -0.00819,0.008 -0.019024,0.019 -0.032504,0.0325 -0.00277,0.0136 -0.00819,0.0299 -0.016251,0.0487 -0.013608,0.0245 -0.029858,0.0515 -0.048756,0.0813 -0.00819,0.0136 -0.019024,0.0299 -0.032504,0.0488 -0.00819,0.0136 -0.019024,0.0299 -0.032504,0.0488 -0.00819,0.0136 -0.019023,0.0299 -0.032504,0.0487 -0.019024,0.0353 -0.040693,0.0732 -0.065008,0.11377 -0.00277,0.008 -0.00819,0.019 -0.016251,0.0325 -0.00277,0.008 -0.00819,0.019 -0.016251,0.0325 -0.00277,0.008 -0.00819,0.019 -0.016253,0.0325 -0.00819,0.008 -0.019024,0.019 -0.032504,0.0325 -0.019024,0.019 -0.040693,0.0407 -0.065008,0.065 -0.00819,0.008 -0.019024,0.019 -0.032504,0.0325 -0.00819,0.008 -0.019024,0.019 -0.032504,0.0325 -0.00819,0.003 -0.019024,0.008 -0.032504,0.0162 -0.00819,0.008 -0.019024,0.019 -0.032504,0.0325 -0.013605,0.008 -0.029858,0.019 -0.048756,0.0325 -0.00819,0.008 -0.019024,0.019 -0.032504,0.0325 -0.013608,0.008 -0.029858,0.019 -0.048756,0.0325 -0.00819,0.008 -0.019024,0.019 -0.032504,0.0325 -0.00819,0.003 -0.019023,0.008 -0.032504,0.0163 -0.013607,0.0136 -0.029858,0.0299 -0.048756,0.0488 -0.019024,0.008 -0.040693,0.019 -0.065008,0.0325 -0.013608,0.0136 -0.029858,0.0299 -0.048756,0.0488 -0.013605,0.0136 -0.029858,0.0299 -0.048756,0.0487 -0.035276,0.0244 -0.073197,0.0515 -0.1137645,0.0813 -0.024442,0.0299 -0.051528,0.0624 -0.08126,0.0975 -0.029858,0.0244 -0.062362,0.0515 -0.097512,0.0813 -0.00819,0.0136 -0.019024,0.0299 -0.032504,0.0487 -0.00819,0.008 -0.019024,0.019 -0.032504,0.0325 -0.00277,0.008 -0.00819,0.019 -0.016251,0.0325 -0.00277,0.003 -0.00819,0.008 -0.016251,0.0162 -0.00819,0.008 -0.019024,0.019 -0.032504,0.0325 -0.00277,0.003 -0.00819,0.008 -0.016251,0.0163 -0.00277,0.003 -0.00819,0.008 -0.016251,0.0163 -0.013607,0.003 -0.029858,0.008 -0.048756,0.0163 -0.00277,0.003 -0.00819,0.008 -0.016251,0.0162 -0.00819,0.008 -0.019024,0.019 -0.032504,0.0325 -0.029858,0.0299 -0.062362,0.0624 -0.097512,0.0975 -0.00819,0.008 -0.019024,0.019 -0.032504,0.0325 -0.00277,0.003 -0.00819,0.008 -0.016251,0.0163 -0.00819,0.003 -0.019024,0.008 -0.032504,0.0162 -0.00819,0.003 -0.019024,0.008 -0.032504,0.0163 -0.00277,0.008 -0.00819,0.019 -0.016251,0.0325 -0.00277,0.003 -0.00819,0.008 -0.016251,0.0163 -0.00277,0.003 -0.00819,0.008 -0.016251,0.0163 -0.00277,0.003 -0.00819,0.008 -0.016251,0.0162 -0.00277,0.003 -0.00819,0.008 -0.016251,0.0163 0.00114,0.0376 -3.704e-4,0.0778 -0.00451,0.1206" />
    <path
       style="fill:#008000;fill-rule:nonzero;stroke:none;stroke-width:0.26458332px;stroke-linecap:butt;stroke-linejoin:miter;stroke-opacity:1"
       d="m 3.6242066,291.06799 c 0.029161,0.006 0.056164,0.0113 0.07471,0.0168 0.018546,0.006 0.029221,0.0108 0.043087,0.0163 0.013866,0.005 0.029989,0.0108 0.040115,0.0161 0.010126,0.005 0.015328,0.0104 0.020853,0.016 0.00552,0.006 0.010727,0.0108 0.016263,0.0163 0.00554,0.006 0.010756,0.0107 0.01753,0.0135 0.00677,0.003 0.012196,0.003 0.021969,0.008 0.00977,0.006 0.026104,0.0165 0.042317,0.0273 0.016213,0.0108 0.032543,0.0217 0.045517,0.0372 0.012974,0.0155 0.023822,0.0372 0.034872,0.0539 0.01105,0.0167 0.021968,0.0276 0.029797,0.0379 0.00783,0.0102 0.013314,0.0212 0.018698,0.032 0.00538,0.0108 0.010868,0.0217 0.016251,0.0325 0.00538,0.0108 0.010868,0.0217 0.019215,0.0331 0.00835,0.0113 0.019266,0.0222 0.027129,0.035 0.00786,0.0128 0.013291,0.0291 0.018669,0.0428 0.00538,0.0137 0.010862,0.0247 0.01628,0.038 0.00542,0.0133 0.010846,0.0296 0.019188,0.0439 0.00834,0.0143 0.01926,0.0252 0.027123,0.038 0.00786,0.0128 0.013291,0.0291 0.018668,0.0428 0.00538,0.0137 0.010862,0.0247 0.016279,0.038 0.00542,0.0133 0.010845,0.0296 0.016222,0.0433 0.00538,0.0137 0.010862,0.0247 0.01628,0.038 0.00542,0.0133 0.010845,0.0296 0.016222,0.0433 0.00538,0.0137 0.010862,0.0247 0.016245,0.0355 0.00538,0.0108 0.010868,0.0217 0.016251,0.0325 0.00538,0.0108 0.010868,0.0217 0.013845,0.0292 0.00298,0.007 0.00298,0.0125 0.00542,0.0239 0.00244,0.0114 0.00787,0.0277 0.013245,0.0415 0.00538,0.0137 0.010862,0.0247 0.01628,0.038 0.00542,0.0133 0.010845,0.0296 0.016223,0.0433 0.00538,0.0137 0.010862,0.0247 0.016281,0.038 0.00542,0.0133 0.010846,0.0296 0.016223,0.0433 0.00538,0.0137 0.010862,0.0247 0.016279,0.038 0.00542,0.0133 0.010845,0.0296 0.016262,0.0458 0.00542,0.0163 0.010854,0.0325 0.016256,0.0487 0.0054,0.0162 0.010829,0.0325 0.021681,0.0546 0.010852,0.0221 0.027103,0.0492 0.037916,0.0704 0.010813,0.0213 0.016241,0.0376 0.021618,0.0513 0.00538,0.0137 0.010862,0.0247 0.016245,0.0355 0.00538,0.0108 0.010868,0.0217 0.019054,0.0355 0.00819,0.0138 0.019036,0.0301 0.027095,0.0458 0.00806,0.0158 0.013486,0.0321 0.027099,0.057 0.013613,0.0249 0.035282,0.0574 0.051444,0.0868 0.016162,0.0294 0.026996,0.0565 0.035138,0.0781 0.00814,0.0216 0.013569,0.0379 0.027232,0.0602 0.013663,0.0223 0.035333,0.0494 0.048751,0.0704 0.013418,0.0211 0.018845,0.0374 0.024222,0.0511 0.00538,0.0137 0.010862,0.0247 0.016284,0.038 0.00542,0.0133 0.01086,0.0296 0.01903,0.0463 0.00817,0.0167 0.01902,0.033 0.027084,0.0487 0.00806,0.0158 0.013501,0.0321 0.021671,0.0488 0.00817,0.0167 0.01902,0.033 0.027079,0.0487 0.00806,0.0158 0.013486,0.0321 0.02442,0.0516 0.010934,0.0195 0.027201,0.0412 0.040692,0.0601 0.013491,0.0189 0.02434,0.0351 0.035167,0.0514 0.010827,0.0163 0.021677,0.0325 0.029701,0.0458 0.00802,0.0132 0.013509,0.0242 0.021695,0.038 0.00819,0.0138 0.019036,0.0301 0.02706,0.0433 0.00802,0.0132 0.013509,0.0242 0.024356,0.0459 0.010847,0.0217 0.0271,0.0542 0.043352,0.0867 0.016252,0.0325 0.032504,0.065 0.043292,0.0866 0.010788,0.0216 0.016272,0.0325 0.02462,0.0439 0.00835,0.0113 0.019266,0.0222 0.029837,0.038 0.010571,0.0157 0.021419,0.0374 0.02987,0.0515 0.00845,0.0141 0.01367,0.0193 0.021785,0.0274 0.00812,0.008 0.019033,0.019 0.026862,0.0293 0.00783,0.0102 0.013313,0.0212 0.018696,0.032 0.00538,0.0108 0.010868,0.0217 0.016251,0.0325 0.00538,0.0108 0.010868,0.0217 0.019215,0.0331 0.00835,0.0113 0.019266,0.0222 0.027094,0.0325 0.00783,0.0102 0.013314,0.0212 0.01905,0.0299 0.00574,0.009 0.010939,0.0139 0.016476,0.0195 0.00554,0.006 0.010756,0.0107 0.016259,0.0162 0.0055,0.005 0.010706,0.0107 0.015877,0.0183 0.00517,0.008 0.010656,0.0186 0.016405,0.0273 0.00575,0.009 0.010967,0.0139 0.016471,0.0194 0.0055,0.005 0.010706,0.0107 0.016243,0.0163 0.00554,0.006 0.010756,0.0107 0.016259,0.0162 0.0055,0.006 0.010706,0.0107 0.019458,0.0165 0.00875,0.006 0.019413,0.0111 0.029556,0.0214 0.010143,0.0103 0.020993,0.0266 0.029383,0.0378 0.00839,0.0112 0.013609,0.0164 0.023094,0.0191 0.00949,0.003 0.020319,0.003 0.032534,0.0109 0.012215,0.008 0.028484,0.0244 0.040637,0.0325 0.012153,0.008 0.017574,0.008 0.016791,-0.002 -7.829e-4,-0.0102 -0.0047,-0.0286 -0.00819,-0.0449"
       id="path1448"
       inkscape:connector-curvature="0"
       inkscape:path-effect="#path-effect1450;#path-effect1452"
       inkscape:original-d="m 3.6242066,291.06799 c 0.029733,0.003 0.056819,0.008 0.08126,0.0163 0.013481,0.003 0.024315,0.008 0.032504,0.0162 0.018897,0.003 0.03515,0.008 0.048756,0.0163 0.00806,0.003 0.013481,0.008 0.016251,0.0163 0.00806,0.003 0.013481,0.008 0.016251,0.0163 0.00806,0.003 0.013481,0.008 0.016251,0.0162 0.00806,-0.003 0.013481,-0.003 0.016253,0 0.018897,0.008 0.03515,0.019 0.048756,0.0325 0.018897,0.008 0.03515,0.019 0.048756,0.0325 0.013481,0.019 0.024315,0.0407 0.032504,0.065 0.013481,0.008 0.024315,0.019 0.032504,0.0325 0.00806,0.008 0.013481,0.019 0.016253,0.0325 0.00806,0.008 0.013481,0.019 0.016251,0.0325 0.00806,0.008 0.013481,0.019 0.016251,0.0325 0.013481,0.008 0.024315,0.019 0.032504,0.0325 0.00806,0.0136 0.013481,0.0299 0.016253,0.0488 0.00806,0.008 0.013481,0.019 0.016251,0.0325 0.00806,0.0136 0.013481,0.0299 0.016253,0.0488 0.013481,0.008 0.024315,0.019 0.032504,0.0325 0.00806,0.0136 0.013481,0.0299 0.016251,0.0488 0.00806,0.008 0.013481,0.019 0.016251,0.0325 0.00806,0.0136 0.013481,0.0299 0.016251,0.0488 0.00806,0.008 0.013481,0.019 0.016251,0.0325 0.00806,0.0136 0.013481,0.0299 0.016251,0.0488 0.00806,0.008 0.013481,0.019 0.016251,0.0325 0.00806,0.008 0.013481,0.019 0.016251,0.0325 0.00806,0.008 0.013481,0.019 0.016251,0.0325 0.00265,0.003 0.00265,0.008 0,0.0162 0.00806,0.0136 0.013481,0.0299 0.016251,0.0488 0.00806,0.008 0.013481,0.019 0.016251,0.0325 0.00806,0.0136 0.013481,0.0299 0.016251,0.0488 0.00806,0.008 0.013481,0.019 0.016253,0.0325 0.00806,0.0136 0.013481,0.0299 0.016251,0.0488 0.00806,0.008 0.013481,0.019 0.016251,0.0325 0.00806,0.0136 0.013481,0.0299 0.016251,0.0488 0.00806,0.0136 0.013481,0.0299 0.016251,0.0487 0.00806,0.0136 0.013481,0.0299 0.016251,0.0488 0.018899,0.0244 0.03515,0.0515 0.048756,0.0813 0.00806,0.0136 0.013481,0.0299 0.016253,0.0488 0.00806,0.008 0.013481,0.019 0.016251,0.0325 0.00806,0.008 0.013481,0.019 0.016251,0.0325 0.013481,0.0136 0.024315,0.0299 0.032504,0.0488 0.00806,0.0136 0.013481,0.0299 0.016251,0.0488 0.024315,0.0299 0.045985,0.0624 0.065008,0.0975 0.013481,0.0244 0.024315,0.0515 0.032504,0.0813 0.00806,0.0136 0.013481,0.0299 0.016251,0.0488 0.024315,0.0244 0.045985,0.0515 0.065008,0.0813 0.00806,0.0136 0.013481,0.0299 0.016251,0.0488 0.00806,0.008 0.013481,0.019 0.016251,0.0325 0.00806,0.0136 0.013481,0.0299 0.016251,0.0487 0.013481,0.0136 0.024315,0.0299 0.032504,0.0488 0.00806,0.0136 0.013481,0.0299 0.016251,0.0487 0.013481,0.0136 0.024315,0.0299 0.032504,0.0488 0.00806,0.0136 0.013481,0.0299 0.016251,0.0488 0.018899,0.019 0.03515,0.0407 0.048756,0.065 0.013481,0.0136 0.024315,0.0299 0.032504,0.0488 0.013481,0.0136 0.024315,0.0299 0.032504,0.0488 0.00806,0.008 0.013481,0.019 0.016251,0.0325 0.013481,0.0136 0.024315,0.0299 0.032504,0.0488 0.00806,0.008 0.013481,0.019 0.016251,0.0325 0.018896,0.0299 0.03515,0.0624 0.048756,0.0975 0.018899,0.0299 0.03515,0.0624 0.048756,0.0975 0.00806,0.008 0.013481,0.019 0.016251,0.0325 0.013481,0.008 0.024315,0.019 0.032504,0.0325 0.013481,0.019 0.024315,0.0407 0.032504,0.065 0.00806,0.003 0.013481,0.008 0.016251,0.0162 0.013481,0.008 0.024315,0.019 0.032504,0.0325 0.00806,0.008 0.013481,0.019 0.016251,0.0325 0.00806,0.008 0.013481,0.019 0.016251,0.0325 0.00806,0.008 0.013481,0.019 0.016251,0.0325 0.013481,0.008 0.024315,0.019 0.032504,0.0325 0.00806,0.008 0.013481,0.019 0.016253,0.0325 0.00806,0.003 0.013481,0.008 0.016251,0.0163 0.00806,0.003 0.013481,0.008 0.016251,0.0162 0.00806,0.003 0.013481,0.008 0.016251,0.0163 0.00806,0.008 0.013481,0.019 0.016251,0.0325 0.00806,0.003 0.013481,0.008 0.016251,0.0162 0.00806,0.003 0.013481,0.008 0.016251,0.0163 0.00806,0.003 0.013481,0.008 0.016251,0.0162 0.00806,0.003 0.013481,0.008 0.016251,0.0163 0.013481,0.003 0.024315,0.008 0.032504,0.0163 0.013481,0.0136 0.024315,0.0299 0.032504,0.0488 0.00806,0.003 0.013481,0.008 0.016251,0.0162 0.013481,-0.003 0.024315,-0.003 0.032504,0 0.018897,0.0136 0.03515,0.0299 0.048756,0.0488 0.00806,-0.003 0.013481,-0.003 0.016251,0 -0.00127,-0.021 -0.00518,-0.0394 -0.011742,-0.0551" />
    <path
       style="fill:#008000;fill-rule:nonzero;stroke:none;stroke-width:0.26458332px;stroke-linecap:butt;stroke-linejoin:miter;stroke-opacity:1"
       d="m 5.0381347,289.73532 c 0.010341,0.0362 0.02117,0.0741 0.029283,0.10126 0.00811,0.0272 0.013551,0.0435 0.018919,0.0571 0.00537,0.0137 0.010852,0.0247 0.01627,0.0379 0.00542,0.0133 0.010845,0.0296 0.016257,0.0458 0.00541,0.0162 0.010839,0.0325 0.01897,0.0569 0.00813,0.0244 0.018965,0.0569 0.027081,0.0813 0.00812,0.0243 0.013544,0.0406 0.021664,0.0599 0.00812,0.0192 0.018968,0.0409 0.02712,0.0622 0.00815,0.0212 0.013577,0.0429 0.021726,0.0625 0.00815,0.0196 0.018999,0.0359 0.029789,0.0624 0.010789,0.0265 0.021619,0.0644 0.029726,0.0916 0.00811,0.0272 0.013534,0.0435 0.018946,0.0597 0.00541,0.0163 0.010839,0.0326 0.016256,0.0488 0.00542,0.0162 0.010824,0.0324 0.0138,0.0454 0.00298,0.0129 0.00298,0.0239 0.00542,0.038 0.00245,0.0141 0.00788,0.0304 0.010844,0.0487 0.00296,0.0184 0.00296,0.0401 0.0054,0.0596 0.00244,0.0195 0.00787,0.0358 0.010839,0.0462 0.00297,0.0104 0.00297,0.0154 0.00297,0.0264 0,0.0109 0,0.0272 0.00244,0.044 0.00244,0.0167 0.00787,0.033 0.01328,0.0493 0.00541,0.0163 0.010839,0.0326 0.016256,0.0488 0.00542,0.0163 0.010855,0.0325 0.013817,0.0454 0.00296,0.0129 0.00296,0.0239 0.00546,0.0431 0.0025,0.0192 0.00792,0.0463 0.010834,0.065 0.00292,0.0186 0.00292,0.0296 0.00542,0.0488 0.0025,0.0192 0.00792,0.0464 0.010834,0.065 0.00292,0.0186 0.00292,0.0296 0.00808,0.0518 0.00516,0.0222 0.015994,0.0547 0.021669,0.0732 0.00568,0.0185 0.00568,0.0235 0.00568,0.0317 0,0.008 0,0.0191 0.00241,0.0307 0.00241,0.0116 0.00789,0.0225 0.010868,0.03 0.00298,0.007 0.00298,0.0125 0.00298,0.0181 0,0.006 0,0.0106 0,0.0216 0,0.011 0,0.0273 0,0.0652 0,0.0379 0,0.0974 0,0.13256 0,0.0351 0,0.0461 0,0.0569 0,0.0107 0,0.0217 0.00244,0.0358 0.00244,0.0141 0.00787,0.0304 0.010839,0.0408 0.00297,0.0104 0.00297,0.0154 0.00297,0.0235 0,0.008 0,0.0191 0,0.0353 0,0.0163 0,0.038 0,0.084 0,0.046 0,0.11645 0,0.24376 0,0.12731 0,0.3115 0,0.43612 0,0.12461 0,0.18958 0,0.23291 0,0.0433 0,0.065 0,0.0867 0,0.0217 0,0.0434 0.00247,0.0654 0.00247,0.022 0.0079,0.0437 0.010838,0.057 0.00294,0.0133 0.00294,0.0183 0.00538,0.0297 0.00244,0.0115 0.00787,0.0278 0.010839,0.0407 0.00297,0.0129 0.00297,0.0239 0.00297,0.0375 0,0.0136 0,0.0299 0,0.0433 0,0.0134 0,0.0245 0.00244,0.0385 0.00244,0.0141 0.00787,0.0304 0.010839,0.0408 0.00297,0.0104 0.00297,0.0154 0.00297,0.0236 0,0.008 0,0.0192 0.00247,0.0358 0.00247,0.0166 0.0079,0.0383 0.010838,0.0516 0.00294,0.0133 0.00294,0.0183 0.00294,0.0292 0,0.0109 0,0.0272 0,0.0381 0,0.011 0,0.016 0.00241,0.0249 0.00241,0.009 0.00789,0.0199 0.010868,0.0299 0.00298,0.01 0.00298,0.021 0.00542,0.035 0.00244,0.0141 0.00787,0.0304 0.010839,0.0408 0.00297,0.0104 0.00297,0.0154 0.00297,0.021 0,0.006 0,0.0106 0.035874,0.036 0.035874,0.0254 0.1068068,0.0675 0.1769422,0.10919"
       id="path1454"
       inkscape:connector-curvature="0"
       inkscape:path-effect="#path-effect1456;#path-effect1458"
       inkscape:original-d="m 5.0381347,289.73532 c 0.013481,0.0353 0.024315,0.0732 0.032504,0.11377 0.00806,0.0136 0.013481,0.0299 0.016253,0.0487 0.00806,0.008 0.013481,0.019 0.016251,0.0325 0.00806,0.0136 0.013481,0.0299 0.016251,0.0488 0.00806,0.0136 0.013481,0.0299 0.016251,0.0488 0.013481,0.0299 0.024315,0.0624 0.032504,0.0975 0.00806,0.0136 0.013481,0.0299 0.016253,0.0488 0.013481,0.019 0.024315,0.0407 0.032504,0.065 0.00806,0.019 0.013481,0.0407 0.016251,0.065 0.013481,0.0136 0.024315,0.0299 0.032504,0.0488 0.013481,0.0353 0.024315,0.0732 0.032504,0.11376 0.00806,0.0136 0.013481,0.0299 0.016251,0.0488 0.00806,0.0136 0.013481,0.0299 0.016251,0.0488 0.00806,0.0136 0.013481,0.0298 0.016251,0.0487 0.00265,0.008 0.00265,0.019 0,0.0325 0.00806,0.0136 0.013481,0.0299 0.016251,0.0487 0.00265,0.019 0.00265,0.0407 0,0.065 0.00806,0.0136 0.013481,0.0299 0.016251,0.0488 0.00265,0.003 0.00265,0.008 0,0.0163 0.00265,0.0136 0.00265,0.0299 0,0.0487 0.00806,0.0136 0.013481,0.0299 0.016251,0.0488 0.00806,0.0136 0.013481,0.0299 0.016251,0.0488 0.00806,0.0136 0.013481,0.0299 0.016253,0.0487 0.00265,0.008 0.00265,0.019 0,0.0325 0.00806,0.0244 0.013481,0.0515 0.016251,0.0813 0.00265,0.008 0.00265,0.019 0,0.0325 0.00806,0.0244 0.013481,0.0515 0.016251,0.0813 0.00265,0.008 0.00265,0.019 0,0.0325 0.013481,0.0299 0.024315,0.0624 0.032504,0.0975 0.00265,0.003 0.00265,0.008 0,0.0163 0.00265,0.008 0.00265,0.019 0,0.0325 0.00806,0.008 0.013481,0.019 0.016251,0.0325 0.00265,0.003 0.00265,0.008 0,0.0163 0.00265,0.003 0.00265,0.008 0,0.0163 0.00265,0.0136 0.00265,0.0299 0,0.0487 0.00265,0.057 0.00265,0.11654 0,0.17878 0.00265,0.008 0.00265,0.019 0,0.0325 0.00265,0.008 0.00265,0.019 0,0.0325 0.00806,0.0136 0.013481,0.0299 0.016251,0.0488 0.00265,0.003 0.00265,0.008 0,0.0162 0.00265,0.008 0.00265,0.019 0,0.0325 0.00265,0.019 0.00265,0.0407 0,0.065 0.00265,0.0678 0.00265,0.1382 0,0.21127 0.00265,0.18155 0.00265,0.36574 0,0.55257 0.00265,0.0624 0.00265,0.12737 0,0.19503 0.00265,0.019 0.00265,0.0407 0,0.065 0.00265,0.019 0.00265,0.0407 0,0.065 0.00806,0.019 0.013481,0.0407 0.016251,0.065 0.00265,0.003 0.00265,0.008 0,0.0163 0.00806,0.0136 0.013481,0.0299 0.016251,0.0488 0.00265,0.008 0.00265,0.019 0,0.0325 0.00265,0.0136 0.00265,0.0299 0,0.0488 0.00265,0.008 0.00265,0.019 0,0.0325 0.00806,0.0136 0.013481,0.0299 0.016251,0.0488 0.00265,0.003 0.00265,0.008 0,0.0163 0.00265,0.008 0.00265,0.019 0,0.0325 0.00806,0.019 0.013481,0.0407 0.016251,0.065 0.00265,0.003 0.00265,0.008 0,0.0162 0.00265,0.0136 0.00265,0.0299 0,0.0488 0.00265,0.003 0.00265,0.008 0,0.0163 0.00806,0.008 0.013481,0.019 0.016251,0.0325 0.00265,0.008 0.00265,0.019 0,0.0325 0.00806,0.0136 0.013481,0.0299 0.016251,0.0488 0.00265,0.003 0.00265,0.008 0,0.0162 0.00265,0.003 0.00265,0.008 0,0.0163 0.073585,0.0395 0.1445234,0.0816 0.2128163,0.12634" />
    <path
       style="fill:#008000;fill-rule:nonzero;stroke:none;stroke-width:0.26458332px;stroke-linecap:butt;stroke-linejoin:miter;stroke-opacity:1"
       d="m 8.5485768,292.48192 c -0.024172,0.0193 -0.051276,0.041 -0.070141,0.055 -0.018865,0.0139 -0.029525,0.0193 -0.040622,0.0269 -0.011097,0.008 -0.022014,0.0185 -0.040743,0.0324 -0.018728,0.0139 -0.045829,0.0302 -0.070432,0.0488 -0.024603,0.0186 -0.046289,0.0402 -0.062317,0.0543 -0.016028,0.0141 -0.026688,0.0194 -0.037616,0.0249 -0.010928,0.005 -0.021601,0.0108 -0.030514,0.0181 -0.00891,0.007 -0.014398,0.0182 -0.021777,0.0272 -0.00738,0.009 -0.01804,0.0143 -0.029136,0.0219 -0.011096,0.008 -0.022014,0.0185 -0.038266,0.0347 -0.016252,0.0163 -0.037938,0.0379 -0.05414,0.0541 -0.016202,0.0162 -0.02712,0.0271 -0.040421,0.0382 -0.013301,0.0111 -0.029631,0.022 -0.043684,0.035 -0.014053,0.013 -0.024903,0.0293 -0.03789,0.0433 -0.012987,0.014 -0.029317,0.0249 -0.048659,0.0435 -0.019342,0.0185 -0.040963,0.0456 -0.056845,0.0625 -0.015882,0.017 -0.026543,0.0223 -0.037465,0.0278 -0.010922,0.005 -0.021582,0.0108 -0.030508,0.0181 -0.00893,0.007 -0.01441,0.0183 -0.021789,0.0272 -0.00738,0.009 -0.01804,0.0143 -0.028962,0.0198 -0.010922,0.005 -0.021581,0.0108 -0.030075,0.0158 -0.00849,0.005 -0.013712,0.0102 -0.021832,0.0183 -0.00812,0.008 -0.019037,0.019 -0.029656,0.0277 -0.010619,0.009 -0.021279,0.014 -0.037834,0.0271 -0.016555,0.013 -0.038241,0.0347 -0.062386,0.0541 -0.024144,0.0193 -0.051216,0.0356 -0.07553,0.0492 -0.024314,0.0137 -0.04605,0.0245 -0.062524,0.0348 -0.016474,0.0103 -0.027392,0.0212 -0.038185,0.032 -0.010793,0.0108 -0.021711,0.0217 -0.032504,0.0325 -0.010793,0.0108 -0.02171,0.0217 -0.032329,0.0304 -0.010619,0.009 -0.021279,0.014 -0.037834,0.0271 -0.016555,0.013 -0.038241,0.0347 -0.054269,0.0488 -0.016028,0.0141 -0.026687,0.0194 -0.03761,0.0249 -0.010922,0.005 -0.021583,0.0108 -0.030508,0.0181 -0.00893,0.007 -0.01441,0.0183 -0.021789,0.0272 -0.00738,0.009 -0.01804,0.0143 -0.028962,0.0198 -0.010922,0.005 -0.021582,0.0108 -0.032504,0.0163 -0.010922,0.005 -0.021582,0.0108 -0.030508,0.0181 -0.00893,0.007 -0.01441,0.0183 -0.027264,0.0323 -0.012855,0.014 -0.03454,0.0303 -0.050901,0.0436 -0.016361,0.0133 -0.027278,0.0242 -0.037902,0.0329 -0.010625,0.009 -0.021299,0.014 -0.032208,0.0195 -0.010909,0.005 -0.021569,0.0108 -0.032491,0.0163 -0.010922,0.005 -0.021583,0.0108 -0.038138,0.0239 -0.016555,0.013 -0.038241,0.0347 -0.054269,0.0488 -0.016028,0.0141 -0.026688,0.0194 -0.040293,0.0274 -0.013604,0.008 -0.029934,0.0188 -0.043464,0.0272 -0.013531,0.008 -0.02419,0.0137 -0.035112,0.0192 -0.010922,0.005 -0.021583,0.0108 -0.03251,0.0163 -0.010928,0.005 -0.021601,0.0108 -0.030078,0.0157 -0.00848,0.005 -0.013678,0.0102 -0.019203,0.0157 -0.00552,0.006 -0.010726,0.0108 -0.016251,0.0163 -0.00552,0.006 -0.010727,0.0108 -0.018684,0.0168 -0.00796,0.006 -0.018618,0.0114 -0.029545,0.0169 -0.010928,0.005 -0.021602,0.0108 -0.032511,0.0162 -0.010909,0.005 -0.02157,0.0108 -0.030058,0.0158 -0.00849,0.005 -0.013691,0.0102 -0.019652,0.018 -0.00596,0.008 -0.011445,0.0188 -0.018825,0.0278 -0.00738,0.009 -0.018039,0.0143 -0.039748,0.0252 -0.021709,0.0109 -0.054227,0.0271 -0.075937,0.038 -0.02171,0.0109 -0.03237,0.0162 -0.040859,0.0212 -0.00849,0.005 -0.013691,0.0102 -0.021649,0.0162 -0.00796,0.006 -0.018618,0.0114 -0.029546,0.0168 -0.010928,0.005 -0.021602,0.0108 -0.032686,0.0183 -0.011083,0.008 -0.022001,0.0185 -0.035316,0.0274 -0.013315,0.009 -0.029438,0.0143 -0.045754,0.0198 -0.016317,0.005 -0.032439,0.0108 -0.048757,0.0163 -0.016318,0.005 -0.032438,0.0108 -0.046064,0.016 -0.013626,0.005 -0.024301,0.0105 -0.032777,0.0155 -0.00848,0.005 -0.013678,0.0102 -2.714e-4,-0.0102 0.013406,-0.0203 0.046261,-0.0662 0.076979,-0.10915"
       id="path1460"
       inkscape:connector-curvature="0"
       inkscape:path-effect="#path-effect1462;#path-effect1464"
       inkscape:original-d="m 8.5485768,292.48192 c -0.02444,0.019 -0.051528,0.0407 -0.08126,0.065 -0.00819,0.003 -0.019023,0.008 -0.032504,0.0163 -0.00819,0.008 -0.019024,0.019 -0.032504,0.0325 -0.024442,0.0136 -0.051528,0.0299 -0.08126,0.0488 -0.019024,0.019 -0.040693,0.0407 -0.065008,0.065 -0.00819,0.003 -0.019024,0.008 -0.032504,0.0163 -0.00819,0.003 -0.019023,0.008 -0.032504,0.0162 -0.00277,0.008 -0.00819,0.019 -0.016251,0.0325 -0.00819,0.003 -0.019024,0.008 -0.032504,0.0163 -0.00819,0.008 -0.019024,0.019 -0.032504,0.0325 -0.019024,0.019 -0.040693,0.0407 -0.065008,0.065 -0.00819,0.008 -0.019024,0.019 -0.032504,0.0325 -0.013605,0.008 -0.029858,0.019 -0.048756,0.0325 -0.00819,0.0136 -0.019024,0.0299 -0.032504,0.0488 -0.013605,0.008 -0.029858,0.019 -0.048756,0.0325 -0.019024,0.0245 -0.040693,0.0515 -0.065008,0.0813 -0.00819,0.003 -0.019024,0.008 -0.032504,0.0163 -0.00819,0.003 -0.019024,0.008 -0.032504,0.0163 -0.00277,0.008 -0.00819,0.019 -0.016251,0.0325 -0.00819,0.003 -0.019024,0.008 -0.032504,0.0163 -0.00819,0.003 -0.019023,0.008 -0.032504,0.0163 -0.00277,0.003 -0.00819,0.008 -0.016251,0.0162 -0.00819,0.008 -0.019024,0.019 -0.032504,0.0325 -0.00819,0.003 -0.019024,0.008 -0.032504,0.0163 -0.019023,0.019 -0.040693,0.0407 -0.065008,0.065 -0.024442,0.0136 -0.051528,0.0298 -0.08126,0.0487 -0.019024,0.008 -0.040693,0.019 -0.065008,0.0325 -0.00819,0.008 -0.019024,0.019 -0.032504,0.0325 -0.00819,0.008 -0.019024,0.019 -0.032504,0.0325 -0.00819,0.008 -0.019023,0.019 -0.032504,0.0325 -0.00819,0.003 -0.019024,0.008 -0.032504,0.0163 -0.019024,0.019 -0.040693,0.0407 -0.065008,0.065 -0.00819,0.003 -0.019023,0.008 -0.032504,0.0163 -0.00819,0.003 -0.019024,0.008 -0.032504,0.0163 -0.00277,0.008 -0.00819,0.019 -0.016251,0.0325 -0.00819,0.003 -0.019024,0.008 -0.032504,0.0163 -0.00819,0.003 -0.019024,0.008 -0.032504,0.0163 -0.00819,0.003 -0.019024,0.008 -0.032504,0.0163 -0.00277,0.008 -0.00819,0.019 -0.016251,0.0325 -0.019023,0.0136 -0.040693,0.0299 -0.065008,0.0488 -0.00819,0.008 -0.019023,0.019 -0.032504,0.0325 -0.00819,0.003 -0.019024,0.008 -0.032504,0.0162 -0.00819,0.003 -0.019023,0.008 -0.032504,0.0163 -0.00819,0.003 -0.019024,0.008 -0.032504,0.0163 -0.019024,0.019 -0.040693,0.0407 -0.065008,0.065 -0.00819,0.003 -0.019024,0.008 -0.032504,0.0163 -0.013605,0.008 -0.029858,0.019 -0.048756,0.0325 -0.00819,0.003 -0.019023,0.008 -0.032504,0.0163 -0.00819,0.003 -0.019024,0.008 -0.032504,0.0163 -0.00819,0.003 -0.019023,0.008 -0.032504,0.0162 -0.00277,0.003 -0.00819,0.008 -0.016251,0.0163 -0.00277,0.003 -0.00819,0.008 -0.016251,0.0163 -0.00277,0.003 -0.00819,0.008 -0.016251,0.0163 -0.00819,0.003 -0.019024,0.008 -0.032504,0.0163 -0.00819,0.003 -0.019024,0.008 -0.032504,0.0162 -0.00819,0.003 -0.019024,0.008 -0.032504,0.0163 -0.00277,0.003 -0.00819,0.008 -0.016251,0.0163 -0.00277,0.008 -0.00819,0.019 -0.016251,0.0325 -0.00819,0.003 -0.019023,0.008 -0.032504,0.0163 -0.029858,0.0136 -0.062362,0.0299 -0.097512,0.0488 -0.00819,0.003 -0.019023,0.008 -0.032504,0.0163 -0.00277,0.003 -0.00819,0.008 -0.016251,0.0163 -0.00819,0.003 -0.019024,0.008 -0.032504,0.0163 -0.00819,0.003 -0.019024,0.008 -0.032504,0.0162 -0.00819,0.008 -0.019024,0.019 -0.032504,0.0325 -0.013605,0.003 -0.029858,0.008 -0.048756,0.0163 -0.013605,0.003 -0.029858,0.008 -0.048756,0.0163 -0.013607,0.003 -0.029858,0.008 -0.048756,0.0163 -0.00819,0.003 -0.019024,0.008 -0.032504,0.0162 -0.00277,0.003 -0.00819,0.008 -0.016251,0.0163 0.035497,-0.0485 0.068348,-0.0944 0.098554,-0.13768" />
  </g>
</svg>
