<?xml version="1.0" encoding="UTF-8" standalone="no"?>
<!-- Created with Inkscape (http://www.inkscape.org/) -->

<svg
   xmlns:dc="http://purl.org/dc/elements/1.1/"
   xmlns:cc="http://creativecommons.org/ns#"
   xmlns:rdf="http://www.w3.org/1999/02/22-rdf-syntax-ns#"
   xmlns:svg="http://www.w3.org/2000/svg"
   xmlns="http://www.w3.org/2000/svg"
   xmlns:sodipodi="http://sodipodi.sourceforge.net/DTD/sodipodi-0.dtd"
   xmlns:inkscape="http://www.inkscape.org/namespaces/inkscape"
   width="50"
   height="50"
   viewBox="0 0 13.229167 13.229167"
   version="1.1"
   id="svg8"
   inkscape:version="0.92.5 (2060ec1f9f, 2020-04-08)"
   sodipodi:docname="oat.svg">
  <defs
     id="defs2">
    <inkscape:path-effect
       effect="powerstroke"
       id="path-effect1687"
       is_visible="true"
       offset_points="0,0.13229166"
       sort_points="true"
       interpolator_type="CubicBezierJohan"
       interpolator_beta="0.2"
       start_linecap_type="zerowidth"
       linejoin_type="extrp_arc"
       miter_limit="4"
       end_linecap_type="zerowidth" />
    <inkscape:path-effect
       effect="bspline"
       id="path-effect1685"
       is_visible="true"
       weight="33.333333"
       steps="2"
       helper_size="0"
       apply_no_weight="true"
       apply_with_weight="true"
       only_selected="false" />
    <inkscape:path-effect
       effect="simplify"
       id="path-effect1683"
       is_visible="true"
       steps="1"
       threshold="0.00645161"
       smooth_angles="360"
       helper_size="0"
       simplify_individual_paths="false"
       simplify_just_coalesce="false"
       simplifyindividualpaths="false"
       simplifyJustCoalesce="false" />
    <inkscape:path-effect
       effect="powerstroke"
       id="path-effect1679"
       is_visible="true"
       offset_points="0,0.13229166"
       sort_points="true"
       interpolator_type="CubicBezierJohan"
       interpolator_beta="0.2"
       start_linecap_type="zerowidth"
       linejoin_type="extrp_arc"
       miter_limit="4"
       end_linecap_type="zerowidth" />
    <inkscape:path-effect
       effect="bspline"
       id="path-effect1677"
       is_visible="true"
       weight="33.333333"
       steps="2"
       helper_size="0"
       apply_no_weight="true"
       apply_with_weight="true"
       only_selected="false" />
    <inkscape:path-effect
       effect="simplify"
       id="path-effect1675"
       is_visible="true"
       steps="1"
       threshold="0.00645161"
       smooth_angles="360"
       helper_size="0"
       simplify_individual_paths="false"
       simplify_just_coalesce="false"
       simplifyindividualpaths="false"
       simplifyJustCoalesce="false" />
    <inkscape:path-effect
       effect="powerstroke"
       id="path-effect1626"
       is_visible="true"
       offset_points="0,0.13229166"
       sort_points="true"
       interpolator_type="CubicBezierJohan"
       interpolator_beta="0.2"
       start_linecap_type="zerowidth"
       linejoin_type="extrp_arc"
       miter_limit="4"
       end_linecap_type="zerowidth" />
    <inkscape:path-effect
       effect="bspline"
       id="path-effect1624"
       is_visible="true"
       weight="33.333333"
       steps="2"
       helper_size="0"
       apply_no_weight="true"
       apply_with_weight="true"
       only_selected="false" />
    <inkscape:path-effect
       effect="simplify"
       id="path-effect1622"
       is_visible="true"
       steps="1"
       threshold="0.00645161"
       smooth_angles="360"
       helper_size="0"
       simplify_individual_paths="false"
       simplify_just_coalesce="false"
       simplifyindividualpaths="false"
       simplifyJustCoalesce="false" />
    <inkscape:path-effect
       effect="powerstroke"
       id="path-effect1617"
       is_visible="true"
       offset_points="0,0.13229166"
       sort_points="true"
       interpolator_type="CubicBezierJohan"
       interpolator_beta="0.2"
       start_linecap_type="zerowidth"
       linejoin_type="extrp_arc"
       miter_limit="4"
       end_linecap_type="zerowidth" />
    <inkscape:path-effect
       effect="bspline"
       id="path-effect1615"
       is_visible="true"
       weight="33.333333"
       steps="2"
       helper_size="0"
       apply_no_weight="true"
       apply_with_weight="true"
       only_selected="false" />
    <inkscape:path-effect
       effect="simplify"
       id="path-effect1613"
       is_visible="true"
       steps="1"
       threshold="0.00645161"
       smooth_angles="360"
       helper_size="0"
       simplify_individual_paths="false"
       simplify_just_coalesce="false"
       simplifyindividualpaths="false"
       simplifyJustCoalesce="false" />
    <inkscape:path-effect
       effect="powerstroke"
       id="path-effect1609"
       is_visible="true"
       offset_points="0,0.13229166"
       sort_points="true"
       interpolator_type="CubicBezierJohan"
       interpolator_beta="0.2"
       start_linecap_type="zerowidth"
       linejoin_type="extrp_arc"
       miter_limit="4"
       end_linecap_type="zerowidth" />
    <inkscape:path-effect
       effect="bspline"
       id="path-effect1607"
       is_visible="true"
       weight="33.333333"
       steps="2"
       helper_size="0"
       apply_no_weight="true"
       apply_with_weight="true"
       only_selected="false" />
    <inkscape:path-effect
       effect="simplify"
       id="path-effect1605"
       is_visible="true"
       steps="1"
       threshold="0.00645161"
       smooth_angles="360"
       helper_size="0"
       simplify_individual_paths="false"
       simplify_just_coalesce="false"
       simplifyindividualpaths="false"
       simplifyJustCoalesce="false" />
    <inkscape:path-effect
       effect="powerstroke"
       id="path-effect1584"
       is_visible="true"
       offset_points="0,0.13229166"
       sort_points="true"
       interpolator_type="CubicBezierJohan"
       interpolator_beta="0.2"
       start_linecap_type="zerowidth"
       linejoin_type="extrp_arc"
       miter_limit="4"
       end_linecap_type="zerowidth" />
    <inkscape:path-effect
       effect="bspline"
       id="path-effect1582"
       is_visible="true"
       weight="33.333333"
       steps="2"
       helper_size="0"
       apply_no_weight="true"
       apply_with_weight="true"
       only_selected="false" />
    <inkscape:path-effect
       effect="simplify"
       id="path-effect1580"
       is_visible="true"
       steps="1"
       threshold="0.00645161"
       smooth_angles="360"
       helper_size="0"
       simplify_individual_paths="false"
       simplify_just_coalesce="false"
       simplifyindividualpaths="false"
       simplifyJustCoalesce="false" />
    <inkscape:path-effect
       effect="powerstroke"
       id="path-effect1576"
       is_visible="true"
       offset_points="0,0.13229166"
       sort_points="true"
       interpolator_type="CubicBezierJohan"
       interpolator_beta="0.2"
       start_linecap_type="zerowidth"
       linejoin_type="extrp_arc"
       miter_limit="4"
       end_linecap_type="zerowidth" />
    <inkscape:path-effect
       effect="bspline"
       id="path-effect1574"
       is_visible="true"
       weight="33.333333"
       steps="2"
       helper_size="0"
       apply_no_weight="true"
       apply_with_weight="true"
       only_selected="false" />
    <inkscape:path-effect
       effect="simplify"
       id="path-effect1572"
       is_visible="true"
       steps="1"
       threshold="0.00645161"
       smooth_angles="360"
       helper_size="0"
       simplify_individual_paths="false"
       simplify_just_coalesce="false"
       simplifyindividualpaths="false"
       simplifyJustCoalesce="false" />
    <inkscape:path-effect
       effect="powerstroke"
       id="path-effect1567"
       is_visible="true"
       offset_points="0,0.13229166"
       sort_points="true"
       interpolator_type="CubicBezierJohan"
       interpolator_beta="0.2"
       start_linecap_type="zerowidth"
       linejoin_type="extrp_arc"
       miter_limit="4"
       end_linecap_type="zerowidth" />
    <inkscape:path-effect
       effect="bspline"
       id="path-effect1565"
       is_visible="true"
       weight="33.333333"
       steps="2"
       helper_size="0"
       apply_no_weight="true"
       apply_with_weight="true"
       only_selected="false" />
    <inkscape:path-effect
       effect="simplify"
       id="path-effect1563"
       is_visible="true"
       steps="1"
       threshold="0.00645161"
       smooth_angles="360"
       helper_size="0"
       simplify_individual_paths="false"
       simplify_just_coalesce="false"
       simplifyindividualpaths="false"
       simplifyJustCoalesce="false" />
  </defs>
  <sodipodi:namedview
     id="base"
     pagecolor="#ffffff"
     bordercolor="#666666"
     borderopacity="1.0"
     inkscape:pageopacity="0.0"
     inkscape:pageshadow="2"
     inkscape:zoom="16.28"
     inkscape:cx="34.082107"
     inkscape:cy="24.969788"
     inkscape:document-units="mm"
     inkscape:current-layer="layer1"
     showgrid="false"
     inkscape:window-width="1920"
     inkscape:window-height="1053"
     inkscape:window-x="0"
     inkscape:window-y="0"
     inkscape:window-maximized="1"
     inkscape:measure-start="0,0"
     inkscape:measure-end="0,0"
     inkscape:snap-global="false"
     fit-margin-top="0"
     fit-margin-left="0"
     fit-margin-right="0"
     fit-margin-bottom="0"
     units="px"
     inkscape:snap-bbox="true" />
  <metadata
     id="metadata5">
    <rdf:RDF>
      <cc:Work
         rdf:about="">
        <dc:format>image/svg+xml</dc:format>
        <dc:type
           rdf:resource="http://purl.org/dc/dcmitype/StillImage" />
        <dc:title></dc:title>
      </cc:Work>
    </rdf:RDF>
  </metadata>
  <g
     inkscape:label="Layer 1"
     inkscape:groupmode="layer"
     id="layer1"
     transform="translate(-46.135593,-226.8854)">
    <path
       style="opacity:1;vector-effect:none;fill:#d3d3d3;fill-opacity:1;fill-rule:evenodd;stroke-width:0.26444444;stroke-linecap:butt;stroke-linejoin:miter;stroke-miterlimit:4;stroke-dasharray:none;stroke-dashoffset:0;stroke-opacity:1"
       d="m 46.135593,226.89928 h 3.949248 9.279919 v 13.21528 H 46.135593 Z"
       id="rect889"
       inkscape:connector-curvature="0"
       sodipodi:nodetypes="cccccc" />
    <g
       id="g1718"
       transform="matrix(1.68023,0,0,1.1511536,-33.007057,-36.184103)">
      <g
         id="g1747"
         transform="matrix(0.99204458,0.18374542,-0.08624732,0.99204458,20.640988,-7.5390836)">
        <path
           style="fill:#00ff00;fill-rule:nonzero;stroke:none;stroke-width:0.26458332px;stroke-linecap:butt;stroke-linejoin:miter;stroke-opacity:1"
           d="m 48.670912,239.38322 0.132256,-0.003 c -0.01095,-0.47087 -0.04609,-1.50065 -0.01232,-2.20095 0.0287,-0.59514 0.106188,-1.14074 0.286461,-1.80515 0.16591,-0.61147 0.422071,-1.34223 0.650921,-1.90288 0.22569,-0.55291 0.426061,-0.94136 0.644284,-1.33779 0.244739,-0.44459 0.503509,-0.88212 0.757185,-1.26111 0.158824,-0.23729 0.680394,-0.54221 1.187218,-0.72079 0.468307,-0.165 0.9264,-0.20787 1.018334,-0.32444 -0.08521,0.0339 -0.55883,0.077 -1.055593,0.26207 -0.517539,0.19284 -1.060202,0.53151 -1.214967,0.75066 -0.267091,0.37443 -0.496157,0.78373 -0.759702,1.22226 -0.233597,0.38869 -0.453134,0.80578 -0.698446,1.35724 -0.247693,0.55681 -0.524061,1.28922 -0.708711,1.90344 -0.202485,0.67355 -0.299107,1.23072 -0.342318,1.84248 -0.05174,0.73248 -0.02816,1.73508 -0.01685,2.22112 l 0.132256,-0.003 z"
           id="path1561"
           inkscape:connector-curvature="0"
           sodipodi:nodetypes="ccccsccscscccccccc" />
        <path
           style="fill:#00ff00;fill-rule:nonzero;stroke:none;stroke-width:0.26458332px;stroke-linecap:butt;stroke-linejoin:miter;stroke-opacity:1"
           d="m 49.694791,233.35371 0.09354,0.0935 c 0.07838,-0.0784 0.178447,-0.18293 0.290329,-0.29283 0.08641,-0.0849 0.181055,-0.17349 0.27076,-0.24311 0.157621,-0.12228 0.341398,-0.2182 0.518593,-0.27029 0.165846,-0.0487 0.339845,-0.0649 0.516,-0.065 0.08924,-9e-5 0.190162,0.006 0.275654,0.0132 0.04478,0.004 0.08544,0.008 0.119326,0.0126 0.03582,0.005 0.06294,0.009 0.08129,0.0127 0.04038,0.008 0.06496,0.019 0.0824,0.03 0.02184,0.0138 0.03543,0.0307 0.04364,0.043 -0.0087,-0.013 -0.01612,-0.0308 -0.03511,-0.0528 -0.01462,-0.017 -0.03747,-0.0369 -0.07881,-0.0561 -0.01929,-0.009 -0.04754,-0.0183 -0.08317,-0.028 -0.03411,-0.009 -0.07481,-0.0188 -0.119787,-0.0281 -0.08589,-0.0177 -0.187239,-0.0344 -0.27936,-0.0456 -0.178994,-0.0218 -0.368336,0.0525 -0.558486,0.0843 -0.205645,0.0345 -0.374654,0.17134 -0.56446,0.29514 -0.108299,0.0707 -0.233917,0.12863 -0.327533,0.2116 -0.116944,0.10365 -0.217462,0.21766 -0.289613,0.28981 l 0.04478,-0.004 z"
           id="path1578"
           inkscape:connector-curvature="0"
           sodipodi:nodetypes="cccccccccccccccccccccc" />
        <path
           style="fill:#00ff00;fill-rule:nonzero;stroke:none;stroke-width:0.26458332px;stroke-linecap:butt;stroke-linejoin:miter;stroke-opacity:1"
           d="m 48.930945,235.48273 c 0,0 0.09499,0.0921 0.09499,0.0921 0.116742,-0.12045 0.320033,-0.35209 0.552283,-0.57991 0.08989,-0.0882 0.181491,-0.17225 0.267162,-0.23964 0.08282,-0.0651 0.15486,-0.11054 0.213493,-0.13276 0.135612,-0.0493 0.298551,-0.065 0.465652,-0.0642 0.206788,9.9e-4 0.436667,0.0285 0.551686,0.0468 -0.127856,-0.0204 -0.32854,-0.0669 -0.547751,-0.0989 -0.164554,-0.024 -0.340927,-0.0382 -0.502068,-0.0119 -0.086,0.0147 -0.182132,0.0594 -0.279214,0.11818 -0.102273,0.0619 -0.209069,0.14158 -0.310333,0.22401 -0.246966,0.20104 -0.506756,0.45709 -0.600898,0.55422 0,0 0.09499,0.0921 0.09499,0.0921 z"
           id="path1603"
           inkscape:connector-curvature="0"
           inkscape:path-effect="#path-effect1605;#path-effect1607;#path-effect1609"
           inkscape:original-d="m 48.930945,235.48273 c 0.343939,-0.35477 0.685232,-0.7069 1.023879,-1.05638 0.376443,0.057 0.75024,0.11654 1.121391,0.17877" />
        <path
           style="fill:#00ff00;fill-rule:nonzero;stroke:none;stroke-width:0.26458332px;stroke-linecap:butt;stroke-linejoin:miter;stroke-opacity:1"
           d="m 49.060961,235.20645 0.07163,-0.0265 c 0.09206,-0.20207 0.209234,-0.43241 0.334608,-0.71639 0.08967,-0.20309 0.167031,-0.43023 0.240872,-0.58815 0.06648,-0.14226 0.158116,-0.31944 0.209284,-0.40093 0.02439,-0.0388 0.06196,0.0938 0.08048,0.0712 0.01891,-0.023 0.129182,0.25784 0.138262,0.24994 0.01162,-0.009 -0.06687,-0.30944 -0.04371,-0.31514 0.0233,-0.006 0.04954,-0.009 0.07588,-0.008 0.05554,0.001 0.106875,0.0168 0.139576,0.0481 0.04136,0.0407 0.08708,0.10675 0.128379,0.17346 0.05271,0.0851 0.153295,0.37671 0.184924,0.43997 -0.03363,-0.0673 -0.124116,-0.35481 -0.168661,-0.44882 -0.03304,-0.0697 -0.07026,-0.14529 -0.10394,-0.19735 -0.03548,-0.0537 -0.09807,-0.0884 -0.167028,-0.1056 -0.03276,-0.008 -0.06697,-0.0124 -0.09984,-0.0127 -0.03204,-2.9e-4 -0.194846,-0.0783 -0.224066,-0.0696 -0.03243,0.01 0.04929,0.19162 0.01823,0.21672 -0.03174,0.0256 -0.04823,-0.0224 -0.08188,0.0178 -0.07037,0.0839 -0.14627,0.19961 -0.22596,0.34143 -0.0879,0.15636 -0.1935,0.36523 -0.29142,0.56528 -0.126445,0.25833 -0.254138,0.53074 -0.336034,0.71052 l 0.120388,0.0548 z"
           id="path1611"
           inkscape:connector-curvature="0"
           sodipodi:nodetypes="cccccccccccccccccccccccc" />
        <g
           id="g1635"
           transform="matrix(0.95183008,-0.44755296,0.21007459,0.95183008,-49.944062,33.864004)">
          <path
             sodipodi:nodetypes="ccccc"
             inkscape:connector-curvature="0"
             id="path1628"
             d="m 54.244293,236.52279 c 0.04093,0.12824 -0.02523,0.8159 -0.110664,0.88774 -0.08543,0.0718 -0.162827,-0.4951 -0.222691,-0.60742 -0.05986,-0.11233 -0.05055,-0.27046 0.02163,-0.36718 0.07218,-0.0967 0.184142,-0.10111 0.259987,-0.0102"
             style="fill:#00ff00;fill-rule:evenodd;stroke-width:0.26458332" />
          <path
             style="fill:#00ff00;fill-rule:evenodd;stroke-width:0.26458332"
             d="m 54.163595,236.5758 c -0.01343,0.13395 -0.34753,0.73862 -0.454483,0.77057 -0.106934,0.0319 0.04743,-0.51902 0.03716,-0.64588 -0.01027,-0.12687 0.06114,-0.26827 0.165827,-0.32832 0.104676,-0.06 0.209162,-0.0196 0.242612,0.094"
             id="path1631"
             inkscape:connector-curvature="0"
             sodipodi:nodetypes="ccccc" />
        </g>
        <g
           transform="rotate(14.190562,67.593179,224.37486)"
           id="g1641">
          <path
             style="fill:#00ff00;fill-rule:evenodd;stroke-width:0.26458332"
             d="m 54.244293,236.52279 c 0.04093,0.12824 -0.02523,0.8159 -0.110664,0.88774 -0.08543,0.0718 -0.162827,-0.4951 -0.222691,-0.60742 -0.05986,-0.11233 -0.05055,-0.27046 0.02163,-0.36718 0.07218,-0.0967 0.184142,-0.10111 0.259987,-0.0102"
             id="path1637"
             inkscape:connector-curvature="0"
             sodipodi:nodetypes="ccccc" />
          <path
             sodipodi:nodetypes="ccccc"
             inkscape:connector-curvature="0"
             id="path1639"
             d="m 54.163595,236.5758 c -0.01343,0.13395 -0.34753,0.73862 -0.454483,0.77057 -0.106934,0.0319 0.04743,-0.51902 0.03716,-0.64588 -0.01027,-0.12687 0.06114,-0.26827 0.165827,-0.32832 0.104676,-0.06 0.209162,-0.0196 0.242612,0.094"
             style="fill:#00ff00;fill-rule:evenodd;stroke-width:0.26458332" />
        </g>
        <g
           id="g1647"
           transform="rotate(16.633939,60.893694,221.71896)">
          <path
             sodipodi:nodetypes="ccccc"
             inkscape:connector-curvature="0"
             id="path1643"
             d="m 54.244293,236.52279 c 0.04093,0.12824 -0.02523,0.8159 -0.110664,0.88774 -0.08543,0.0718 -0.162827,-0.4951 -0.222691,-0.60742 -0.05986,-0.11233 -0.05055,-0.27046 0.02163,-0.36718 0.07218,-0.0967 0.184142,-0.10111 0.259987,-0.0102"
             style="fill:#00ff00;fill-rule:evenodd;stroke-width:0.26458332" />
          <path
             style="fill:#00ff00;fill-rule:evenodd;stroke-width:0.26458332"
             d="m 54.163595,236.5758 c -0.01343,0.13395 -0.34753,0.73862 -0.454483,0.77057 -0.106934,0.0319 0.04743,-0.51902 0.03716,-0.64588 -0.01027,-0.12687 0.06114,-0.26827 0.165827,-0.32832 0.104676,-0.06 0.209162,-0.0196 0.242612,0.094"
             id="path1645"
             inkscape:connector-curvature="0"
             sodipodi:nodetypes="ccccc" />
        </g>
        <g
           transform="rotate(-18.982698,44.804794,245.94148)"
           id="g1653">
          <path
             style="fill:#00ff00;fill-rule:evenodd;stroke-width:0.26458332"
             d="m 54.244293,236.52279 c 0.04093,0.12824 -0.02523,0.8159 -0.110664,0.88774 -0.08543,0.0718 -0.162827,-0.4951 -0.222691,-0.60742 -0.05986,-0.11233 -0.05055,-0.27046 0.02163,-0.36718 0.07218,-0.0967 0.184142,-0.10111 0.259987,-0.0102"
             id="path1649"
             inkscape:connector-curvature="0"
             sodipodi:nodetypes="ccccc" />
          <path
             sodipodi:nodetypes="ccccc"
             inkscape:connector-curvature="0"
             id="path1651"
             d="m 54.163595,236.5758 c -0.01343,0.13395 -0.34753,0.73862 -0.454483,0.77057 -0.106934,0.0319 0.04743,-0.51902 0.03716,-0.64588 -0.01027,-0.12687 0.06114,-0.26827 0.165827,-0.32832 0.104676,-0.06 0.209162,-0.0196 0.242612,0.094"
             style="fill:#00ff00;fill-rule:evenodd;stroke-width:0.26458332" />
        </g>
        <g
           id="g1659"
           transform="matrix(0.92566323,-0.53261901,0.31996078,0.89620369,-73.666655,49.623695)"
           inkscape:transform-center-x="0.42255325">
          <path
             sodipodi:nodetypes="ccccc"
             inkscape:connector-curvature="0"
             id="path1655"
             d="m 54.244293,236.52279 c 0.04093,0.12824 -0.02523,0.8159 -0.110664,0.88774 -0.08543,0.0718 -0.162827,-0.4951 -0.222691,-0.60742 -0.05986,-0.11233 -0.05055,-0.27046 0.02163,-0.36718 0.07218,-0.0967 0.184142,-0.10111 0.259987,-0.0102"
             style="fill:#00ff00;fill-rule:evenodd;stroke-width:0.26458332" />
          <path
             style="fill:#00ff00;fill-rule:evenodd;stroke-width:0.26458332"
             d="m 54.163595,236.5758 c -0.01343,0.13395 -0.34753,0.73862 -0.454483,0.77057 -0.106934,0.0319 0.04743,-0.51902 0.03716,-0.64588 -0.01027,-0.12687 0.06114,-0.26827 0.165827,-0.32832 0.104676,-0.06 0.209162,-0.0196 0.242612,0.094"
             id="path1657"
             inkscape:connector-curvature="0"
             sodipodi:nodetypes="ccccc" />
        </g>
        <g
           transform="matrix(0.94879319,-0.11296282,-0.15342314,1.0722369,37.435053,-16.906042)"
           id="g1665">
          <path
             style="fill:#00ff00;fill-rule:evenodd;stroke-width:0.26458332"
             d="m 54.244293,236.52279 c 0.04093,0.12824 -0.02523,0.8159 -0.110664,0.88774 -0.08543,0.0718 -0.162827,-0.4951 -0.222691,-0.60742 -0.05986,-0.11233 -0.05055,-0.27046 0.02163,-0.36718 0.07218,-0.0967 0.184142,-0.10111 0.259987,-0.0102"
             id="path1661"
             inkscape:connector-curvature="0"
             sodipodi:nodetypes="ccccc" />
          <path
             sodipodi:nodetypes="ccccc"
             inkscape:connector-curvature="0"
             id="path1663"
             d="m 54.163595,236.5758 c -0.01343,0.13395 -0.34753,0.73862 -0.454483,0.77057 -0.106934,0.0319 0.04743,-0.51902 0.03716,-0.64588 -0.01027,-0.12687 0.06114,-0.26827 0.165827,-0.32832 0.104676,-0.06 0.209162,-0.0196 0.242612,0.094"
             style="fill:#00ff00;fill-rule:evenodd;stroke-width:0.26458332" />
        </g>
        <g
           id="g1671"
           transform="rotate(-18.592711,34.822658,235.17462)">
          <path
             sodipodi:nodetypes="ccccc"
             inkscape:connector-curvature="0"
             id="path1667"
             d="m 54.244293,236.52279 c 0.04093,0.12824 -0.02523,0.8159 -0.110664,0.88774 -0.08543,0.0718 -0.162827,-0.4951 -0.222691,-0.60742 -0.05986,-0.11233 -0.05055,-0.27046 0.02163,-0.36718 0.07218,-0.0967 0.184142,-0.10111 0.259987,-0.0102"
             style="fill:#00ff00;fill-rule:evenodd;stroke-width:0.26458332" />
          <path
             style="fill:#00ff00;fill-rule:evenodd;stroke-width:0.26458332"
             d="m 54.163595,236.5758 c -0.01343,0.13395 -0.34753,0.73862 -0.454483,0.77057 -0.106934,0.0319 0.04743,-0.51902 0.03716,-0.64588 -0.01027,-0.12687 0.06114,-0.26827 0.165827,-0.32832 0.104676,-0.06 0.209162,-0.0196 0.242612,0.094"
             id="path1669"
             inkscape:connector-curvature="0"
             sodipodi:nodetypes="ccccc" />
        </g>
        <path
           style="fill:#00ff00;fill-rule:nonzero;stroke:none;stroke-width:0.26458332px;stroke-linecap:butt;stroke-linejoin:miter;stroke-opacity:1"
           d="m 53.237738,229.89203 0.021,0.0262 c 0.03576,0.052 0.122016,0.18183 0.15777,0.23384 -0.03575,-0.052 -0.034,-0.28297 -0.06976,-0.33498 l -0.109014,0.075 z"
           id="path1673"
           inkscape:connector-curvature="0"
           sodipodi:nodetypes="cccccc" />
        <path
           style="fill:#00ff00;fill-rule:nonzero;stroke:none;stroke-width:0.26458332px;stroke-linecap:butt;stroke-linejoin:miter;stroke-opacity:1"
           d="m 52.278867,230.15206 0.0164,0.0178 c 0.02964,0.0167 0.101412,0.0827 0.156582,0.10675 0.12235,0.018 -0.01625,0.0888 0.007,0.11716 0.02896,0.0424 0.05518,0.1121 0.07635,0.18541 0.02737,0.0948 0.04714,0.19745 0.05242,0.25544 -0.0058,-0.0636 -0.0031,-0.15659 -6.03e-4,-0.26208 0.0017,-0.0735 0.0035,-0.15822 -0.0022,-0.21926 -0.0099,-0.0781 -0.05481,-0.1449 -0.09843,-0.19419 -0.05532,-0.0625 -0.119131,-0.10912 -0.142678,-0.12236 l 0.0164,0.16406 z"
           id="path1681"
           inkscape:connector-curvature="0"
           sodipodi:nodetypes="cccccccccccc" />
      </g>
    </g>
  </g>
</svg>
