<?xml version="1.0" encoding="UTF-8" standalone="no"?>
<!-- Created with Inkscape (http://www.inkscape.org/) -->

<svg
   xmlns:dc="http://purl.org/dc/elements/1.1/"
   xmlns:cc="http://creativecommons.org/ns#"
   xmlns:rdf="http://www.w3.org/1999/02/22-rdf-syntax-ns#"
   xmlns:svg="http://www.w3.org/2000/svg"
   xmlns="http://www.w3.org/2000/svg"
   xmlns:sodipodi="http://sodipodi.sourceforge.net/DTD/sodipodi-0.dtd"
   xmlns:inkscape="http://www.inkscape.org/namespaces/inkscape"
   width="50"
   height="50"
   viewBox="0 0 13.229167 13.229167"
   version="1.1"
   id="svg8"
   inkscape:version="0.92.5 (2060ec1f9f, 2020-04-08)"
   sodipodi:docname="rain.svg">
  <defs
     id="defs2" />
  <sodipodi:namedview
     id="base"
     pagecolor="#ffffff"
     bordercolor="#666666"
     borderopacity="1.0"
     inkscape:pageopacity="0.0"
     inkscape:pageshadow="2"
     inkscape:zoom="16.28"
     inkscape:cx="34.082107"
     inkscape:cy="24.969788"
     inkscape:document-units="mm"
     inkscape:current-layer="layer1"
     showgrid="false"
     inkscape:window-width="1920"
     inkscape:window-height="1053"
     inkscape:window-x="0"
     inkscape:window-y="0"
     inkscape:window-maximized="1"
     inkscape:measure-start="0,0"
     inkscape:measure-end="0,0"
     inkscape:snap-global="false"
     fit-margin-top="0"
     fit-margin-left="0"
     fit-margin-right="0"
     fit-margin-bottom="0"
     units="px"
     inkscape:snap-bbox="true" />
  <metadata
     id="metadata5">
    <rdf:RDF>
      <cc:Work
         rdf:about="">
        <dc:format>image/svg+xml</dc:format>
        <dc:type
           rdf:resource="http://purl.org/dc/dcmitype/StillImage" />
        <dc:title></dc:title>
      </cc:Work>
    </rdf:RDF>
  </metadata>
  <g
     inkscape:label="Layer 1"
     inkscape:groupmode="layer"
     id="layer1"
     transform="translate(-46.135593,-226.8854)">
    <rect
       style="opacity:1;vector-effect:none;fill:#d3d3d3;fill-opacity:1;fill-rule:evenodd;stroke-width:0.26444444;stroke-linecap:butt;stroke-linejoin:miter;stroke-miterlimit:4;stroke-dasharray:none;stroke-dashoffset:0;stroke-opacity:1"
       id="rect889"
       width="13.229167"
       height="13.215283"
       x="46.135593"
       y="226.89928" />
    <path
       style="fill:#00ffff;fill-rule:evenodd;stroke-width:0.19090086"
       d="m 48.99601,231.94473 c -0.103857,0.6002 -0.502616,0.98907 -0.841099,0.91541 -0.338482,-0.0737 -0.510698,-0.60292 -0.384654,-1.18214 0.126042,-0.57922 1.087401,-2.87538 1.361067,-3.38682 0.642584,-1.20091 0.113692,2.09957 -0.135314,3.65355 z"
       id="path1521"
       inkscape:connector-curvature="0"
       sodipodi:nodetypes="cscsc"
       inkscape:transform-center-x="1.244733"
       inkscape:transform-center-y="-3.036766" />
    <path
       style="fill:#00ffff;fill-rule:evenodd;stroke-width:0.19090086"
       d="m 50.674125,232.71374 c -0.103857,0.6002 -0.502616,0.98906 -0.841099,0.91541 -0.338482,-0.0737 -0.510697,-0.60292 -0.384654,-1.18214 0.126042,-0.57922 1.087402,-2.87538 1.361067,-3.38683 0.642584,-1.20091 0.113692,2.09958 -0.135314,3.65356 z"
       id="path1532"
       inkscape:connector-curvature="0"
       sodipodi:nodetypes="cscsc"
       inkscape:transform-center-x="-0.43338228"
       inkscape:transform-center-y="-2.2677617" />
    <path
       style="fill:#00ffff;fill-rule:evenodd;stroke-width:0.19090086"
       d="m 52.390565,232.65112 c -0.103857,0.6002 -0.502617,0.98906 -0.841099,0.91541 -0.338483,-0.0737 -0.510696,-0.60293 -0.384654,-1.18215 0.126044,-0.57922 1.087401,-2.87537 1.361067,-3.38682 0.642583,-1.20091 0.113694,2.09957 -0.135314,3.65356 z"
       id="path1534"
       inkscape:connector-curvature="0"
       sodipodi:nodetypes="cscsc"
       inkscape:transform-center-x="-2.1498225"
       inkscape:transform-center-y="-2.330382" />
    <path
       style="fill:#00ffff;fill-rule:evenodd;stroke-width:0.19090086"
       d="m 48.448465,237.12393 c -0.103857,0.60021 -0.502616,0.98907 -0.841098,0.91541 -0.338483,-0.0737 -0.510698,-0.60292 -0.384654,-1.18214 0.126044,-0.57922 1.087401,-2.87538 1.361067,-3.38682 0.642583,-1.20091 0.113694,2.09956 -0.135315,3.65355 z"
       id="path1536"
       inkscape:connector-curvature="0"
       sodipodi:nodetypes="cscsc"
       inkscape:transform-center-x="1.792277"
       inkscape:transform-center-y="2.142434" />
    <path
       style="fill:#00ffff;fill-rule:evenodd;stroke-width:0.19090086"
       d="m 50.287825,237.76649 c -0.103857,0.60021 -0.502617,0.98907 -0.841099,0.91541 -0.338483,-0.0737 -0.510698,-0.60292 -0.384654,-1.18214 0.126044,-0.57922 1.087401,-2.87538 1.361067,-3.38682 0.642583,-1.20091 0.113692,2.09957 -0.135314,3.65355 z"
       id="path1538"
       inkscape:connector-curvature="0"
       sodipodi:nodetypes="cscsc"
       inkscape:transform-center-x="-0.047081785"
       inkscape:transform-center-y="2.7849943" />
    <path
       sodipodi:nodetypes="cscsc"
       inkscape:connector-curvature="0"
       id="path1530"
       d="m 51.96628,238.08327 c -0.103857,0.6002 -0.502615,0.98907 -0.841098,0.91541 -0.338482,-0.0737 -0.510698,-0.60292 -0.384654,-1.18214 0.126042,-0.57922 1.087401,-2.87538 1.361067,-3.38683 0.642584,-1.2009 0.113692,2.09958 -0.135315,3.65356 z"
       style="fill:#00ffff;fill-rule:evenodd;stroke-width:0.19090086"
       inkscape:transform-center-x="-1.7255381"
       inkscape:transform-center-y="3.1017711" />
    <path
       inkscape:transform-center-y="-3.036766"
       inkscape:transform-center-x="1.244733"
       sodipodi:nodetypes="cscsc"
       inkscape:connector-curvature="0"
       id="path877"
       d="m 54.537958,231.81471 c -0.103857,0.6002 -0.502616,0.98907 -0.841099,0.91541 -0.338482,-0.0737 -0.510698,-0.60292 -0.384654,-1.18214 0.126042,-0.57922 1.087401,-2.87538 1.361067,-3.38682 0.642584,-1.20091 0.113692,2.09957 -0.135314,3.65355 z"
       style="fill:#00ffff;fill-rule:evenodd;stroke-width:0.19090086" />
    <path
       inkscape:transform-center-y="-2.2677617"
       inkscape:transform-center-x="-0.43338228"
       sodipodi:nodetypes="cscsc"
       inkscape:connector-curvature="0"
       id="path879"
       d="m 56.216073,232.58372 c -0.103857,0.6002 -0.502616,0.98906 -0.841099,0.91541 -0.338482,-0.0737 -0.510697,-0.60292 -0.384654,-1.18214 0.126042,-0.57922 1.087402,-2.87538 1.361067,-3.38683 0.642584,-1.20091 0.113692,2.09958 -0.135314,3.65356 z"
       style="fill:#00ffff;fill-rule:evenodd;stroke-width:0.19090086" />
    <path
       inkscape:transform-center-y="-2.330382"
       inkscape:transform-center-x="-2.1498225"
       sodipodi:nodetypes="cscsc"
       inkscape:connector-curvature="0"
       id="path881"
       d="m 57.932513,232.5211 c -0.103857,0.6002 -0.502617,0.98906 -0.841099,0.91541 -0.338483,-0.0737 -0.510696,-0.60293 -0.384654,-1.18215 0.126044,-0.57922 1.087401,-2.87537 1.361067,-3.38682 0.642583,-1.20091 0.113694,2.09957 -0.135314,3.65356 z"
       style="fill:#00ffff;fill-rule:evenodd;stroke-width:0.19090086" />
    <path
       inkscape:transform-center-y="2.142434"
       inkscape:transform-center-x="1.792277"
       sodipodi:nodetypes="cscsc"
       inkscape:connector-curvature="0"
       id="path883"
       d="m 53.990413,236.99391 c -0.103857,0.60021 -0.502616,0.98907 -0.841098,0.91541 -0.338483,-0.0737 -0.510698,-0.60292 -0.384654,-1.18214 0.126044,-0.57922 1.087401,-2.87538 1.361067,-3.38682 0.642583,-1.20091 0.113694,2.09956 -0.135315,3.65355 z"
       style="fill:#00ffff;fill-rule:evenodd;stroke-width:0.19090086" />
    <path
       inkscape:transform-center-y="2.7849943"
       inkscape:transform-center-x="-0.047081785"
       sodipodi:nodetypes="cscsc"
       inkscape:connector-curvature="0"
       id="path885"
       d="m 55.829773,237.63647 c -0.103857,0.60021 -0.502617,0.98907 -0.841099,0.91541 -0.338483,-0.0737 -0.510698,-0.60292 -0.384654,-1.18214 0.126044,-0.57922 1.087401,-2.87538 1.361067,-3.38682 0.642583,-1.20091 0.113692,2.09957 -0.135314,3.65355 z"
       style="fill:#00ffff;fill-rule:evenodd;stroke-width:0.19090086" />
    <path
       inkscape:transform-center-y="3.1017711"
       inkscape:transform-center-x="-1.7255381"
       style="fill:#00ffff;fill-rule:evenodd;stroke-width:0.19090086"
       d="m 57.508228,237.95325 c -0.103857,0.6002 -0.502615,0.98907 -0.841098,0.91541 -0.338482,-0.0737 -0.510698,-0.60292 -0.384654,-1.18214 0.126042,-0.57922 1.087401,-2.87538 1.361067,-3.38683 0.642584,-1.2009 0.113692,2.09958 -0.135315,3.65356 z"
       id="path887"
       inkscape:connector-curvature="0"
       sodipodi:nodetypes="cscsc" />
  </g>
</svg>
