<?xml version="1.0" encoding="UTF-8" standalone="no"?>
<!-- Created with Inkscape (http://www.inkscape.org/) -->

<svg
   xmlns:dc="http://purl.org/dc/elements/1.1/"
   xmlns:cc="http://creativecommons.org/ns#"
   xmlns:rdf="http://www.w3.org/1999/02/22-rdf-syntax-ns#"
   xmlns:svg="http://www.w3.org/2000/svg"
   xmlns="http://www.w3.org/2000/svg"
   xmlns:sodipodi="http://sodipodi.sourceforge.net/DTD/sodipodi-0.dtd"
   xmlns:inkscape="http://www.inkscape.org/namespaces/inkscape"
   width="50"
   height="50"
   viewBox="0 0 13.229167 13.229167"
   version="1.1"
   id="svg8"
   inkscape:version="0.92.5 (2060ec1f9f, 2020-04-08)"
   sodipodi:docname="river1.svg">
  <defs
     id="defs2" />
  <sodipodi:namedview
     id="base"
     pagecolor="#ffffff"
     bordercolor="#666666"
     borderopacity="1.0"
     inkscape:pageopacity="0.0"
     inkscape:pageshadow="2"
     inkscape:zoom="23.023397"
     inkscape:cx="23.875099"
     inkscape:cy="21.525274"
     inkscape:document-units="mm"
     inkscape:current-layer="layer1"
     showgrid="false"
     inkscape:window-width="1920"
     inkscape:window-height="1053"
     inkscape:window-x="0"
     inkscape:window-y="0"
     inkscape:window-maximized="1"
     inkscape:measure-start="0,0"
     inkscape:measure-end="0,0"
     inkscape:snap-global="true"
     fit-margin-top="0"
     fit-margin-left="0"
     fit-margin-right="0"
     fit-margin-bottom="0"
     units="px"
     inkscape:snap-bbox="true" />
  <metadata
     id="metadata5">
    <rdf:RDF>
      <cc:Work
         rdf:about="">
        <dc:format>image/svg+xml</dc:format>
        <dc:type
           rdf:resource="http://purl.org/dc/dcmitype/StillImage" />
        <dc:title></dc:title>
      </cc:Work>
    </rdf:RDF>
  </metadata>
  <g
     inkscape:label="Layer 1"
     inkscape:groupmode="layer"
     id="layer1"
     transform="translate(-46.135593,-226.8854)">
    <rect
       style="opacity:1;vector-effect:none;fill:#d3d3d3;fill-opacity:1;fill-rule:evenodd;stroke-width:0.26458332;stroke-linecap:butt;stroke-linejoin:miter;stroke-miterlimit:4;stroke-dasharray:none;stroke-dashoffset:0;stroke-opacity:1"
       id="rect889"
       width="13.229167"
       height="13.229167"
       x="46.135593"
       y="226.88539" />
    <rect
       style="opacity:1;vector-effect:none;fill:#d3d3d3;fill-opacity:1;fill-rule:evenodd;stroke-width:0.26458332;stroke-linecap:butt;stroke-linejoin:miter;stroke-miterlimit:4;stroke-dasharray:none;stroke-dashoffset:0;stroke-opacity:1"
       id="rect1833"
       width="13.229167"
       height="13.229167"
       x="46.135593"
       y="226.88539" />
    <path
       transform="matrix(0.70949665,0.70470881,-0.71415179,0.69999088,0,0)"
       style="opacity:1;vector-effect:none;fill:#00ffff;fill-opacity:1;fill-rule:evenodd;stroke-width:0.37782317;stroke-linecap:butt;stroke-linejoin:miter;stroke-miterlimit:4;stroke-dasharray:none;stroke-dashoffset:0;stroke-opacity:1"
       d="m 202.70145,121.29603 0.98673,-0.96161 0.19071,0.1592 1.07618,1.06723 -0.20569,2.22491 -0.0961,1.36169 -0.005,1.6107 0.12098,0.76366 0.11828,1.93057 0.0677,1.13705 -0.0248,1.94704 0.0182,1.24464 0.0287,0.98258 -0.14061,0.74025 0.008,-0.008 -1.13434,1.14198 -1.18255,-1.21576 0.18627,-1.02206 -0.0179,-1.24596 0.0196,-1.19684 0.0233,-1.20388 -0.1887,-1.32114 -0.10512,-1.22379 -0.0774,-1.56946 -0.14236,-1.5659 0.20146,-1.64727 z"
       id="rect929"
       inkscape:connector-curvature="0"
       sodipodi:nodetypes="ccccccccccccccccccccccccccc" />
    <path
       style="opacity:1;vector-effect:none;fill:#008000;fill-opacity:1;fill-rule:evenodd;stroke-width:0.2367065;stroke-linecap:butt;stroke-linejoin:miter;stroke-miterlimit:4;stroke-dasharray:none;stroke-dashoffset:0;stroke-opacity:1"
       d="m 47.009764,227.73051 10.182456,0.0211 -2.441052,1.85818 -1.611238,1.64675 -0.514461,0.64357 -0.795096,0.78056 -0.897106,1.23416 -0.46822,0.48338 -0.435539,0.52964 -1.012547,0.93441 -1.173953,1.07096 -0.862067,0.58417 0.01336,-8.46201 z"
       id="rect932"
       inkscape:connector-curvature="0"
       sodipodi:nodetypes="cccccccccccccc" />
    <path
       style="opacity:1;vector-effect:none;fill:#008000;fill-opacity:1;fill-rule:evenodd;stroke-width:0.23161063;stroke-linecap:butt;stroke-linejoin:miter;stroke-miterlimit:4;stroke-dasharray:none;stroke-dashoffset:0;stroke-opacity:1"
       d="m 49.188996,238.78268 1.157409,-1.20594 1.462378,-1.39062 1.060372,-1.16516 1.18182,-1.26209 0.621781,-0.81183 0.953841,-0.98404 0.618616,-0.63337 0.29684,-0.18971 2.059979,-1.61479 0.01063,9.68817 -10.029087,-5e-5 z"
       id="rect935"
       inkscape:connector-curvature="0"
       sodipodi:nodetypes="ccccccccccccc" />
  </g>
</svg>
