<?xml version="1.0" encoding="UTF-8" standalone="no"?>
<!-- Created with Inkscape (http://www.inkscape.org/) -->

<svg
   xmlns:dc="http://purl.org/dc/elements/1.1/"
   xmlns:cc="http://creativecommons.org/ns#"
   xmlns:rdf="http://www.w3.org/1999/02/22-rdf-syntax-ns#"
   xmlns:svg="http://www.w3.org/2000/svg"
   xmlns="http://www.w3.org/2000/svg"
   xmlns:sodipodi="http://sodipodi.sourceforge.net/DTD/sodipodi-0.dtd"
   xmlns:inkscape="http://www.inkscape.org/namespaces/inkscape"
   width="50"
   height="50"
   viewBox="0 0 13.229167 13.229167"
   version="1.1"
   id="svg8"
   inkscape:version="0.92.5 (2060ec1f9f, 2020-04-08)"
   sodipodi:docname="rye.svg">
  <defs
     id="defs2">
    <inkscape:path-effect
       effect="powerstroke"
       id="path-effect947"
       is_visible="true"
       offset_points="0,0.13229166"
       sort_points="true"
       interpolator_type="CubicBezierJohan"
       interpolator_beta="0.2"
       start_linecap_type="zerowidth"
       linejoin_type="extrp_arc"
       miter_limit="4"
       end_linecap_type="zerowidth" />
    <inkscape:path-effect
       effect="bspline"
       id="path-effect945"
       is_visible="true"
       weight="33.333333"
       steps="2"
       helper_size="0"
       apply_no_weight="true"
       apply_with_weight="true"
       only_selected="false" />
    <inkscape:path-effect
       effect="simplify"
       id="path-effect943"
       is_visible="true"
       steps="1"
       threshold="0.00645161"
       smooth_angles="360"
       helper_size="0"
       simplify_individual_paths="false"
       simplify_just_coalesce="false"
       simplifyindividualpaths="false"
       simplifyJustCoalesce="false" />
    <inkscape:path-effect
       effect="powerstroke"
       id="path-effect938"
       is_visible="true"
       offset_points="0,0.13229166"
       sort_points="true"
       interpolator_type="CubicBezierJohan"
       interpolator_beta="0.2"
       start_linecap_type="zerowidth"
       linejoin_type="extrp_arc"
       miter_limit="4"
       end_linecap_type="zerowidth" />
    <inkscape:path-effect
       effect="bspline"
       id="path-effect936"
       is_visible="true"
       weight="33.333333"
       steps="2"
       helper_size="0"
       apply_no_weight="true"
       apply_with_weight="true"
       only_selected="false" />
    <inkscape:path-effect
       effect="simplify"
       id="path-effect934"
       is_visible="true"
       steps="1"
       threshold="0.00645161"
       smooth_angles="360"
       helper_size="0"
       simplify_individual_paths="false"
       simplify_just_coalesce="false"
       simplifyindividualpaths="false"
       simplifyJustCoalesce="false" />
    <inkscape:path-effect
       effect="powerstroke"
       id="path-effect921"
       is_visible="true"
       offset_points="0,0.13229166"
       sort_points="true"
       interpolator_type="CubicBezierJohan"
       interpolator_beta="0.2"
       start_linecap_type="zerowidth"
       linejoin_type="extrp_arc"
       miter_limit="4"
       end_linecap_type="zerowidth" />
    <inkscape:path-effect
       effect="bspline"
       id="path-effect919"
       is_visible="true"
       weight="33.333333"
       steps="2"
       helper_size="0"
       apply_no_weight="true"
       apply_with_weight="true"
       only_selected="false" />
    <inkscape:path-effect
       effect="simplify"
       id="path-effect917"
       is_visible="true"
       steps="1"
       threshold="0.00645161"
       smooth_angles="360"
       helper_size="0"
       simplify_individual_paths="false"
       simplify_just_coalesce="false"
       simplifyindividualpaths="false"
       simplifyJustCoalesce="false" />
  </defs>
  <sodipodi:namedview
     id="base"
     pagecolor="#ffffff"
     bordercolor="#666666"
     borderopacity="1.0"
     inkscape:pageopacity="0.0"
     inkscape:pageshadow="2"
     inkscape:zoom="16.28"
     inkscape:cx="34.082107"
     inkscape:cy="24.969788"
     inkscape:document-units="mm"
     inkscape:current-layer="layer1"
     showgrid="false"
     inkscape:window-width="1920"
     inkscape:window-height="1053"
     inkscape:window-x="0"
     inkscape:window-y="0"
     inkscape:window-maximized="1"
     inkscape:measure-start="0,0"
     inkscape:measure-end="0,0"
     inkscape:snap-global="false"
     fit-margin-top="0"
     fit-margin-left="0"
     fit-margin-right="0"
     fit-margin-bottom="0"
     units="px"
     inkscape:snap-bbox="true" />
  <metadata
     id="metadata5">
    <rdf:RDF>
      <cc:Work
         rdf:about="">
        <dc:format>image/svg+xml</dc:format>
        <dc:type
           rdf:resource="http://purl.org/dc/dcmitype/StillImage" />
        <dc:title></dc:title>
      </cc:Work>
    </rdf:RDF>
  </metadata>
  <g
     inkscape:label="Layer 1"
     inkscape:groupmode="layer"
     id="layer1"
     transform="translate(-46.135593,-226.8854)">
    <rect
       style="opacity:1;vector-effect:none;fill:#d3d3d3;fill-opacity:1;fill-rule:evenodd;stroke-width:0.26444444;stroke-linecap:butt;stroke-linejoin:miter;stroke-miterlimit:4;stroke-dasharray:none;stroke-dashoffset:0;stroke-opacity:1"
       id="rect889"
       width="13.229167"
       height="13.215283"
       x="46.135593"
       y="226.89928" />
    <rect
       style="opacity:1;vector-effect:none;fill:#00ffff;fill-opacity:1;fill-rule:evenodd;stroke-width:0.266422;stroke-linecap:butt;stroke-linejoin:miter;stroke-miterlimit:4;stroke-dasharray:none;stroke-dashoffset:0;stroke-opacity:1"
       id="rect950"
       width="11.815239"
       height="11.815239"
       x="46.850681"
       y="227.633" />
    <g
       id="g1748"
       transform="matrix(1.9311056,0,0,1.7508244,-48.782875,-171.73553)"
       style="fill:#ffdd55;fill-opacity:1">
      <path
         sodipodi:nodetypes="cccccccccccccccc"
         inkscape:connector-curvature="0"
         id="rect1622"
         d="m 53.406933,230.21838 2.077593,-1.57124 -1.988276,1.70386 -3.370863,2.76768 -0.200972,0.22121 -0.111089,0.23143 -0.04695,0.19426 -0.03325,0.20306 -0.02916,0.51923 -0.132416,-0.007 -0.0068,-0.53998 0.04227,-0.2548 0.07569,-0.23975 0.102004,-0.23683 0.141021,-0.15757 z"
         style="opacity:1;vector-effect:none;fill:#ffdd55;fill-opacity:1;fill-rule:evenodd;stroke-width:0.21960534;stroke-linecap:butt;stroke-linejoin:miter;stroke-miterlimit:4;stroke-dasharray:none;stroke-dashoffset:0;stroke-opacity:1" />
      <path
         inkscape:transform-center-y="-0.016947853"
         inkscape:transform-center-x="0.018403968"
         inkscape:connector-curvature="0"
         id="path1625"
         d="m 50.688915,232.04269 a 0.14871837,0.68860993 10.594245 0 1 -0.27312,0.63516 0.14871837,0.68860993 10.594245 0 1 -0.01406,-0.71719 0.14871837,0.68860993 10.594245 0 1 0.273127,-0.63516 0.14871837,0.68860993 10.594245 0 1 0.01406,0.7172 z"
         style="fill:#ffdd55;fill-opacity:1;fill-rule:evenodd;stroke-width:0.3046214" />
      <path
         style="fill:#ffdd55;fill-opacity:1;fill-rule:evenodd;stroke-width:0.3046214"
         d="m 51.013956,231.7339 a 0.14871837,0.68860993 10.594245 0 1 -0.27312,0.63516 0.14871837,0.68860993 10.594245 0 1 -0.01406,-0.71719 0.14871837,0.68860993 10.594245 0 1 0.273127,-0.63516 0.14871837,0.68860993 10.594245 0 1 0.01406,0.7172 z"
         id="path1642"
         inkscape:connector-curvature="0"
         inkscape:transform-center-x="0.018403968"
         inkscape:transform-center-y="-0.016947853" />
      <path
         style="fill:#ffdd55;fill-opacity:1;fill-rule:evenodd;stroke-width:0.3046214"
         d="m 51.338997,231.49012 a 0.14871837,0.68860993 10.594245 0 1 -0.27312,0.63516 0.14871837,0.68860993 10.594245 0 1 -0.01406,-0.71719 0.14871837,0.68860993 10.594245 0 1 0.273127,-0.63516 0.14871837,0.68860993 10.594245 0 1 0.01406,0.7172 z"
         id="path1646"
         inkscape:connector-curvature="0"
         inkscape:transform-center-x="0.018403918"
         inkscape:transform-center-y="-0.01694714" />
      <path
         style="fill:#ffdd55;fill-opacity:1;fill-rule:evenodd;stroke-width:0.3046214"
         d="m 51.664038,231.19758 a 0.14871837,0.68860993 10.594245 0 1 -0.27312,0.63516 0.14871837,0.68860993 10.594245 0 1 -0.01406,-0.71719 0.14871837,0.68860993 10.594245 0 1 0.273127,-0.63516 0.14871837,0.68860993 10.594245 0 1 0.01406,0.7172 z"
         id="path1648"
         inkscape:connector-curvature="0"
         inkscape:transform-center-x="0.018403868"
         inkscape:transform-center-y="-0.016950285" />
      <path
         style="fill:#ffdd55;fill-opacity:1;fill-rule:evenodd;stroke-width:0.3046214"
         d="m 51.989079,230.98631 a 0.14871837,0.68860993 10.594245 0 1 -0.27312,0.63516 0.14871837,0.68860993 10.594245 0 1 -0.01406,-0.71719 0.14871837,0.68860993 10.594245 0 1 0.273127,-0.63516 0.14871837,0.68860993 10.594245 0 1 0.01406,0.7172 z"
         id="path1650"
         inkscape:connector-curvature="0"
         inkscape:transform-center-x="0.018403818"
         inkscape:transform-center-y="-0.016943668" />
      <path
         style="fill:#ffdd55;fill-opacity:1;fill-rule:evenodd;stroke-width:0.3046214"
         d="m 52.31412,230.72627 a 0.14871837,0.68860993 10.594245 0 1 -0.27312,0.63516 0.14871837,0.68860993 10.594245 0 1 -0.01406,-0.71719 0.14871837,0.68860993 10.594245 0 1 0.273127,-0.63516 0.14871837,0.68860993 10.594245 0 1 0.01406,0.7172 z"
         id="path1652"
         inkscape:connector-curvature="0"
         inkscape:transform-center-x="0.018403768"
         inkscape:transform-center-y="-0.016950908" />
      <path
         style="fill:#ffdd55;fill-opacity:1;fill-rule:evenodd;stroke-width:0.3046214"
         d="m 52.639161,230.48249 a 0.14871837,0.68860993 10.594245 0 1 -0.27312,0.63516 0.14871837,0.68860993 10.594245 0 1 -0.01406,-0.71719 0.14871837,0.68860993 10.594245 0 1 0.273127,-0.63516 0.14871837,0.68860993 10.594245 0 1 0.01406,0.7172 z"
         id="path1654"
         inkscape:connector-curvature="0"
         inkscape:transform-center-x="0.018403718"
         inkscape:transform-center-y="-0.016950195" />
      <path
         style="fill:#ffdd55;fill-opacity:1;fill-rule:evenodd;stroke-width:0.3046214"
         d="m 52.980454,230.1737 a 0.14871837,0.68860993 10.594245 0 1 -0.27312,0.63516 0.14871837,0.68860993 10.594245 0 1 -0.01406,-0.71719 0.14871837,0.68860993 10.594245 0 1 0.273127,-0.63516 0.14871837,0.68860993 10.594245 0 1 0.01406,0.7172 z"
         id="path1656"
         inkscape:connector-curvature="0"
         inkscape:transform-center-x="0.018403716"
         inkscape:transform-center-y="-0.016951293" />
      <path
         style="fill:#ffdd55;fill-opacity:1;fill-rule:evenodd;stroke-width:0.3046214"
         d="m 53.354251,229.86491 a 0.14871837,0.68860993 10.594245 0 1 -0.27312,0.63516 0.14871837,0.68860993 10.594245 0 1 -0.01406,-0.71719 0.14871837,0.68860993 10.594245 0 1 0.273127,-0.63516 0.14871837,0.68860993 10.594245 0 1 0.01406,0.7172 z"
         id="path1658"
         inkscape:connector-curvature="0"
         inkscape:transform-center-x="0.018403808"
         inkscape:transform-center-y="-0.01695239" />
      <path
         style="fill:#ffdd55;fill-opacity:1;fill-rule:evenodd;stroke-width:0.3046214"
         d="m 53.711796,229.52362 a 0.14871837,0.68860993 10.594245 0 1 -0.27312,0.63516 0.14871837,0.68860993 10.594245 0 1 -0.01406,-0.71719 0.14871837,0.68860993 10.594245 0 1 0.273127,-0.63516 0.14871837,0.68860993 10.594245 0 1 0.01406,0.7172 z"
         id="path1660"
         inkscape:connector-curvature="0"
         inkscape:transform-center-x="0.018403853"
         inkscape:transform-center-y="-0.016949393" />
      <path
         inkscape:transform-center-y="-0.020991809"
         inkscape:transform-center-x="-0.013591124"
         inkscape:connector-curvature="0"
         id="path1644"
         d="m 51.243773,232.90992 a 0.68860993,0.14871837 0.85568426 0 1 -0.672206,-0.16174 0.68860993,0.14871837 0.85568426 0 1 0.70448,-0.13514 0.68860993,0.14871837 0.85568426 0 1 0.672207,0.16174 0.68860993,0.14871837 0.85568426 0 1 -0.70449,0.13514 z"
         style="fill:#ffdd55;fill-opacity:1;fill-rule:evenodd;stroke-width:0.3046214" />
      <path
         inkscape:transform-center-y="-0.020989049"
         inkscape:transform-center-x="-0.013591221"
         inkscape:connector-curvature="0"
         id="path1664"
         d="m 51.552562,232.64989 a 0.68860993,0.14871837 0.85568426 0 1 -0.672206,-0.16174 0.68860993,0.14871837 0.85568426 0 1 0.70448,-0.13514 0.68860993,0.14871837 0.85568426 0 1 0.672207,0.16174 0.68860993,0.14871837 0.85568426 0 1 -0.70449,0.13514 z"
         style="fill:#ffdd55;fill-opacity:1;fill-rule:evenodd;stroke-width:0.3046214" />
      <path
         inkscape:transform-center-y="-0.020994241"
         inkscape:transform-center-x="-0.013591319"
         inkscape:connector-curvature="0"
         id="path1666"
         d="m 51.861351,232.3736 a 0.68860993,0.14871837 0.85568426 0 1 -0.672206,-0.16174 0.68860993,0.14871837 0.85568426 0 1 0.70448,-0.13514 0.68860993,0.14871837 0.85568426 0 1 0.672207,0.16174 0.68860993,0.14871837 0.85568426 0 1 -0.70449,0.13514 z"
         style="fill:#ffdd55;fill-opacity:1;fill-rule:evenodd;stroke-width:0.3046214" />
      <path
         inkscape:transform-center-y="-0.020991481"
         inkscape:transform-center-x="-0.013591369"
         inkscape:connector-curvature="0"
         id="path1668"
         d="m 52.186392,232.11357 a 0.68860993,0.14871837 0.85568426 0 1 -0.672206,-0.16174 0.68860993,0.14871837 0.85568426 0 1 0.70448,-0.13514 0.68860993,0.14871837 0.85568426 0 1 0.672207,0.16174 0.68860993,0.14871837 0.85568426 0 1 -0.70449,0.13514 z"
         style="fill:#ffdd55;fill-opacity:1;fill-rule:evenodd;stroke-width:0.3046214" />
      <path
         inkscape:transform-center-y="-0.020988721"
         inkscape:transform-center-x="-0.013591561"
         inkscape:connector-curvature="0"
         id="path1670"
         d="m 52.462677,231.85354 a 0.68860993,0.14871837 0.85568426 0 1 -0.672206,-0.16174 0.68860993,0.14871837 0.85568426 0 1 0.70448,-0.13514 0.68860993,0.14871837 0.85568426 0 1 0.672207,0.16174 0.68860993,0.14871837 0.85568426 0 1 -0.70449,0.13514 z"
         style="fill:#ffdd55;fill-opacity:1;fill-rule:evenodd;stroke-width:0.3046214" />
      <path
         inkscape:transform-center-y="-0.020988009"
         inkscape:transform-center-x="-0.013590611"
         inkscape:connector-curvature="0"
         id="path1672"
         d="m 52.787717,231.60976 a 0.68860993,0.14871837 0.85568426 0 1 -0.672206,-0.16174 0.68860993,0.14871837 0.85568426 0 1 0.70448,-0.13514 0.68860993,0.14871837 0.85568426 0 1 0.672207,0.16174 0.68860993,0.14871837 0.85568426 0 1 -0.70449,0.13514 z"
         style="fill:#ffdd55;fill-opacity:1;fill-rule:evenodd;stroke-width:0.3046214" />
      <path
         inkscape:transform-center-y="-0.020995249"
         inkscape:transform-center-x="-0.013590661"
         inkscape:connector-curvature="0"
         id="path1674"
         d="m 53.112758,231.34972 a 0.68860993,0.14871837 0.85568426 0 1 -0.672206,-0.16174 0.68860993,0.14871837 0.85568426 0 1 0.70448,-0.13514 0.68860993,0.14871837 0.85568426 0 1 0.672207,0.16174 0.68860993,0.14871837 0.85568426 0 1 -0.70449,0.13514 z"
         style="fill:#ffdd55;fill-opacity:1;fill-rule:evenodd;stroke-width:0.3046214" />
      <path
         inkscape:transform-center-y="-0.020992489"
         inkscape:transform-center-x="-0.013590854"
         inkscape:connector-curvature="0"
         id="path1676"
         d="m 53.389043,231.08969 a 0.68860993,0.14871837 0.85568426 0 1 -0.672206,-0.16174 0.68860993,0.14871837 0.85568426 0 1 0.70448,-0.13514 0.68860993,0.14871837 0.85568426 0 1 0.672207,0.16174 0.68860993,0.14871837 0.85568426 0 1 -0.70449,0.13514 z"
         style="fill:#ffdd55;fill-opacity:1;fill-rule:evenodd;stroke-width:0.3046214" />
      <path
         inkscape:transform-center-y="-0.020987681"
         inkscape:transform-center-x="-0.013590809"
         inkscape:connector-curvature="0"
         id="path1678"
         d="m 53.746588,230.81341 a 0.68860993,0.14871837 0.85568426 0 1 -0.672206,-0.16174 0.68860993,0.14871837 0.85568426 0 1 0.70448,-0.13514 0.68860993,0.14871837 0.85568426 0 1 0.672207,0.16174 0.68860993,0.14871837 0.85568426 0 1 -0.70449,0.13514 z"
         style="fill:#ffdd55;fill-opacity:1;fill-rule:evenodd;stroke-width:0.3046214" />
      <path
         inkscape:transform-center-y="-0.020990826"
         inkscape:transform-center-x="-0.013590669"
         inkscape:connector-curvature="0"
         id="path1680"
         d="m 54.136637,230.52087 a 0.68860993,0.14871837 0.85568426 0 1 -0.672206,-0.16174 0.68860993,0.14871837 0.85568426 0 1 0.70448,-0.13514 0.68860993,0.14871837 0.85568426 0 1 0.672207,0.16174 0.68860993,0.14871837 0.85568426 0 1 -0.70449,0.13514 z"
         style="fill:#ffdd55;fill-opacity:1;fill-rule:evenodd;stroke-width:0.3046214" />
      <path
         style="fill:#ffdd55;fill-opacity:1;fill-rule:evenodd;stroke-width:0.3046214"
         d="m 54.136637,230.52087 a 0.68860993,0.14871837 0.85568426 0 1 -0.672206,-0.16174 0.68860993,0.14871837 0.85568426 0 1 0.70448,-0.13514 0.68860993,0.14871837 0.85568426 0 1 0.672207,0.16174 0.68860993,0.14871837 0.85568426 0 1 -0.70449,0.13514 z"
         id="path1662"
         inkscape:connector-curvature="0"
         inkscape:transform-center-x="-0.013591124"
         inkscape:transform-center-y="-0.020991809" />
      <path
         inkscape:transform-center-y="-0.023301997"
         inkscape:transform-center-x="-0.0090635469"
         inkscape:connector-curvature="0"
         id="path1682"
         d="m 54.487512,230.11245 a 0.14871837,0.68860993 79.184656 0 1 -0.691027,-0.0224 0.14871837,0.68860993 79.184656 0 1 0.662578,-0.27486 0.14871837,0.68860993 79.184656 0 1 0.691028,0.0224 0.14871837,0.68860993 79.184656 0 1 -0.662587,0.27486 z"
         style="fill:#ffdd55;fill-opacity:1;fill-rule:evenodd;stroke-width:0.3046214" />
      <path
         inkscape:transform-center-y="-0.02162667"
         inkscape:transform-center-x="0.0125794"
         inkscape:connector-curvature="0"
         id="path1684"
         d="m 54.154168,229.44573 a 0.14871837,0.68860993 27.765837 0 1 -0.448466,0.52622 0.14871837,0.68860993 27.765837 0 1 0.198306,-0.68937 0.14871837,0.68860993 27.765837 0 1 0.448474,-0.52621 0.14871837,0.68860993 27.765837 0 1 -0.198309,0.68938 z"
         style="fill:#ffdd55;fill-opacity:1;fill-rule:evenodd;stroke-width:0.3046214" />
    </g>
    <path
       style="fill:#ffd42a;fill-rule:nonzero;stroke:none;stroke-width:0.26458332px;stroke-linecap:butt;stroke-linejoin:miter;stroke-opacity:1"
       d="m 54.749178,231.01342 -0.004,-0.008 c 0.09173,-0.287 0.213807,-0.62054 0.338038,-0.95629 0.08534,-0.26814 0.27219,-0.51161 0.385301,-0.73205 0.10732,-0.20916 0.258994,-0.42357 0.507711,-0.61114 0.128109,-0.0966 0.288791,-0.1953 0.443978,-0.28381 0.163387,-0.0932 0.328448,-0.17942 0.446895,-0.24094 0.298203,-0.15488 0.422317,-0.21521 0.514911,-0.25517 -0.094,0.0406 -0.205975,0.0779 -0.531258,0.22106 -0.123677,0.0544 -0.291263,0.13033 -0.462298,0.21554 -0.160581,0.08 -0.330126,0.17114 -0.469267,0.26194 -0.276419,0.18045 -0.458001,0.39485 -0.594039,0.61042 -0.141748,0.22462 -0.25545,0.48862 -0.358307,0.7551 -0.131057,0.33953 -0.288965,1.00531 -0.359925,1.22734 l 0.321037,-0.20352 z"
       id="path932"
       inkscape:connector-curvature="0"
       sodipodi:nodetypes="cccccccccccccccc" />
    <path
       style="fill:#ffdd55;fill-rule:nonzero;stroke:none;stroke-width:0.26458332px;stroke-linecap:butt;stroke-linejoin:miter;stroke-opacity:1"
       d="m 54.830438,231.24095 -0.16252,0.0835 c 0.220748,0 0.770838,0.0458 1.124801,0.0297 0.282752,-0.0133 0.595358,-0.0374 0.86041,-0.0869 0.240377,-0.0449 0.470415,-0.11299 0.678477,-0.19442 0.197529,-0.0773 0.367925,-0.16386 0.498225,-0.24598 0.13049,-0.0822 0.236489,-0.1681 0.326769,-0.27092 0.09423,-0.10731 0.167792,-0.22927 0.232334,-0.37327 0.07092,-0.15827 0.142112,-0.3568 0.205472,-0.54306 0.08414,-0.24735 0.158924,-0.48318 0.217784,-0.65766 -0.05448,0.16148 -0.144531,0.4192 -0.235175,0.65131 -0.07181,0.18387 -0.153189,0.37589 -0.234908,0.52626 -0.07364,0.13547 -0.154321,0.2431 -0.251054,0.33293 -0.09206,0.0855 -0.197549,0.154 -0.326622,0.21941 -0.129756,0.0658 -0.297484,0.13598 -0.490898,0.19767 -0.203721,0.065 -0.408993,0.1984 -0.638047,0.22937 -0.252647,0.0341 -0.570719,0.0624 -0.850519,0.0668 -0.307831,0.005 -0.773798,-0.0157 -0.954529,-0.0157 v 0.051 z"
       id="path941"
       inkscape:connector-curvature="0"
       sodipodi:nodetypes="cccccccccccccccccccc" />
  </g>
</svg>
