<?xml version="1.0" encoding="UTF-8" standalone="no"?>
<!-- Created with Inkscape (http://www.inkscape.org/) -->

<svg
   xmlns:dc="http://purl.org/dc/elements/1.1/"
   xmlns:cc="http://creativecommons.org/ns#"
   xmlns:rdf="http://www.w3.org/1999/02/22-rdf-syntax-ns#"
   xmlns:svg="http://www.w3.org/2000/svg"
   xmlns="http://www.w3.org/2000/svg"
   xmlns:sodipodi="http://sodipodi.sourceforge.net/DTD/sodipodi-0.dtd"
   xmlns:inkscape="http://www.inkscape.org/namespaces/inkscape"
   width="50"
   height="50"
   viewBox="0 0 13.229167 13.229167"
   version="1.1"
   id="svg8"
   inkscape:version="0.92.5 (2060ec1f9f, 2020-04-08)"
   sodipodi:docname="tree1.svg">
  <defs
     id="defs2" />
  <sodipodi:namedview
     id="base"
     pagecolor="#ffffff"
     bordercolor="#666666"
     borderopacity="1.0"
     inkscape:pageopacity="0.0"
     inkscape:pageshadow="2"
     inkscape:zoom="16.28"
     inkscape:cx="34.082107"
     inkscape:cy="25"
     inkscape:document-units="mm"
     inkscape:current-layer="layer1"
     showgrid="false"
     inkscape:window-width="1920"
     inkscape:window-height="1053"
     inkscape:window-x="0"
     inkscape:window-y="0"
     inkscape:window-maximized="1"
     inkscape:measure-start="0,0"
     inkscape:measure-end="0,0"
     inkscape:snap-global="true"
     fit-margin-top="0"
     fit-margin-left="0"
     fit-margin-right="0"
     fit-margin-bottom="0"
     units="px"
     inkscape:snap-bbox="true" />
  <metadata
     id="metadata5">
    <rdf:RDF>
      <cc:Work
         rdf:about="">
        <dc:format>image/svg+xml</dc:format>
        <dc:type
           rdf:resource="http://purl.org/dc/dcmitype/StillImage" />
        <dc:title></dc:title>
      </cc:Work>
    </rdf:RDF>
  </metadata>
  <g
     inkscape:label="Layer 1"
     inkscape:groupmode="layer"
     id="layer1"
     transform="translate(-46.135593,-226.8854)">
    <rect
       style="opacity:1;vector-effect:none;fill:#d3d3d3;fill-opacity:1;fill-rule:evenodd;stroke-width:0.26458332;stroke-linecap:butt;stroke-linejoin:miter;stroke-miterlimit:4;stroke-dasharray:none;stroke-dashoffset:0;stroke-opacity:1"
       id="rect889"
       width="13.229167"
       height="13.229167"
       x="46.135593"
       y="226.88539" />
    <rect
       style="opacity:1;vector-effect:none;fill:#d3d3d3;fill-opacity:1;fill-rule:evenodd;stroke-width:0.26458332;stroke-linecap:butt;stroke-linejoin:miter;stroke-miterlimit:4;stroke-dasharray:none;stroke-dashoffset:0;stroke-opacity:1"
       id="rect1833"
       width="13.229167"
       height="13.229167"
       x="46.135593"
       y="226.88539" />
    <g
       id="g887"
       transform="translate(1.1213913,0.3087889)">
      <path
         sodipodi:nodetypes="cccccccccc"
         inkscape:connector-curvature="0"
         id="rect871"
         d="m 50.946198,232.93117 1.170148,0.0488 0.160942,2.68012 0.189997,1.96499 0.07161,1.0756 H 50.83243 l 0.133524,-1.02382 0.06929,-0.84551 -0.0027,-1.88393 z"
         style="opacity:1;vector-effect:none;fill:#552200;fill-opacity:1;fill-rule:evenodd;stroke-width:0.18765473;stroke-linecap:butt;stroke-linejoin:miter;stroke-miterlimit:4;stroke-dasharray:none;stroke-dashoffset:0;stroke-opacity:1" />
      <path
         sodipodi:nodetypes="sssssssssssssssssssssssssssssssssssss"
         inkscape:connector-curvature="0"
         id="path878"
         d="m 55.821814,230.80215 c -1e-6,0.18902 -0.165315,0.40784 -0.201726,0.59022 -0.04671,0.23396 0.04328,0.44456 -0.05228,0.66187 -0.07609,0.17304 -0.43511,0.11319 -0.456594,0.30538 -0.02057,0.18402 0.06865,0.72849 -0.186316,0.7419 -0.135866,0.007 -0.04529,0.34223 -0.311495,0.35448 -0.141247,0.006 -0.26489,0.1804 -0.457532,0.24622 -0.16045,0.0548 -0.223376,-0.0923 -0.409068,-0.0252 -0.111572,0.0403 -0.131865,0.49351 -0.253366,0.54382 -0.628876,0.26035 -1.454304,0.20549 -1.929658,0.20549 -1.210352,0 0,0 -0.997162,0.0676 -0.182574,0.0124 -0.349056,-0.0437 -0.634149,-0.2665 -0.123672,-0.0966 -0.602487,-0.0918 -0.75554,-0.2142 -0.110416,-0.0883 -0.164034,-0.29718 -0.291516,-0.3995 -0.133988,-0.10755 -0.618371,-0.15819 -0.771249,-0.28247 -0.382992,-0.31132 -0.101376,-0.60597 -0.359215,-0.64003 -0.17801,-0.0235 -0.200721,-0.31271 -0.306964,-0.48898 -0.09021,-0.14969 0.172987,-0.53599 0.07399,-0.70441 -0.10899,-0.18542 -0.06997,-0.42638 -0.06997,-0.64693 -1e-6,-0.20592 0.425972,-0.30051 0.252469,-0.8234 -0.06112,-0.1842 0.242223,-0.21727 0.288866,-0.41003 0.0541,-0.22357 -0.141346,-0.55697 -0.06827,-0.7076 0.171122,-0.35274 0.425007,-0.1775 0.506451,-0.57234 0.04686,-0.22718 0.43903,-0.24801 0.636224,-0.36838 0.221677,-0.13531 0.891653,0.28393 0.888135,0.0212 -0.0058,-0.43544 0.47865,-0.64644 0.764026,-0.42988 0.306652,0.2327 0.563648,-0.13877 0.876367,-0.13877 0.178444,0 0.386463,0.18852 0.558363,0.20747 0.184904,0.0204 0.479103,-0.0477 0.654269,-0.01 0.1767,0.0385 0.330536,0.24933 0.493457,0.30696 0.178602,0.0632 0.511379,-0.0927 0.672488,-0.0127 0.16703,0.0829 0.421499,0.11629 0.460485,0.28987 0.04912,0.2187 0.375298,0.41845 0.474051,0.60838 0.09891,0.19022 -0.09755,0.56562 -0.0105,0.7453 0.06895,0.14233 0.241474,0.0705 0.334654,0.19079 0.104065,0.13429 0.14144,0.42739 0.20155,0.62541 0.06009,0.19796 0.386711,0.21955 0.386711,0.42851 z"
         style="fill:#008000;fill-rule:evenodd;stroke-width:0.28636092" />
    </g>
  </g>
</svg>
